<svg width="237" height="460" viewBox="0 0 237 460" fill="none" xmlns="http://www.w3.org/2000/svg">
<g clip-path="url(#clip0_121_118)">
<circle opacity="0.29" cx="248" cy="229" r="228.5" stroke="#5390E3"/>
<circle opacity="0.29" cx="248" cy="229" r="121.734" stroke="#5390E3" stroke-width="0.532751"/>
<circle opacity="0.29" cx="25" cy="279" r="24.5" stroke="#5390E3"/>
<path d="M32.875 270.375H17.125C16.7108 270.375 16.375 270.711 16.375 271.125V286.875C16.375 287.289 16.7108 287.625 17.125 287.625H32.875C33.2892 287.625 33.625 287.289 33.625 286.875V271.125C33.625 270.711 33.2892 270.375 32.875 270.375Z" stroke="#4CA9FF" stroke-linecap="round" stroke-linejoin="round"/>
<path d="M24.25 277.5V283.5" stroke="#4CA9FF" stroke-linecap="round" stroke-linejoin="round"/>
<path d="M21.25 277.5V283.5" stroke="#4CA9FF" stroke-linecap="round" stroke-linejoin="round"/>
<path d="M24.25 280.125C24.25 279.429 24.5266 278.761 25.0188 278.269C25.5111 277.777 26.1788 277.5 26.875 277.5C27.5712 277.5 28.2389 277.777 28.7312 278.269C29.2234 278.761 29.5 279.429 29.5 280.125V283.5" stroke="#4CA9FF" stroke-linecap="round" stroke-linejoin="round"/>
<path d="M21.25 275.625C21.8713 275.625 22.375 275.121 22.375 274.5C22.375 273.879 21.8713 273.375 21.25 273.375C20.6287 273.375 20.125 273.879 20.125 274.5C20.125 275.121 20.6287 275.625 21.25 275.625Z" fill="#4CA9FF"/>
<circle opacity="0.29" cx="116" cy="419" r="24.5" stroke="#5390E3"/>
<path d="M123.875 410.375H108.125C107.711 410.375 107.375 410.711 107.375 411.125V426.875C107.375 427.289 107.711 427.625 108.125 427.625H123.875C124.289 427.625 124.625 427.289 124.625 426.875V411.125C124.625 410.711 124.289 410.375 123.875 410.375Z" stroke="#4CA9FF" stroke-linecap="round" stroke-linejoin="round"/>
<path d="M115.25 417.5V423.5" stroke="#4CA9FF" stroke-linecap="round" stroke-linejoin="round"/>
<path d="M112.25 417.5V423.5" stroke="#4CA9FF" stroke-linecap="round" stroke-linejoin="round"/>
<path d="M115.25 420.125C115.25 419.429 115.527 418.761 116.019 418.269C116.511 417.777 117.179 417.5 117.875 417.5C118.571 417.5 119.239 417.777 119.731 418.269C120.223 418.761 120.5 419.429 120.5 420.125V423.5" stroke="#4CA9FF" stroke-linecap="round" stroke-linejoin="round"/>
<path d="M112.25 415.625C112.871 415.625 113.375 415.121 113.375 414.5C113.375 413.879 112.871 413.375 112.25 413.375C111.629 413.375 111.125 413.879 111.125 414.5C111.125 415.121 111.629 415.625 112.25 415.625Z" fill="#4CA9FF"/>
<circle opacity="0.29" cx="141" cy="288" r="24.5" stroke="#5390E3"/>
<path d="M148.875 279.375H133.125C132.711 279.375 132.375 279.711 132.375 280.125V295.875C132.375 296.289 132.711 296.625 133.125 296.625H148.875C149.289 296.625 149.625 296.289 149.625 295.875V280.125C149.625 279.711 149.289 279.375 148.875 279.375Z" stroke="#4CA9FF" stroke-linecap="round" stroke-linejoin="round"/>
<path d="M140.25 286.5V292.5" stroke="#4CA9FF" stroke-linecap="round" stroke-linejoin="round"/>
<path d="M137.25 286.5V292.5" stroke="#4CA9FF" stroke-linecap="round" stroke-linejoin="round"/>
<path d="M140.25 289.125C140.25 288.429 140.527 287.761 141.019 287.269C141.511 286.777 142.179 286.5 142.875 286.5C143.571 286.5 144.239 286.777 144.731 287.269C145.223 287.761 145.5 288.429 145.5 289.125V292.5" stroke="#4CA9FF" stroke-linecap="round" stroke-linejoin="round"/>
<path d="M137.25 284.625C137.871 284.625 138.375 284.121 138.375 283.5C138.375 282.879 137.871 282.375 137.25 282.375C136.629 282.375 136.125 282.879 136.125 283.5C136.125 284.121 136.629 284.625 137.25 284.625Z" fill="#4CA9FF"/>
<circle opacity="0.29" cx="157" cy="149" r="24.5" stroke="#5390E3"/>
<path d="M164.875 140.375H149.125C148.711 140.375 148.375 140.711 148.375 141.125V156.875C148.375 157.289 148.711 157.625 149.125 157.625H164.875C165.289 157.625 165.625 157.289 165.625 156.875V141.125C165.625 140.711 165.289 140.375 164.875 140.375Z" stroke="#4CA9FF" stroke-linecap="round" stroke-linejoin="round"/>
<path d="M156.25 147.5V153.5" stroke="#4CA9FF" stroke-linecap="round" stroke-linejoin="round"/>
<path d="M153.25 147.5V153.5" stroke="#4CA9FF" stroke-linecap="round" stroke-linejoin="round"/>
<path d="M156.25 150.125C156.25 149.429 156.527 148.761 157.019 148.269C157.511 147.777 158.179 147.5 158.875 147.5C159.571 147.5 160.239 147.777 160.731 148.269C161.223 148.761 161.5 149.429 161.5 150.125V153.5" stroke="#4CA9FF" stroke-linecap="round" stroke-linejoin="round"/>
<path d="M153.25 145.625C153.871 145.625 154.375 145.121 154.375 144.5C154.375 143.879 153.871 143.375 153.25 143.375C152.629 143.375 152.125 143.879 152.125 144.5C152.125 145.121 152.629 145.625 153.25 145.625Z" fill="#4CA9FF"/>
<circle opacity="0.29" cx="145" cy="30" r="24.5" fill="#000B16" stroke="#5390E3"/>
<path d="M145 33.75C147.071 33.75 148.75 32.0711 148.75 30C148.75 27.9289 147.071 26.25 145 26.25C142.929 26.25 141.25 27.9289 141.25 30C141.25 32.0711 142.929 33.75 145 33.75Z" stroke="#4CA9FF" stroke-miterlimit="10"/>
<path d="M149.125 21.375H140.875C138.39 21.375 136.375 23.3897 136.375 25.875V34.125C136.375 36.6103 138.39 38.625 140.875 38.625H149.125C151.61 38.625 153.625 36.6103 153.625 34.125V25.875C153.625 23.3897 151.61 21.375 149.125 21.375Z" stroke="#4CA9FF" stroke-linecap="round" stroke-linejoin="round"/>
<path d="M149.875 26.25C150.496 26.25 151 25.7463 151 25.125C151 24.5037 150.496 24 149.875 24C149.254 24 148.75 24.5037 148.75 25.125C148.75 25.7463 149.254 26.25 149.875 26.25Z" fill="#4CA9FF"/>
<circle opacity="0.29" cx="42" cy="132" r="24.5" fill="#000B16" stroke="#5390E3"/>
<path d="M37.875 142.5C38.1708 142.501 38.464 142.444 38.7375 142.331C39.011 142.219 39.2596 142.053 39.4688 141.844C39.6779 141.635 39.8436 141.386 39.9563 141.113C40.0689 140.839 40.1262 140.546 40.125 140.25V135.75" stroke="#4CA9FF" stroke-linecap="round" stroke-linejoin="round"/>
<path d="M46.125 142.5C45.8292 142.501 45.5361 142.444 45.2625 142.331C44.989 142.219 44.7404 142.053 44.5313 141.844C44.3221 141.635 44.1564 141.386 44.0438 141.113C43.9311 140.839 43.8738 140.546 43.875 140.25V135.75" stroke="#4CA9FF" stroke-linecap="round" stroke-linejoin="round"/>
<path d="M44.25 135.75H45.75C46.0458 135.749 46.339 135.806 46.6125 135.919C46.886 136.031 47.1346 136.197 47.3438 136.406C47.5529 136.615 47.7186 136.864 47.8313 137.137C47.9439 137.411 48.0012 137.704 48 138V138.75C47.9988 139.046 48.0561 139.339 48.1687 139.612C48.2814 139.886 48.4471 140.135 48.6562 140.344C48.8654 140.553 49.114 140.719 49.3875 140.831C49.661 140.944 49.9542 141.001 50.25 141" stroke="#4CA9FF" stroke-linecap="round" stroke-linejoin="round"/>
<path d="M39.75 135.75H38.25C37.9542 135.749 37.661 135.806 37.3875 135.919C37.114 136.031 36.8654 136.197 36.6562 136.406C36.4471 136.615 36.2814 136.864 36.1687 137.137C36.0561 137.411 35.9988 137.704 36 138V138.75C36.0012 139.046 35.9439 139.339 35.8313 139.612C35.7186 139.886 35.5529 140.135 35.3438 140.344C35.1346 140.553 34.886 140.719 34.6125 140.831C34.339 140.944 34.0458 141.001 33.75 141" stroke="#4CA9FF" stroke-linecap="round" stroke-linejoin="round"/>
<path d="M40.4813 126C40.0406 125.31 39.4335 124.743 38.7159 124.35C37.9983 123.957 37.1933 123.75 36.375 123.75C36.0112 124.38 35.7928 125.083 35.7361 125.808C35.6793 126.533 35.7855 127.262 36.0469 127.941C35.5343 128.696 35.257 129.587 35.25 130.5V131.25C35.25 132.443 35.7241 133.588 36.568 134.432C37.4119 135.276 38.5565 135.75 39.75 135.75H44.25C45.4435 135.75 46.5881 135.276 47.432 134.432C48.2759 133.588 48.75 132.443 48.75 131.25V130.5C48.743 129.587 48.4657 128.696 47.9531 127.941C48.2145 127.262 48.3207 126.533 48.2639 125.808C48.2072 125.083 47.9888 124.38 47.625 123.75C46.8067 123.75 46.0017 123.957 45.2841 124.35C44.5665 124.743 43.9594 125.31 43.5187 126H40.4813Z" stroke="#4CA9FF" stroke-linecap="round" stroke-linejoin="round"/>
<circle opacity="0.29" cx="238" cy="225" r="45.8995" transform="rotate(-180 238 225)" fill="#12D4FF" stroke="#5390E3" stroke-width="0.200873"/>
</g>
<defs>
<clipPath id="clip0_121_118">
<rect width="237" height="460" fill="white"/>
</clipPath>
</defs>
</svg>
