<svg width="237" height="460" viewBox="0 0 237 460" fill="none" xmlns="http://www.w3.org/2000/svg">
<g clip-path="url(#clip0_121_81)">
<circle opacity="0.29" cx="-15.0206" cy="235.633" r="214.51" transform="rotate(-180 -15.0206 235.633)" stroke="#5390E3" stroke-width="0.938775"/>
<circle opacity="0.29" cx="-15.0204" cy="235.633" r="102.103" transform="rotate(-180 -15.0204 235.633)" stroke="#5390E3" stroke-width="0.446841"/>
<circle opacity="0.29" cx="-15.0205" cy="235.633" r="45.8995" transform="rotate(-180 -15.0205 235.633)" fill="#12D4FF" stroke="#5390E3" stroke-width="0.200873"/>
<path opacity="0.29" d="M22.0613 32.8571C22.0613 14.9699 36.5617 0.469402 54.449 0.469403C72.3363 0.469405 86.8368 14.9699 86.8368 32.8572C86.8368 50.7444 72.3363 65.2449 54.449 65.2449C36.5617 65.2449 22.0613 50.7444 22.0613 32.8571Z" stroke="#5390E3" stroke-width="0.938775"/>
<path d="M31.8144 37.5306V26.8661H35.4343C36.5658 26.8661 37.5071 27.1064 38.2581 27.5871C39.0192 28.0577 39.5899 28.6986 39.9705 29.5097C40.351 30.3108 40.5412 31.202 40.5412 32.1833C40.5412 33.2648 40.3309 34.2061 39.9104 35.0072C39.4998 35.8083 38.909 36.4291 38.138 36.8697C37.3769 37.3103 36.4757 37.5306 35.4343 37.5306H31.8144ZM39.4898 32.1833C39.4898 31.3322 39.3296 30.5762 39.0092 29.9153C38.6987 29.2544 38.2431 28.7387 37.6423 28.3682C37.0415 27.9876 36.3055 27.7974 35.4343 27.7974H32.8658V36.5993H35.4343C36.3155 36.5993 37.0565 36.4041 37.6573 36.0135C38.2581 35.623 38.7138 35.0973 39.0242 34.4364C39.3346 33.7655 39.4898 33.0145 39.4898 32.1833ZM45.7209 37.6808C45.1602 37.6808 44.6395 37.5757 44.1588 37.3654C43.6782 37.1451 43.2626 36.8497 42.9121 36.4792C42.5616 36.0987 42.2863 35.6631 42.086 35.1724C41.8957 34.6817 41.8006 34.156 41.8006 33.5953C41.8006 32.8643 41.9658 32.1934 42.2963 31.5825C42.6367 30.9717 43.1024 30.486 43.6932 30.1255C44.284 29.755 44.9549 29.5698 45.7059 29.5698C46.477 29.5698 47.1479 29.755 47.7186 30.1255C48.2994 30.4961 48.755 30.9867 49.0855 31.5975C49.4159 32.1984 49.5812 32.8593 49.5812 33.5802C49.5812 33.6604 49.5812 33.7405 49.5812 33.8206C49.5812 33.8907 49.5762 33.9457 49.5662 33.9858H42.867C42.9171 34.5466 43.0723 35.0472 43.3327 35.4878C43.603 35.9184 43.9485 36.2639 44.3691 36.5242C44.7997 36.7746 45.2653 36.8998 45.766 36.8998C46.2767 36.8998 46.7573 36.7696 47.2079 36.5092C47.6686 36.2489 47.989 35.9084 48.1693 35.4878L49.0555 35.7282C48.8952 36.0987 48.6499 36.4341 48.3195 36.7345C47.989 37.0349 47.5985 37.2703 47.1479 37.4405C46.7073 37.6007 46.2316 37.6808 45.7209 37.6808ZM42.837 33.2498H48.6199C48.5798 32.679 48.4246 32.1783 48.1542 31.7478C47.8939 31.3172 47.5484 30.9817 47.1178 30.7414C46.6973 30.491 46.2316 30.3659 45.7209 30.3659C45.2102 30.3659 44.7446 30.491 44.324 30.7414C43.9035 30.9817 43.558 31.3222 43.2876 31.7628C43.0273 32.1934 42.8771 32.689 42.837 33.2498ZM53.7255 37.6808C53.0846 37.6808 52.4888 37.5757 51.9381 37.3654C51.3873 37.1551 50.9117 36.8347 50.5111 36.4041L50.9317 35.6831C51.3723 36.0937 51.8129 36.3941 52.2535 36.5843C52.7041 36.7646 53.1798 36.8547 53.6805 36.8547C54.2913 36.8547 54.787 36.7345 55.1675 36.4942C55.548 36.2439 55.7382 35.8884 55.7382 35.4278C55.7382 35.1173 55.6431 34.882 55.4529 34.7218C55.2726 34.5516 55.0073 34.4164 54.6568 34.3162C54.3163 34.2061 53.9058 34.0909 53.4251 33.9708C52.8844 33.8206 52.4288 33.6654 52.0582 33.5051C51.6978 33.3349 51.4224 33.1246 51.2321 32.8743C51.0519 32.6139 50.9618 32.2785 50.9618 31.8679C50.9618 31.3572 51.0869 30.9366 51.3373 30.6062C51.5976 30.2657 51.9481 30.0104 52.3887 29.8402C52.8393 29.6599 53.34 29.5698 53.8907 29.5698C54.4916 29.5698 55.0223 29.6649 55.4829 29.8552C55.9435 30.0454 56.319 30.3108 56.6094 30.6513L56.1138 31.3422C55.8334 31.0218 55.4979 30.7864 55.1074 30.6362C54.7269 30.476 54.3013 30.3959 53.8307 30.3959C53.5102 30.3959 53.2048 30.441 52.9144 30.5311C52.624 30.6112 52.3837 30.7514 52.1934 30.9517C52.0132 31.1419 51.9231 31.4073 51.9231 31.7478C51.9231 32.0281 51.9932 32.2484 52.1333 32.4086C52.2735 32.5589 52.4838 32.689 52.7642 32.7992C53.0446 32.8993 53.3901 33.0095 53.8006 33.1296C54.3914 33.2898 54.9071 33.4551 55.3477 33.6253C55.7883 33.7855 56.1288 33.9958 56.3691 34.2562C56.6094 34.5165 56.7296 34.882 56.7296 35.3526C56.7296 36.0836 56.4542 36.6544 55.9035 37.065C55.3527 37.4755 54.6267 37.6808 53.7255 37.6808ZM58.4179 37.5306V29.705H59.4393V37.5306H58.4179ZM58.4179 28.0678V26.5657H59.4393V28.0678H58.4179ZM64.8282 37.6358C64.2975 37.6358 63.8068 37.5256 63.3562 37.3053C62.9056 37.085 62.515 36.7896 62.1846 36.4191C61.8641 36.0386 61.6138 35.608 61.4336 35.1273C61.2533 34.6467 61.1632 34.151 61.1632 33.6403C61.1632 33.0896 61.2483 32.5739 61.4185 32.0932C61.5988 31.6026 61.8491 31.167 62.1696 30.7864C62.5 30.4059 62.8855 30.1105 63.3261 29.9002C63.7667 29.6799 64.2574 29.5698 64.7981 29.5698C65.469 29.5698 66.0498 29.74 66.5405 30.0805C67.0412 30.4209 67.4618 30.8415 67.8022 31.3422V29.705H68.7185V37.5606C68.7185 38.2816 68.5432 38.8875 68.1927 39.3781C67.8523 39.8788 67.3867 40.2543 66.7958 40.5047C66.2151 40.755 65.5792 40.8802 64.8883 40.8802C63.997 40.8802 63.2761 40.7199 62.7253 40.3995C62.1746 40.0791 61.724 39.6485 61.3735 39.1078L62.0043 38.6121C62.3148 39.1027 62.7253 39.4682 63.236 39.7086C63.7567 39.9489 64.3075 40.0691 64.8883 40.0691C65.399 40.0691 65.8646 39.9739 66.2852 39.7837C66.7157 39.6034 67.0562 39.3281 67.3065 38.9575C67.5669 38.587 67.6971 38.1214 67.6971 37.5606V36.0135C67.3967 36.5042 66.9861 36.8998 66.4654 37.2002C65.9447 37.4906 65.399 37.6358 64.8282 37.6358ZM65.1136 36.7796C65.424 36.7796 65.7194 36.7245 65.9998 36.6144C66.2902 36.5042 66.5555 36.359 66.7958 36.1788C67.0362 35.9885 67.2364 35.7782 67.3967 35.5479C67.5569 35.3176 67.657 35.0823 67.6971 34.842V32.4237C67.5469 32.0432 67.3316 31.7077 67.0512 31.4173C66.7708 31.1169 66.4504 30.8866 66.0899 30.7264C65.7394 30.5561 65.3739 30.471 64.9934 30.471C64.5528 30.471 64.1573 30.5661 63.8068 30.7564C63.4663 30.9366 63.1759 31.182 62.9356 31.4924C62.7053 31.7928 62.525 32.1333 62.3949 32.5138C62.2647 32.8943 62.1996 33.2748 62.1996 33.6553C62.1996 34.0759 62.2747 34.4765 62.4249 34.857C62.5751 35.2275 62.7804 35.5629 63.0407 35.8633C63.3111 36.1537 63.6215 36.379 63.972 36.5393C64.3325 36.6995 64.713 36.7796 65.1136 36.7796ZM77.5529 37.5306H76.5315V33.1597C76.5315 32.2384 76.3964 31.5675 76.126 31.1469C75.8556 30.7164 75.43 30.5011 74.8493 30.5011C74.4487 30.5011 74.0532 30.6012 73.6626 30.8015C73.2721 30.9917 72.9266 31.2571 72.6262 31.5975C72.3358 31.928 72.1256 32.3085 71.9954 32.7391V37.5306H70.974V29.705H71.9053V31.4774C72.1155 31.0969 72.3909 30.7664 72.7314 30.486C73.0718 30.1956 73.4574 29.9703 73.8879 29.8101C74.3185 29.6499 74.7641 29.5698 75.2248 29.5698C75.6553 29.5698 76.0208 29.6499 76.3213 29.8101C76.6217 29.9703 76.862 30.2006 77.0422 30.5011C77.2225 30.7915 77.3527 31.1469 77.4328 31.5675C77.5129 31.9781 77.5529 32.4387 77.5529 32.9494V37.5306Z" fill="white"/>
<path opacity="0.29" d="M162.878 192.449C162.878 174.043 177.798 159.122 196.204 159.122C214.61 159.122 229.531 174.043 229.531 192.449C229.531 210.855 214.61 225.776 196.204 225.776C177.798 225.776 162.878 210.855 162.878 192.449Z" stroke="#5390E3" stroke-width="0.938775"/>
<path d="M183.057 187.735V179.053L179.197 185.797H178.536L174.661 179.053V187.735H173.609V177.07H174.691L178.852 184.37L183.042 177.07H184.109V187.735H183.057ZM189.789 187.885C189.228 187.885 188.707 187.78 188.226 187.569C187.756 187.349 187.345 187.054 186.995 186.683C186.654 186.303 186.389 185.872 186.199 185.391C186.008 184.901 185.913 184.385 185.913 183.844C185.913 183.284 186.008 182.763 186.199 182.282C186.389 181.792 186.659 181.361 187.01 180.991C187.36 180.61 187.771 180.315 188.241 180.104C188.722 179.884 189.243 179.774 189.804 179.774C190.364 179.774 190.88 179.884 191.351 180.104C191.821 180.315 192.232 180.61 192.582 180.991C192.933 181.361 193.203 181.792 193.393 182.282C193.584 182.763 193.679 183.284 193.679 183.844C193.679 184.385 193.584 184.901 193.393 185.391C193.203 185.872 192.933 186.303 192.582 186.683C192.242 187.054 191.831 187.349 191.351 187.569C190.88 187.78 190.359 187.885 189.789 187.885ZM186.95 183.859C186.95 184.44 187.075 184.971 187.325 185.452C187.586 185.922 187.931 186.298 188.362 186.578C188.792 186.848 189.268 186.984 189.789 186.984C190.309 186.984 190.785 186.843 191.216 186.563C191.646 186.283 191.992 185.902 192.252 185.422C192.512 184.931 192.642 184.4 192.642 183.829C192.642 183.249 192.512 182.718 192.252 182.237C191.992 181.757 191.646 181.376 191.216 181.096C190.785 180.815 190.309 180.675 189.789 180.675C189.268 180.675 188.792 180.82 188.362 181.111C187.941 181.401 187.601 181.787 187.34 182.267C187.08 182.738 186.95 183.269 186.95 183.859ZM199.025 187.359C198.945 187.389 198.82 187.444 198.649 187.524C198.479 187.605 198.274 187.675 198.034 187.735C197.793 187.795 197.533 187.825 197.252 187.825C196.962 187.825 196.687 187.77 196.426 187.66C196.176 187.549 195.976 187.384 195.826 187.164C195.675 186.934 195.6 186.653 195.6 186.323V180.72H194.519V179.909H195.6V177.265H196.622V179.909H198.424V180.72H196.622V186.037C196.642 186.318 196.742 186.528 196.922 186.668C197.112 186.808 197.328 186.879 197.568 186.879C197.848 186.879 198.104 186.833 198.334 186.743C198.564 186.643 198.704 186.573 198.754 186.533L199.025 187.359ZM200.301 187.735V179.909H201.322V187.735H200.301ZM200.301 178.272V176.77H201.322V178.272H200.301ZM206.907 187.885C206.346 187.885 205.825 187.78 205.344 187.569C204.874 187.349 204.463 187.054 204.113 186.683C203.772 186.303 203.507 185.872 203.317 185.391C203.126 184.901 203.031 184.385 203.031 183.844C203.031 183.284 203.126 182.763 203.317 182.282C203.507 181.792 203.777 181.361 204.128 180.991C204.478 180.61 204.889 180.315 205.359 180.104C205.84 179.884 206.361 179.774 206.922 179.774C207.482 179.774 207.998 179.884 208.469 180.104C208.939 180.315 209.35 180.61 209.7 180.991C210.051 181.361 210.321 181.792 210.511 182.282C210.702 182.763 210.797 183.284 210.797 183.844C210.797 184.385 210.702 184.901 210.511 185.391C210.321 185.872 210.051 186.303 209.7 186.683C209.36 187.054 208.949 187.349 208.469 187.569C207.998 187.78 207.477 187.885 206.907 187.885ZM204.068 183.859C204.068 184.44 204.193 184.971 204.443 185.452C204.704 185.922 205.049 186.298 205.48 186.578C205.91 186.848 206.386 186.984 206.907 186.984C207.427 186.984 207.903 186.843 208.334 186.563C208.764 186.283 209.11 185.902 209.37 185.422C209.63 184.931 209.76 184.4 209.76 183.829C209.76 183.249 209.63 182.718 209.37 182.237C209.11 181.757 208.764 181.376 208.334 181.096C207.903 180.815 207.427 180.675 206.907 180.675C206.386 180.675 205.91 180.82 205.48 181.111C205.059 181.401 204.719 181.787 204.458 182.267C204.198 182.738 204.068 183.269 204.068 183.859ZM219.084 187.735H218.063V183.364C218.063 182.442 217.927 181.772 217.657 181.351C217.387 180.92 216.961 180.705 216.38 180.705C215.98 180.705 215.584 180.805 215.194 181.006C214.803 181.196 214.458 181.461 214.157 181.802C213.867 182.132 213.657 182.513 213.526 182.943V187.735H212.505V179.909H213.436V181.681C213.647 181.301 213.922 180.97 214.262 180.69C214.603 180.4 214.988 180.174 215.419 180.014C215.85 179.854 216.295 179.774 216.756 179.774C217.186 179.774 217.552 179.854 217.852 180.014C218.153 180.174 218.393 180.405 218.573 180.705C218.754 180.996 218.884 181.351 218.964 181.772C219.044 182.182 219.084 182.643 219.084 183.153V187.735ZM173.477 207.735V197.07H177.097C178.229 197.07 179.17 197.311 179.921 197.791C180.682 198.262 181.253 198.903 181.634 199.714C182.014 200.515 182.204 201.406 182.204 202.387C182.204 203.469 181.994 204.41 181.573 205.211C181.163 206.012 180.572 206.633 179.801 207.074C179.04 207.514 178.139 207.735 177.097 207.735H173.477ZM181.153 202.387C181.153 201.536 180.993 200.78 180.672 200.119C180.362 199.458 179.906 198.943 179.305 198.572C178.705 198.192 177.969 198.001 177.097 198.001H174.529V206.803H177.097C177.979 206.803 178.72 206.608 179.32 206.218C179.921 205.827 180.377 205.301 180.687 204.64C180.998 203.97 181.153 203.219 181.153 202.387ZM187.384 207.885C186.823 207.885 186.303 207.78 185.822 207.569C185.341 207.349 184.926 207.054 184.575 206.683C184.225 206.303 183.949 205.867 183.749 205.376C183.559 204.886 183.464 204.36 183.464 203.799C183.464 203.068 183.629 202.397 183.959 201.787C184.3 201.176 184.765 200.69 185.356 200.33C185.947 199.959 186.618 199.774 187.369 199.774C188.14 199.774 188.811 199.959 189.382 200.33C189.963 200.7 190.418 201.191 190.749 201.802C191.079 202.402 191.244 203.063 191.244 203.784C191.244 203.864 191.244 203.945 191.244 204.025C191.244 204.095 191.239 204.15 191.229 204.19H184.53C184.58 204.751 184.735 205.251 184.996 205.692C185.266 206.122 185.612 206.468 186.032 206.728C186.463 206.979 186.928 207.104 187.429 207.104C187.94 207.104 188.42 206.974 188.871 206.713C189.332 206.453 189.652 206.112 189.832 205.692L190.719 205.932C190.558 206.303 190.313 206.638 189.983 206.939C189.652 207.239 189.262 207.474 188.811 207.645C188.37 207.805 187.895 207.885 187.384 207.885ZM184.5 203.454H190.283C190.243 202.883 190.088 202.382 189.817 201.952C189.557 201.521 189.212 201.186 188.781 200.945C188.36 200.695 187.895 200.57 187.384 200.57C186.873 200.57 186.408 200.695 185.987 200.945C185.567 201.186 185.221 201.526 184.951 201.967C184.69 202.397 184.54 202.893 184.5 203.454ZM195.389 207.885C194.748 207.885 194.152 207.78 193.601 207.569C193.05 207.359 192.575 207.039 192.174 206.608L192.595 205.887C193.035 206.298 193.476 206.598 193.917 206.788C194.367 206.969 194.843 207.059 195.344 207.059C195.954 207.059 196.45 206.939 196.831 206.698C197.211 206.448 197.401 206.092 197.401 205.632C197.401 205.321 197.306 205.086 197.116 204.926C196.936 204.756 196.67 204.62 196.32 204.52C195.979 204.41 195.569 204.295 195.088 204.175C194.547 204.025 194.092 203.869 193.721 203.709C193.361 203.539 193.085 203.329 192.895 203.078C192.715 202.818 192.625 202.483 192.625 202.072C192.625 201.561 192.75 201.141 193 200.81C193.261 200.47 193.611 200.214 194.052 200.044C194.502 199.864 195.003 199.774 195.554 199.774C196.155 199.774 196.685 199.869 197.146 200.059C197.607 200.25 197.982 200.515 198.273 200.855L197.777 201.546C197.496 201.226 197.161 200.991 196.77 200.84C196.39 200.68 195.964 200.6 195.494 200.6C195.173 200.6 194.868 200.645 194.578 200.735C194.287 200.815 194.047 200.955 193.857 201.156C193.676 201.346 193.586 201.611 193.586 201.952C193.586 202.232 193.656 202.453 193.796 202.613C193.937 202.763 194.147 202.893 194.427 203.003C194.708 203.103 195.053 203.214 195.464 203.334C196.055 203.494 196.57 203.659 197.011 203.829C197.451 203.99 197.792 204.2 198.032 204.46C198.273 204.721 198.393 205.086 198.393 205.557C198.393 206.288 198.117 206.858 197.567 207.269C197.016 207.68 196.29 207.885 195.389 207.885ZM200.081 207.735V199.909H201.102V207.735H200.081ZM200.081 198.272V196.77H201.102V198.272H200.081ZM206.491 207.84C205.961 207.84 205.47 207.73 205.019 207.509C204.569 207.289 204.178 206.994 203.848 206.623C203.527 206.243 203.277 205.812 203.097 205.331C202.916 204.851 202.826 204.355 202.826 203.844C202.826 203.294 202.911 202.778 203.082 202.297C203.262 201.807 203.512 201.371 203.833 200.991C204.163 200.61 204.549 200.315 204.989 200.104C205.43 199.884 205.921 199.774 206.461 199.774C207.132 199.774 207.713 199.944 208.204 200.285C208.704 200.625 209.125 201.046 209.465 201.546V199.909H210.382V207.765C210.382 208.486 210.206 209.092 209.856 209.582C209.515 210.083 209.05 210.458 208.459 210.709C207.878 210.959 207.242 211.084 206.551 211.084C205.66 211.084 204.939 210.924 204.388 210.604C203.838 210.283 203.387 209.853 203.037 209.312L203.667 208.816C203.978 209.307 204.388 209.672 204.899 209.913C205.42 210.153 205.971 210.273 206.551 210.273C207.062 210.273 207.528 210.178 207.948 209.988C208.379 209.807 208.719 209.532 208.97 209.162C209.23 208.791 209.36 208.325 209.36 207.765V206.218C209.06 206.708 208.649 207.104 208.129 207.404C207.608 207.695 207.062 207.84 206.491 207.84ZM206.777 206.984C207.087 206.984 207.382 206.929 207.663 206.818C207.953 206.708 208.219 206.563 208.459 206.383C208.699 206.193 208.9 205.982 209.06 205.752C209.22 205.522 209.32 205.286 209.36 205.046V202.628C209.21 202.247 208.995 201.912 208.714 201.621C208.434 201.321 208.113 201.091 207.753 200.93C207.403 200.76 207.037 200.675 206.657 200.675C206.216 200.675 205.82 200.77 205.47 200.96C205.129 201.141 204.839 201.386 204.599 201.696C204.368 201.997 204.188 202.337 204.058 202.718C203.928 203.098 203.863 203.479 203.863 203.859C203.863 204.28 203.938 204.681 204.088 205.061C204.238 205.432 204.444 205.767 204.704 206.067C204.974 206.358 205.285 206.583 205.635 206.743C205.996 206.904 206.376 206.984 206.777 206.984ZM219.216 207.735H218.195V203.364C218.195 202.442 218.059 201.772 217.789 201.351C217.519 200.92 217.093 200.705 216.512 200.705C216.112 200.705 215.716 200.805 215.326 201.006C214.935 201.196 214.59 201.461 214.289 201.802C213.999 202.132 213.789 202.513 213.658 202.943V207.735H212.637V199.909H213.568V201.681C213.779 201.301 214.054 200.97 214.394 200.69C214.735 200.4 215.12 200.174 215.551 200.014C215.982 199.854 216.427 199.774 216.888 199.774C217.318 199.774 217.684 199.854 217.984 200.014C218.285 200.174 218.525 200.405 218.705 200.705C218.886 200.996 219.016 201.351 219.096 201.772C219.176 202.182 219.216 202.643 219.216 203.153V207.735Z" fill="white"/>
<circle opacity="0.29" cx="180.245" cy="322.939" r="49.0562" transform="rotate(-180 180.245 322.939)" stroke="#5390E3" stroke-width="1.39773"/>
<path d="M146.532 318.224V307.56H153.531V308.491H147.583V312.412H152.6V313.283H147.583V318.224H146.532ZM158.5 311.3C157.819 311.32 157.218 311.51 156.697 311.871C156.187 312.231 155.826 312.727 155.616 313.358V318.224H154.594V310.399H155.556V312.276C155.826 311.726 156.182 311.28 156.622 310.94C157.073 310.599 157.548 310.409 158.049 310.369C158.149 310.359 158.234 310.354 158.304 310.354C158.385 310.354 158.45 310.359 158.5 310.369V311.3ZM162.946 318.375C162.385 318.375 161.864 318.27 161.383 318.059C160.913 317.839 160.502 317.544 160.152 317.173C159.811 316.793 159.546 316.362 159.356 315.881C159.165 315.391 159.07 314.875 159.07 314.334C159.07 313.773 159.165 313.253 159.356 312.772C159.546 312.281 159.816 311.851 160.167 311.48C160.517 311.1 160.928 310.804 161.398 310.594C161.879 310.374 162.4 310.264 162.961 310.264C163.521 310.264 164.037 310.374 164.508 310.594C164.978 310.804 165.389 311.1 165.739 311.48C166.09 311.851 166.36 312.281 166.55 312.772C166.741 313.253 166.836 313.773 166.836 314.334C166.836 314.875 166.741 315.391 166.55 315.881C166.36 316.362 166.09 316.793 165.739 317.173C165.399 317.544 164.988 317.839 164.508 318.059C164.037 318.27 163.516 318.375 162.946 318.375ZM160.107 314.349C160.107 314.93 160.232 315.461 160.482 315.941C160.743 316.412 161.088 316.788 161.519 317.068C161.949 317.338 162.425 317.473 162.946 317.473C163.466 317.473 163.942 317.333 164.372 317.053C164.803 316.773 165.149 316.392 165.409 315.911C165.669 315.421 165.799 314.89 165.799 314.319C165.799 313.738 165.669 313.208 165.409 312.727C165.149 312.246 164.803 311.866 164.372 311.585C163.942 311.305 163.466 311.165 162.946 311.165C162.425 311.165 161.949 311.31 161.519 311.6C161.098 311.891 160.758 312.276 160.497 312.757C160.237 313.228 160.107 313.758 160.107 314.349ZM175.123 318.224H174.102V313.854C174.102 312.932 173.966 312.261 173.696 311.841C173.426 311.41 173 311.195 172.419 311.195C172.019 311.195 171.623 311.295 171.233 311.495C170.842 311.686 170.497 311.951 170.196 312.291C169.906 312.622 169.696 313.002 169.565 313.433V318.224H168.544V310.399H169.475V312.171C169.686 311.791 169.961 311.46 170.301 311.18C170.642 310.89 171.027 310.664 171.458 310.504C171.889 310.344 172.334 310.264 172.795 310.264C173.225 310.264 173.591 310.344 173.891 310.504C174.192 310.664 174.432 310.895 174.612 311.195C174.793 311.485 174.923 311.841 175.003 312.261C175.083 312.672 175.123 313.133 175.123 313.643V318.224ZM180.983 317.849C180.903 317.879 180.778 317.934 180.607 318.014C180.437 318.094 180.232 318.164 179.991 318.224C179.751 318.285 179.491 318.315 179.21 318.315C178.92 318.315 178.645 318.26 178.384 318.149C178.134 318.039 177.934 317.874 177.783 317.654C177.633 317.423 177.558 317.143 177.558 316.813V311.21H176.477V310.399H177.558V307.755H178.58V310.399H180.382V311.21H178.58V316.527C178.6 316.808 178.7 317.018 178.88 317.158C179.07 317.298 179.285 317.368 179.526 317.368C179.806 317.368 180.062 317.323 180.292 317.233C180.522 317.133 180.662 317.063 180.712 317.023L180.983 317.849ZM182.079 314.605V313.658H186.465V314.605H182.079ZM191.946 318.375C191.385 318.375 190.864 318.27 190.384 318.059C189.903 317.839 189.488 317.544 189.137 317.173C188.787 316.793 188.511 316.357 188.311 315.866C188.121 315.376 188.026 314.85 188.026 314.289C188.026 313.558 188.191 312.887 188.521 312.276C188.862 311.666 189.327 311.18 189.918 310.819C190.509 310.449 191.18 310.264 191.931 310.264C192.702 310.264 193.373 310.449 193.944 310.819C194.524 311.19 194.98 311.681 195.311 312.291C195.641 312.892 195.806 313.553 195.806 314.274C195.806 314.354 195.806 314.434 195.806 314.514C195.806 314.585 195.801 314.64 195.791 314.68H189.092C189.142 315.24 189.297 315.741 189.558 316.182C189.828 316.612 190.174 316.958 190.594 317.218C191.025 317.468 191.49 317.594 191.991 317.594C192.502 317.594 192.982 317.463 193.433 317.203C193.894 316.943 194.214 316.602 194.394 316.182L195.28 316.422C195.12 316.793 194.875 317.128 194.544 317.428C194.214 317.729 193.823 317.964 193.373 318.134C192.932 318.295 192.457 318.375 191.946 318.375ZM189.062 313.944H194.845C194.805 313.373 194.65 312.872 194.379 312.442C194.119 312.011 193.773 311.676 193.343 311.435C192.922 311.185 192.457 311.06 191.946 311.06C191.435 311.06 190.97 311.185 190.549 311.435C190.128 311.676 189.783 312.016 189.513 312.457C189.252 312.887 189.102 313.383 189.062 313.944ZM203.961 318.224H202.94V313.854C202.94 312.932 202.804 312.261 202.534 311.841C202.264 311.41 201.838 311.195 201.257 311.195C200.857 311.195 200.461 311.295 200.071 311.495C199.68 311.686 199.335 311.951 199.034 312.291C198.744 312.622 198.534 313.002 198.403 313.433V318.224H197.382V310.399H198.313V312.171C198.524 311.791 198.799 311.46 199.139 311.18C199.48 310.89 199.865 310.664 200.296 310.504C200.727 310.344 201.172 310.264 201.633 310.264C202.063 310.264 202.429 310.344 202.729 310.504C203.03 310.664 203.27 310.895 203.45 311.195C203.631 311.485 203.761 311.841 203.841 312.261C203.921 312.672 203.961 313.133 203.961 313.643V318.224ZM205.613 314.334C205.613 313.593 205.764 312.917 206.064 312.306C206.374 311.686 206.8 311.19 207.341 310.819C207.881 310.449 208.497 310.264 209.188 310.264C209.839 310.264 210.42 310.439 210.931 310.789C211.451 311.13 211.857 311.545 212.147 312.036V307.26H213.169V316.993C213.169 317.133 213.199 317.238 213.259 317.308C213.319 317.368 213.409 317.403 213.529 317.413V318.224C213.329 318.255 213.174 318.265 213.063 318.255C212.853 318.245 212.668 318.159 212.508 317.999C212.347 317.839 212.267 317.664 212.267 317.473V316.707C211.957 317.218 211.536 317.624 211.006 317.924C210.475 318.224 209.924 318.375 209.353 318.375C208.813 318.375 208.312 318.265 207.851 318.044C207.401 317.824 207.005 317.524 206.665 317.143C206.334 316.763 206.074 316.332 205.884 315.851C205.703 315.361 205.613 314.855 205.613 314.334ZM212.147 315.536V313.118C212.017 312.757 211.807 312.432 211.516 312.141C211.226 311.841 210.896 311.605 210.525 311.435C210.165 311.255 209.804 311.165 209.444 311.165C209.023 311.165 208.642 311.255 208.302 311.435C207.962 311.605 207.666 311.841 207.416 312.141C207.175 312.442 206.99 312.782 206.86 313.163C206.73 313.543 206.665 313.934 206.665 314.334C206.665 314.755 206.735 315.155 206.875 315.536C207.025 315.916 207.236 316.257 207.506 316.557C207.776 316.848 208.087 317.073 208.437 317.233C208.788 317.393 209.168 317.473 209.579 317.473C209.839 317.473 210.109 317.423 210.39 317.323C210.67 317.223 210.936 317.088 211.186 316.918C211.446 316.737 211.662 316.527 211.832 316.287C212.002 316.047 212.107 315.796 212.147 315.536ZM144.97 338.224V327.56H148.589C149.721 327.56 150.662 327.8 151.413 328.281C152.174 328.752 152.745 329.392 153.126 330.204C153.506 331.005 153.696 331.896 153.696 332.877C153.696 333.959 153.486 334.9 153.066 335.701C152.655 336.502 152.064 337.123 151.293 337.564C150.532 338.004 149.631 338.224 148.589 338.224H144.97ZM152.645 332.877C152.645 332.026 152.485 331.27 152.164 330.609C151.854 329.948 151.398 329.433 150.797 329.062C150.197 328.682 149.461 328.491 148.589 328.491H146.021V337.293H148.589C149.471 337.293 150.212 337.098 150.812 336.707C151.413 336.317 151.869 335.791 152.179 335.13C152.49 334.459 152.645 333.708 152.645 332.877ZM158.876 338.375C158.315 338.375 157.795 338.27 157.314 338.059C156.833 337.839 156.418 337.544 156.067 337.173C155.717 336.793 155.441 336.357 155.241 335.866C155.051 335.376 154.956 334.85 154.956 334.289C154.956 333.558 155.121 332.887 155.451 332.276C155.792 331.666 156.258 331.18 156.848 330.819C157.439 330.449 158.11 330.264 158.861 330.264C159.632 330.264 160.303 330.449 160.874 330.819C161.455 331.19 161.91 331.681 162.241 332.291C162.571 332.892 162.736 333.553 162.736 334.274C162.736 334.354 162.736 334.434 162.736 334.514C162.736 334.585 162.731 334.64 162.721 334.68H156.022C156.072 335.24 156.228 335.741 156.488 336.182C156.758 336.612 157.104 336.958 157.524 337.218C157.955 337.468 158.42 337.594 158.921 337.594C159.432 337.594 159.913 337.463 160.363 337.203C160.824 336.943 161.144 336.602 161.324 336.182L162.211 336.422C162.05 336.793 161.805 337.128 161.475 337.428C161.144 337.729 160.754 337.964 160.303 338.134C159.862 338.295 159.387 338.375 158.876 338.375ZM155.992 333.944H161.775C161.735 333.373 161.58 332.872 161.309 332.442C161.049 332.011 160.704 331.676 160.273 331.435C159.852 331.185 159.387 331.06 158.876 331.06C158.365 331.06 157.9 331.185 157.479 331.435C157.059 331.676 156.713 332.016 156.443 332.457C156.182 332.887 156.032 333.383 155.992 333.944ZM166.435 338.224L163.266 330.399H164.332L167.006 337.203L169.694 330.399H170.701L167.531 338.224H166.435ZM175.231 338.375C174.671 338.375 174.15 338.27 173.669 338.059C173.189 337.839 172.773 337.544 172.423 337.173C172.072 336.793 171.797 336.357 171.596 335.866C171.406 335.376 171.311 334.85 171.311 334.289C171.311 333.558 171.476 332.887 171.807 332.276C172.147 331.666 172.613 331.18 173.204 330.819C173.794 330.449 174.465 330.264 175.216 330.264C175.987 330.264 176.658 330.449 177.229 330.819C177.81 331.19 178.265 331.681 178.596 332.291C178.926 332.892 179.092 333.553 179.092 334.274C179.092 334.354 179.092 334.434 179.092 334.514C179.092 334.585 179.087 334.64 179.077 334.68H172.377C172.428 335.24 172.583 335.741 172.843 336.182C173.113 336.612 173.459 336.958 173.879 337.218C174.31 337.468 174.776 337.594 175.276 337.594C175.787 337.594 176.268 337.463 176.718 337.203C177.179 336.943 177.499 336.602 177.68 336.182L178.566 336.422C178.406 336.793 178.16 337.128 177.83 337.428C177.499 337.729 177.109 337.964 176.658 338.134C176.218 338.295 175.742 338.375 175.231 338.375ZM172.347 333.944H178.13C178.09 333.373 177.935 332.872 177.665 332.442C177.404 332.011 177.059 331.676 176.628 331.435C176.208 331.185 175.742 331.06 175.231 331.06C174.721 331.06 174.255 331.185 173.834 331.435C173.414 331.676 173.068 332.016 172.798 332.457C172.538 332.887 172.387 333.383 172.347 333.944ZM180.712 327.26H181.734V336.452C181.734 336.843 181.804 337.098 181.944 337.218C182.084 337.338 182.255 337.398 182.455 337.398C182.635 337.398 182.815 337.378 182.996 337.338C183.176 337.298 183.331 337.258 183.461 337.218L183.641 338.044C183.451 338.124 183.216 338.189 182.936 338.24C182.665 338.29 182.43 338.315 182.23 338.315C181.769 338.315 181.398 338.179 181.118 337.909C180.848 337.639 180.712 337.268 180.712 336.798V327.26ZM188.094 338.375C187.534 338.375 187.013 338.27 186.532 338.059C186.062 337.839 185.651 337.544 185.301 337.173C184.96 336.793 184.695 336.362 184.505 335.881C184.314 335.391 184.219 334.875 184.219 334.334C184.219 333.773 184.314 333.253 184.505 332.772C184.695 332.281 184.965 331.851 185.316 331.48C185.666 331.1 186.077 330.804 186.547 330.594C187.028 330.374 187.549 330.264 188.109 330.264C188.67 330.264 189.186 330.374 189.657 330.594C190.127 330.804 190.538 331.1 190.888 331.48C191.239 331.851 191.509 332.281 191.699 332.772C191.89 333.253 191.985 333.773 191.985 334.334C191.985 334.875 191.89 335.391 191.699 335.881C191.509 336.362 191.239 336.793 190.888 337.173C190.548 337.544 190.137 337.839 189.657 338.059C189.186 338.27 188.665 338.375 188.094 338.375ZM185.256 334.349C185.256 334.93 185.381 335.461 185.631 335.941C185.891 336.412 186.237 336.788 186.667 337.068C187.098 337.338 187.574 337.473 188.094 337.473C188.615 337.473 189.091 337.333 189.521 337.053C189.952 336.773 190.297 336.392 190.558 335.911C190.818 335.421 190.948 334.89 190.948 334.319C190.948 333.738 190.818 333.208 190.558 332.727C190.297 332.246 189.952 331.866 189.521 331.585C189.091 331.305 188.615 331.165 188.094 331.165C187.574 331.165 187.098 331.31 186.667 331.6C186.247 331.891 185.906 332.276 185.646 332.757C185.386 333.228 185.256 333.758 185.256 334.349ZM197.688 338.375C197.037 338.375 196.452 338.204 195.931 337.864C195.42 337.524 195.015 337.103 194.714 336.602V341.424H193.693V330.399H194.609V331.916C194.92 331.425 195.335 331.03 195.856 330.729C196.377 330.419 196.932 330.264 197.523 330.264C198.064 330.264 198.56 330.379 199.01 330.609C199.461 330.829 199.851 331.13 200.182 331.51C200.512 331.891 200.768 332.326 200.948 332.817C201.138 333.298 201.233 333.798 201.233 334.319C201.233 335.05 201.083 335.726 200.783 336.347C200.492 336.958 200.082 337.448 199.551 337.819C199.02 338.189 198.399 338.375 197.688 338.375ZM197.403 337.473C197.834 337.473 198.219 337.388 198.56 337.218C198.9 337.038 199.19 336.798 199.431 336.497C199.681 336.197 199.871 335.861 200.002 335.491C200.132 335.11 200.197 334.72 200.197 334.319C200.197 333.899 200.122 333.498 199.971 333.118C199.831 332.737 199.626 332.402 199.356 332.111C199.085 331.821 198.775 331.59 198.424 331.42C198.074 331.25 197.693 331.165 197.283 331.165C197.022 331.165 196.752 331.215 196.472 331.315C196.191 331.415 195.921 331.56 195.661 331.751C195.41 331.931 195.2 332.136 195.03 332.367C194.86 332.597 194.754 332.842 194.714 333.103V335.506C194.875 335.876 195.09 336.212 195.36 336.512C195.631 336.803 195.941 337.038 196.291 337.218C196.652 337.388 197.022 337.473 197.403 337.473ZM206.343 338.375C205.782 338.375 205.261 338.27 204.781 338.059C204.3 337.839 203.885 337.544 203.534 337.173C203.184 336.793 202.908 336.357 202.708 335.866C202.518 335.376 202.423 334.85 202.423 334.289C202.423 333.558 202.588 332.887 202.918 332.276C203.259 331.666 203.724 331.18 204.315 330.819C204.906 330.449 205.577 330.264 206.328 330.264C207.099 330.264 207.77 330.449 208.341 330.819C208.921 331.19 209.377 331.681 209.708 332.291C210.038 332.892 210.203 333.553 210.203 334.274C210.203 334.354 210.203 334.434 210.203 334.514C210.203 334.585 210.198 334.64 210.188 334.68H203.489C203.539 335.24 203.694 335.741 203.955 336.182C204.225 336.612 204.571 336.958 204.991 337.218C205.422 337.468 205.887 337.594 206.388 337.594C206.899 337.594 207.379 337.463 207.83 337.203C208.291 336.943 208.611 336.602 208.791 336.182L209.677 336.422C209.517 336.793 209.272 337.128 208.941 337.428C208.611 337.729 208.22 337.964 207.77 338.134C207.329 338.295 206.854 338.375 206.343 338.375ZM203.459 333.944H209.242C209.202 333.373 209.047 332.872 208.776 332.442C208.516 332.011 208.17 331.676 207.74 331.435C207.319 331.185 206.854 331.06 206.343 331.06C205.832 331.06 205.367 331.185 204.946 331.435C204.525 331.676 204.18 332.016 203.91 332.457C203.649 332.887 203.499 333.383 203.459 333.944ZM215.684 331.3C215.003 331.32 214.403 331.51 213.882 331.871C213.371 332.231 213.011 332.727 212.8 333.358V338.224H211.779V330.399H212.74V332.276C213.011 331.726 213.366 331.28 213.807 330.94C214.257 330.599 214.733 330.409 215.234 330.369C215.334 330.359 215.419 330.354 215.489 330.354C215.569 330.354 215.634 330.359 215.684 330.369V331.3Z" fill="white"/>
<path opacity="0.29" d="M48.3472 425.265C48.3472 406.341 63.6883 391 82.6125 391C101.537 391 116.878 406.341 116.878 425.265C116.878 444.19 101.537 459.531 82.6125 459.531C63.6883 459.531 48.3472 444.19 48.3472 425.265Z" stroke="#5390E3" stroke-width="0.938775"/>
<path d="M53.5818 425.47C53.5818 424.819 53.6919 424.183 53.9122 423.563C54.1426 422.932 54.473 422.361 54.9036 421.85C55.3342 421.33 55.8649 420.919 56.4958 420.619C57.1266 420.308 57.8426 420.153 58.6437 420.153C59.595 420.153 60.4061 420.373 61.077 420.814C61.7579 421.245 62.2586 421.8 62.579 422.481L61.7529 422.992C61.5226 422.521 61.2322 422.151 60.8817 421.88C60.5312 421.6 60.1557 421.4 59.7552 421.28C59.3647 421.159 58.9741 421.099 58.5836 421.099C57.9427 421.099 57.377 421.229 56.8863 421.49C56.3956 421.74 55.9801 422.081 55.6396 422.511C55.3091 422.932 55.0588 423.407 54.8886 423.938C54.7183 424.459 54.6332 424.99 54.6332 425.53C54.6332 426.121 54.7334 426.687 54.9336 427.228C55.1339 427.768 55.4143 428.249 55.7748 428.67C56.1353 429.08 56.5558 429.411 57.0365 429.661C57.5272 429.901 58.0579 430.021 58.6287 430.021C59.0292 430.021 59.4398 429.951 59.8603 429.811C60.2809 429.671 60.6714 429.456 61.0319 429.165C61.4024 428.875 61.6978 428.499 61.9181 428.039L62.7893 428.489C62.569 429.02 62.2285 429.471 61.7679 429.841C61.3073 430.212 60.7916 430.492 60.2208 430.682C59.6601 430.873 59.1093 430.968 58.5686 430.968C57.8376 430.968 57.1667 430.813 56.5558 430.502C55.945 430.182 55.4143 429.761 54.9637 429.24C54.5231 428.71 54.1826 428.119 53.9423 427.468C53.702 426.807 53.5818 426.141 53.5818 425.47ZM68.28 423.953C67.599 423.973 66.9982 424.163 66.4775 424.524C65.9668 424.884 65.6063 425.38 65.3961 426.011V430.878H64.3747V423.052H65.336V424.93C65.6063 424.379 65.9618 423.933 66.4024 423.593C66.853 423.252 67.3287 423.062 67.8294 423.022C67.9295 423.012 68.0146 423.007 68.0847 423.007C68.1648 423.007 68.2299 423.012 68.28 423.022V423.953ZM72.7708 431.028C72.2101 431.028 71.6894 430.923 71.2087 430.712C70.7281 430.492 70.3125 430.197 69.962 429.826C69.6115 429.446 69.3362 429.01 69.1359 428.519C68.9456 428.029 68.8505 427.503 68.8505 426.942C68.8505 426.211 69.0157 425.54 69.3462 424.93C69.6867 424.319 70.1523 423.833 70.7431 423.473C71.3339 423.102 72.0048 422.917 72.7558 422.917C73.5269 422.917 74.1978 423.102 74.7686 423.473C75.3493 423.843 75.805 424.334 76.1354 424.945C76.4659 425.545 76.6311 426.206 76.6311 426.927C76.6311 427.007 76.6311 427.087 76.6311 427.168C76.6311 427.238 76.6261 427.293 76.6161 427.333H69.917C69.967 427.894 70.1222 428.394 70.3826 428.835C70.653 429.265 70.9984 429.611 71.419 429.871C71.8496 430.122 72.3152 430.247 72.8159 430.247C73.3266 430.247 73.8072 430.117 74.2579 429.856C74.7185 429.596 75.0389 429.255 75.2192 428.835L76.1054 429.075C75.9452 429.446 75.6998 429.781 75.3694 430.082C75.0389 430.382 74.6484 430.617 74.1978 430.787C73.7572 430.948 73.2815 431.028 72.7708 431.028ZM69.8869 426.597H75.6698C75.6297 426.026 75.4745 425.525 75.2041 425.095C74.9438 424.664 74.5983 424.329 74.1677 424.088C73.7472 423.838 73.2815 423.713 72.7708 423.713C72.2601 423.713 71.7945 423.838 71.3739 424.088C70.9534 424.329 70.6079 424.669 70.3375 425.11C70.0772 425.54 69.927 426.036 69.8869 426.597ZM77.5761 428.625C77.5761 428.134 77.7163 427.713 77.9967 427.363C78.277 427.002 78.6626 426.727 79.1532 426.537C79.6539 426.336 80.2297 426.236 80.8806 426.236C81.2611 426.236 81.6566 426.266 82.0672 426.326C82.4777 426.386 82.8432 426.477 83.1637 426.597V425.936C83.1637 425.275 82.9684 424.749 82.5779 424.359C82.1873 423.968 81.6466 423.773 80.9557 423.773C80.5351 423.773 80.1195 423.853 79.709 424.013C79.3084 424.163 78.8879 424.389 78.4473 424.689L78.0567 423.968C78.5674 423.618 79.0681 423.357 79.5588 423.187C80.0494 423.007 80.5501 422.917 81.0608 422.917C82.0221 422.917 82.7832 423.192 83.3439 423.743C83.9047 424.294 84.1851 425.055 84.1851 426.026V429.646C84.1851 429.786 84.2151 429.891 84.2752 429.961C84.3353 430.021 84.4304 430.056 84.5606 430.066V430.878C84.4504 430.888 84.3553 430.898 84.2752 430.908C84.1951 430.918 84.135 430.918 84.0949 430.908C83.8446 430.898 83.6543 430.818 83.5242 430.667C83.394 430.517 83.3239 430.357 83.3139 430.187L83.2989 429.616C82.9484 430.066 82.4928 430.417 81.932 430.667C81.3712 430.908 80.8005 431.028 80.2197 431.028C79.719 431.028 79.2634 430.923 78.8528 430.712C78.4523 430.492 78.1368 430.202 77.9065 429.841C77.6862 429.471 77.5761 429.065 77.5761 428.625ZM82.8182 429.225C82.9284 429.085 83.0135 428.95 83.0735 428.82C83.1336 428.69 83.1637 428.574 83.1637 428.474V427.333C82.8232 427.203 82.4677 427.102 82.0972 427.032C81.7367 426.962 81.3712 426.927 81.0007 426.927C80.2697 426.927 79.6789 427.072 79.2283 427.363C78.7777 427.653 78.5524 428.049 78.5524 428.549C78.5524 428.84 78.6275 429.115 78.7777 429.376C78.9279 429.626 79.1482 429.836 79.4386 430.006C79.729 430.167 80.0695 430.247 80.46 430.247C80.9507 430.247 81.4063 430.152 81.8269 429.961C82.2574 429.771 82.5879 429.526 82.8182 429.225ZM90.0883 430.502C90.0082 430.532 89.883 430.587 89.7128 430.667C89.5426 430.747 89.3373 430.818 89.097 430.878C88.8566 430.938 88.5963 430.968 88.3159 430.968C88.0255 430.968 87.7501 430.913 87.4898 430.802C87.2394 430.692 87.0392 430.527 86.889 430.307C86.7388 430.077 86.6637 429.796 86.6637 429.466V423.863H85.5822V423.052H86.6637V420.408H87.685V423.052H89.4875V423.863H87.685V429.18C87.7051 429.461 87.8052 429.671 87.9855 429.811C88.1757 429.951 88.391 430.021 88.6313 430.021C88.9117 430.021 89.1671 429.976 89.3974 429.886C89.6277 429.786 89.7679 429.716 89.8179 429.676L90.0883 430.502ZM91.3645 430.878V423.052H92.3858V430.878H91.3645ZM91.3645 421.415V419.913H92.3858V421.415H91.3645ZM96.9637 430.878L93.7944 423.052H94.8608L97.5344 429.856L100.223 423.052H101.229L98.0602 430.878H96.9637ZM105.76 431.028C105.199 431.028 104.679 430.923 104.198 430.712C103.717 430.492 103.302 430.197 102.951 429.826C102.601 429.446 102.325 429.01 102.125 428.519C101.935 428.029 101.84 427.503 101.84 426.942C101.84 426.211 102.005 425.54 102.335 424.93C102.676 424.319 103.141 423.833 103.732 423.473C104.323 423.102 104.994 422.917 105.745 422.917C106.516 422.917 107.187 423.102 107.758 423.473C108.339 423.843 108.794 424.334 109.125 424.945C109.455 425.545 109.62 426.206 109.62 426.927C109.62 427.007 109.62 427.087 109.62 427.168C109.62 427.238 109.615 427.293 109.605 427.333H102.906C102.956 427.894 103.111 428.394 103.372 428.835C103.642 429.265 103.988 429.611 104.408 429.871C104.839 430.122 105.304 430.247 105.805 430.247C106.316 430.247 106.796 430.117 107.247 429.856C107.708 429.596 108.028 429.255 108.208 428.835L109.095 429.075C108.934 429.446 108.689 429.781 108.359 430.082C108.028 430.382 107.638 430.617 107.187 430.787C106.746 430.948 106.271 431.028 105.76 431.028ZM102.876 426.597H108.659C108.619 426.026 108.464 425.525 108.193 425.095C107.933 424.664 107.587 424.329 107.157 424.088C106.736 423.838 106.271 423.713 105.76 423.713C105.249 423.713 104.784 423.838 104.363 424.088C103.943 424.329 103.597 424.669 103.327 425.11C103.066 425.54 102.916 426.036 102.876 426.597Z" fill="white"/>
<circle opacity="0.29" cx="59.1429" cy="168.041" r="23" transform="rotate(-180 59.1429 168.041)" stroke="#5390E3" stroke-width="0.938775"/>
<path d="M56.7783 173.728C55.9372 173.728 55.2262 173.578 54.6454 173.278C54.0646 172.977 53.604 172.577 53.2635 172.076C52.9231 171.565 52.6727 170.989 52.5125 170.349C52.3623 169.708 52.2872 169.047 52.2872 168.366V162.989H53.3236V168.366C53.3236 168.917 53.3787 169.457 53.4889 169.988C53.609 170.519 53.7993 170.994 54.0596 171.415C54.32 171.836 54.6705 172.171 55.1111 172.421C55.5517 172.662 56.1024 172.782 56.7633 172.782C57.4442 172.782 58.005 172.657 58.4456 172.406C58.8962 172.146 59.2467 171.806 59.497 171.385C59.7574 170.964 59.9426 170.494 60.0528 169.973C60.1629 169.442 60.218 168.907 60.218 168.366V162.989H61.2694V168.366C61.2694 169.077 61.1893 169.758 61.0291 170.409C60.8689 171.06 60.6085 171.63 60.248 172.121C59.8976 172.612 59.4369 173.002 58.8662 173.293C58.2954 173.583 57.5994 173.728 56.7783 173.728ZM63.7761 173.653V162.989H64.8275V173.653H63.7761Z" fill="white"/>
<circle opacity="0.29" cx="145.51" cy="96.6939" r="23" transform="rotate(-180 145.51 96.6939)" stroke="#5390E3" stroke-width="0.938775"/>
<path d="M140.947 102.381C140.106 102.381 139.395 102.231 138.814 101.931C138.233 101.63 137.772 101.23 137.432 100.729C137.092 100.218 136.841 99.6425 136.681 99.0016C136.531 98.3608 136.456 97.6999 136.456 97.0189V91.6416H137.492V97.0189C137.492 97.5697 137.547 98.1104 137.657 98.6411C137.777 99.1719 137.968 99.6475 138.228 100.068C138.488 100.489 138.839 100.824 139.28 101.074C139.72 101.315 140.271 101.435 140.932 101.435C141.613 101.435 142.173 101.31 142.614 101.059C143.065 100.799 143.415 100.459 143.665 100.038C143.926 99.6175 144.111 99.1468 144.221 98.6261C144.331 98.0954 144.386 97.5597 144.386 97.0189V91.6416H145.438V97.0189C145.438 97.7299 145.358 98.4108 145.198 99.0617C145.037 99.7126 144.777 100.283 144.416 100.774C144.066 101.265 143.605 101.655 143.035 101.946C142.464 102.236 141.768 102.381 140.947 102.381ZM147.884 91.6416L151.369 96.2829L154.839 91.6416H156.025L151.94 97.049L155.905 102.306H154.719L151.369 97.815L148.005 102.306H146.803L150.768 97.049L146.683 91.6416H147.884Z" fill="white"/>
</g>
<defs>
<clipPath id="clip0_121_81">
<rect width="237" height="460" fill="white"/>
</clipPath>
</defs>
</svg>
