<svg width="36" height="40" viewBox="0 0 36 40" fill="none" xmlns="http://www.w3.org/2000/svg">
<path d="M35.27 0L32.0569 35.9959L17.6135 40L3.20985 36.0014L0 0H35.27Z" fill="#E44D26"/>
<path d="M17.635 36.9396L29.306 33.704L32.0517 2.94385H17.635V36.9396Z" fill="#F16529"/>
<path d="M11.3892 11.7738H17.6355V7.3584H6.56372L6.66935 8.54296L7.75464 20.7107H17.6355V16.2953H11.7928L11.3892 11.7738V11.7738ZM12.3844 22.9185H7.95193L8.57048 29.8514L17.6152 32.3621L17.6355 32.3566V27.7627L17.6162 27.7678L12.6988 26.44L12.3844 22.9185V22.9185Z" fill="#EBEBEB"/>
<path d="M17.6193 20.7107H23.0564L22.5438 26.4372L17.6191 27.7664V32.36L26.6711 29.8514L26.7374 29.1054L27.7752 17.481L27.8829 16.2953H17.6193V20.7107ZM17.6193 11.763V11.7738H28.2846L28.3731 10.7814L28.5744 8.54296L28.6799 7.3584H17.6193V11.7632V11.763Z" fill="white"/>
</svg>
