<svg width="37" height="40" viewBox="0 0 37 40" fill="none" xmlns="http://www.w3.org/2000/svg">
<path d="M16.5114 0.426744C17.5032 -0.140965 18.7951 -0.143529 19.786 0.426744C24.7715 3.24378 29.7585 6.05639 34.743 8.87513C35.6806 9.40324 36.3077 10.4466 36.2982 11.5269V28.4753C36.3051 29.6003 35.616 30.6686 34.6269 31.1847C29.6579 33.9862 24.6914 36.7912 19.7232 39.5927C18.7109 40.1715 17.3931 40.1269 16.4124 39.5006C14.9227 38.637 13.4304 37.7777 11.9405 36.915C11.6361 36.7335 11.2929 36.589 11.0779 36.2938C11.268 36.0377 11.6077 36.0058 11.8838 35.8939C12.5057 35.6962 13.0768 35.3788 13.6481 35.0708C13.7925 34.9719 13.9689 35.0098 14.1074 35.0983C15.3813 35.8287 16.6439 36.5803 17.9221 37.3037C18.1947 37.4612 18.4708 37.2522 18.7039 37.1222C23.5801 34.3663 28.4622 31.6208 33.3375 28.864C33.5182 28.7771 33.618 28.5854 33.6034 28.3875C33.6068 22.7966 33.6042 17.2047 33.6051 11.6138C33.6257 11.3893 33.4958 11.1829 33.2928 11.091C28.341 8.30229 23.3917 5.50934 18.4408 2.71995C18.355 2.66097 18.2534 2.62933 18.1493 2.62918C18.0452 2.62903 17.9435 2.66037 17.8575 2.71909C12.9066 5.50934 7.95816 8.30486 3.0072 11.0934C2.8049 11.1854 2.66914 11.3884 2.69321 11.6138C2.69407 17.2047 2.69321 22.7966 2.69321 28.3884C2.68463 28.4849 2.70583 28.5818 2.75397 28.6659C2.80211 28.75 2.87488 28.8174 2.96247 28.8589C4.28365 29.6081 5.60655 30.352 6.92859 31.0987C7.67338 31.4996 8.58784 31.7378 9.40842 31.4306C10.1325 31.1709 10.6401 30.432 10.6263 29.6631C10.6332 24.1048 10.6229 18.5457 10.6314 12.9883C10.6134 12.7415 10.8474 12.5377 11.0873 12.5609C11.7221 12.5566 12.3578 12.5523 12.9926 12.5626C13.2576 12.5566 13.4399 12.8223 13.4072 13.0709C13.4046 18.6644 13.414 24.258 13.4029 29.8514C13.4046 31.3421 12.7922 32.9642 11.4133 33.6936C9.71457 34.5736 7.61497 34.387 5.93678 33.5432C4.48395 32.818 3.09752 31.9623 1.67048 31.1854C0.678809 30.6722 -0.00685799 29.5996 0.000122617 28.4754V11.5269C-0.0102771 10.4243 0.641769 9.36192 1.60851 8.84151C6.57671 6.03773 11.5441 3.23181 16.5114 0.426744Z" fill="#8CC84B"/>
<path d="M20.8454 12.1666C23.0123 12.0271 25.332 12.0839 27.2819 13.1514C28.7915 13.9694 29.6285 15.6862 29.6551 17.3634C29.6129 17.5897 29.3765 17.7144 29.1605 17.6989C28.5318 17.6981 27.903 17.7075 27.2743 17.6946C27.0076 17.7049 26.8526 17.459 26.8191 17.2232C26.6385 16.4208 26.2009 15.626 25.4455 15.2389C24.286 14.6584 22.9416 14.6876 21.6773 14.6997C20.7543 14.7487 19.7617 14.8286 18.9798 15.3714C18.3794 15.7825 18.1971 16.6125 18.4113 17.2809C18.6134 17.7609 19.1674 17.9157 19.6207 18.0585C22.232 18.7415 24.9992 18.6735 27.5606 19.5723C28.6211 19.9387 29.6585 20.651 30.0215 21.7613C30.4964 23.2495 30.2882 25.0283 29.2294 26.223C28.3708 27.2061 27.1203 27.7412 25.8731 28.0318C24.2138 28.4018 22.4919 28.4112 20.8068 28.2469C19.2224 28.0663 17.5735 27.65 16.3504 26.5704C15.3044 25.6622 14.7935 24.2472 14.8443 22.8814C14.8564 22.6507 15.086 22.4899 15.307 22.5088C15.9401 22.5037 16.5732 22.502 17.2063 22.5097C17.4591 22.4916 17.6466 22.7101 17.6596 22.9485C17.7764 23.7131 18.0637 24.5156 18.7305 24.9689C20.0172 25.799 21.6317 25.7421 23.105 25.7654C24.3256 25.7112 25.6958 25.6949 26.6919 24.8881C27.2175 24.4279 27.3732 23.6581 27.2311 22.9958C27.0773 22.4366 26.4923 22.1761 25.99 22.0057C23.4122 21.1902 20.6141 21.4861 18.0612 20.564C17.0248 20.1977 16.0226 19.5052 15.6244 18.4404C15.0688 16.9335 15.3234 15.0695 16.4931 13.9151C17.6337 12.7669 19.2801 12.3247 20.8454 12.1664V12.1666Z" fill="#8CC84B"/>
</svg>
