<svg width="192" height="144" viewBox="0 0 192 144" fill="none" xmlns="http://www.w3.org/2000/svg">
<path fill-rule="evenodd" clip-rule="evenodd" d="M28.7952 12.7254C28.7952 12.5739 28.927 11.8886 29.5256 10.8523C30.0887 9.87739 30.9829 8.7399 32.2719 7.6827C34.8176 5.59491 38.9831 3.75597 45.3709 4.22489C70.5671 6.07448 84.8296 23.4349 84.8296 36.6142V114.253C84.8296 115.505 84.5406 116.114 84.2468 116.419C83.9667 116.711 83.3742 117.048 82.0175 117.048H67.0307C65.6739 117.048 65.0815 116.711 64.8014 116.419C64.5077 116.114 64.2187 115.505 64.2187 114.253V42.5864C64.2187 37.9475 61.9379 33.3046 58.5654 29.8532C55.1859 26.3947 50.5171 23.9354 45.5042 23.9354H28.7952V12.7254ZM45.5042 27.5759H28.7952V114.253C28.7952 116.173 28.4398 117.966 27.1393 119.203C25.8601 120.419 24.0876 120.688 22.3426 120.688H7.08332C5.52987 120.688 3.84701 120.387 2.54929 119.256C1.20152 118.081 0.630859 116.335 0.630859 114.253V41.7724C0.630848 38.197 2.67698 33.7827 5.7148 30.3234C8.77669 26.8366 13.1851 23.9354 18.2537 23.9354H25.1548V12.7254C25.1548 11.6553 25.6318 10.315 26.3733 9.03135C27.1502 7.68629 28.3274 6.20953 29.9633 4.86783C33.2676 2.15784 38.3668 0.06046 45.6374 0.594181C72.2137 2.54508 88.4701 21.0455 88.4701 36.6142V114.253C88.4701 115.987 88.0778 117.686 86.8728 118.941C85.6543 120.21 83.9306 120.688 82.0175 120.688H67.0307C65.1176 120.688 63.3939 120.21 62.1753 118.941C60.9704 117.686 60.5782 115.986 60.5782 114.253V42.5864C60.5782 39.1034 58.828 35.331 55.9616 32.3975C53.1021 29.4711 49.3238 27.5759 45.5042 27.5759ZM18.2537 27.5759H25.1548V114.253C25.1547 115.862 24.8289 116.376 24.6306 116.565C24.4111 116.773 23.8676 117.048 22.3426 117.048H7.08332C5.9119 117.048 5.27865 116.806 4.94147 116.512C4.65435 116.261 4.27134 115.699 4.27134 114.253V41.7724C4.27133 39.3755 5.76668 35.7815 8.45026 32.7255C11.1098 29.697 14.6026 27.5759 18.2537 27.5759ZM163.805 131.642C163.805 131.794 163.673 132.479 163.075 133.516C162.512 134.49 161.618 135.628 160.329 136.685C157.783 138.773 153.617 140.612 147.23 140.143C122.033 138.293 107.771 120.933 107.771 107.754V30.1149C107.771 28.8625 108.06 28.2543 108.354 27.9483C108.634 27.6566 109.226 27.3203 110.583 27.3203H125.57C126.927 27.3203 127.519 27.6566 127.799 27.9483C128.093 28.2542 128.382 28.8624 128.382 30.1149V101.781C128.382 106.42 130.663 111.063 134.035 114.515C137.415 117.973 142.083 120.432 147.096 120.432H163.805V131.642ZM147.096 116.792H163.805V30.1149C163.805 28.1945 164.161 26.4017 165.461 25.165C166.74 23.9486 168.513 23.6798 170.258 23.6798H185.517C187.071 23.6798 188.753 23.9807 190.051 25.112C191.399 26.2869 191.97 28.0325 191.97 30.1149V102.595C191.97 106.171 189.923 110.585 186.886 114.044C183.824 117.531 179.415 120.432 174.347 120.432H167.446V131.642C167.446 132.712 166.969 134.053 166.227 135.336C165.45 136.681 164.273 138.158 162.637 139.5C159.333 142.21 154.234 144.307 146.963 143.774C120.387 141.823 104.13 123.322 104.13 107.754V30.1149C104.13 28.3813 104.523 26.682 105.728 25.427C106.946 24.1578 108.67 23.6798 110.583 23.6798H125.57C127.483 23.6798 129.207 24.1578 130.425 25.427C131.63 26.682 132.022 28.3813 132.022 30.1149V101.781C132.022 105.264 133.772 109.037 136.639 111.97C139.498 114.897 143.277 116.792 147.096 116.792ZM174.347 116.792H167.446V30.1149C167.446 28.5063 167.772 27.9917 167.97 27.8031C168.189 27.5944 168.733 27.3203 170.258 27.3203H185.517C186.689 27.3203 187.322 27.5622 187.659 27.8562C187.946 28.1065 188.329 28.6683 188.329 30.1149V102.595C188.329 104.992 186.834 108.586 184.15 111.642C181.491 114.671 177.998 116.792 174.347 116.792Z" fill="white"/>
</svg>
