<svg width="1080" height="1350" viewBox="0 0 1080 1350" fill="none" xmlns="http://www.w3.org/2000/svg">
<g clip-path="url(#clip0_215_10482)">
<path d="M0 0.363868C0 0.162901 0.162916 0 0.363884 0H1079.64C1079.84 0 1080 0.162916 1080 0.363884V1350H0V0.363868Z" fill="url(#paint0_linear_215_10482)"/>
<path d="M0 0.363868C0 0.162901 0.162916 0 0.363884 0H1079.64C1079.84 0 1080 0.162916 1080 0.363884V1350H0V0.363868Z" fill="#00060B"/>
<path fill-rule="evenodd" clip-rule="evenodd" d="M434.037 615.983V762.253H405.802V588.705H405.822L405.822 587.748L570.877 587.748L570.669 587.96L571.938 587.96L488.177 671.751L506.534 690.115L486.573 710.084L448.264 671.761L459.002 661.018L458.993 661.009L504.002 615.983L434.037 615.983ZM673.045 617.964H673.05V762.253H644.815V656.554L541.269 760.467L541.121 760.32L539.189 762.253L500.573 723.623L520.534 703.655L539.336 722.463L673.045 588.705V617.964Z" fill="white"/>
<path fill-rule="evenodd" clip-rule="evenodd" d="M434.037 615.983V762.253H405.802V588.705H405.822L405.822 587.748L570.877 587.748L570.669 587.96L571.938 587.96L488.177 671.751L506.534 690.115L486.573 710.084L448.264 671.761L459.002 661.018L458.993 661.009L504.002 615.983L434.037 615.983ZM673.045 617.964H673.05V762.253H644.815V656.554L541.269 760.467L541.121 760.32L539.189 762.253L500.573 723.623L520.534 703.655L539.336 722.463L673.045 588.705V617.964Z" fill="white"/>
</g>
<defs>
<linearGradient id="paint0_linear_215_10482" x1="1080" y1="0" x2="-237.073" y2="1053.66" gradientUnits="userSpaceOnUse">
<stop stop-color="#00142A"/>
<stop offset="1" stop-color="#00060B"/>
</linearGradient>
<clipPath id="clip0_215_10482">
<rect width="1080" height="1350" fill="white"/>
</clipPath>
</defs>
</svg>
