<svg width="1080" height="1350" viewBox="0 0 1080 1350" fill="none" xmlns="http://www.w3.org/2000/svg">
<g clip-path="url(#clip0_215_10245)">
<path d="M-0.5 0.363868C-0.5 0.162901 -0.337084 0 -0.136116 0H1079.14C1079.34 0 1079.5 0.162916 1079.5 0.363884V1350H-0.5V0.363868Z" fill="url(#paint0_linear_215_10245)"/>
<path d="M-0.5 0.363868C-0.5 0.162901 -0.337084 0 -0.136116 0H1079.14C1079.34 0 1079.5 0.162916 1079.5 0.363884V1350H-0.5V0.363868Z" fill="#00060B"/>
<rect x="264.143" y="503.948" width="540.486" height="333.364" stroke="url(#paint1_linear_215_10245)" stroke-width="1.9771"/>
<rect x="264.143" y="503.948" width="269.255" height="333.364" stroke="url(#paint2_linear_215_10245)" stroke-width="1.9771"/>
<rect x="264.143" y="504.934" width="331.391" height="332.378" stroke="url(#paint3_linear_215_10245)" stroke-width="1.9771"/>
<path d="M266.114 835.349C266.114 652.862 414.043 504.928 596.523 504.928" stroke="url(#paint4_linear_215_10245)" stroke-width="1.9771"/>
<rect x="804.63" y="503.948" width="207.118" height="208.104" transform="rotate(90 804.63 503.948)" stroke="url(#paint5_linear_215_10245)" stroke-width="1.9771"/>
<path d="M597.391 504.814C712.05 504.814 805 597.599 805 712.054" stroke="url(#paint6_linear_215_10245)" stroke-width="1.9771"/>
<rect x="803.643" y="836.097" width="124.281" height="125.028" transform="rotate(-180 803.643 836.097)" stroke="url(#paint7_linear_215_10245)" stroke-width="1.9771"/>
<path d="M803.511 711.202C803.511 780.52 747.486 836.713 678.374 836.713" stroke="url(#paint8_linear_215_10245)" stroke-width="1.9771"/>
<rect x="596.525" y="836.818" width="77.4198" height="82.8444" transform="rotate(-90 596.525 836.818)" stroke="url(#paint9_linear_215_10245)" stroke-width="1.9771"/>
<path d="M679.61 837.102C633.315 837.102 595.786 801.87 595.786 758.409" stroke="url(#paint10_linear_215_10245)" stroke-width="1.9771"/>
<rect x="596.525" y="712.055" width="49.3103" height="46.3515" stroke="url(#paint11_linear_215_10245)" stroke-width="1.9771"/>
<path d="M595.992 758.969C595.992 732.592 618.751 711.209 646.824 711.209" stroke="url(#paint12_linear_215_10245)" stroke-width="1.9771"/>
<rect x="678.384" y="712.055" width="26.6255" height="32.5433" transform="rotate(90 678.384 712.055)" stroke="url(#paint13_linear_215_10245)" stroke-width="1.9771"/>
<path d="M645.156 711.32C663.997 711.32 679.271 724.012 679.271 739.669" stroke="url(#paint14_linear_215_10245)" stroke-width="1.9771"/>
<rect x="677.397" y="758.408" width="20.7077" height="19.7214" transform="rotate(-180 677.397 758.408)" stroke="url(#paint15_linear_215_10245)" stroke-width="1.9771"/>
<path d="M678.185 737.889C678.185 749.732 668.118 759.332 655.701 759.332" stroke="url(#paint16_linear_215_10245)" stroke-width="1.9771"/>
<rect x="646.826" y="758.408" width="8.87216" height="9.34387" transform="rotate(-90 646.826 758.408)" stroke="url(#paint17_linear_215_10245)" stroke-width="1.9771"/>
<path d="M657.059 759.301C650.88 759.301 645.871 754.487 645.871 748.548" stroke="url(#paint18_linear_215_10245)" stroke-width="1.9771"/>
<path d="M241.457 860.986L636.962 464.494" stroke="url(#paint19_linear_215_10245)" stroke-width="1.9771"/>
<path d="M335.994 687.127L565.845 456" stroke="url(#paint20_linear_215_10245)" stroke-width="1.9771" stroke-dasharray="3.95 3.95"/>
<path d="M533.63 893.765L533.088 458.266" stroke="url(#paint21_linear_215_10245)" stroke-width="1.9771" stroke-dasharray="3.84 3.84"/>
<path d="M321.052 864.161L320.553 463.237" stroke="url(#paint22_linear_215_10245)" stroke-width="1.9771" stroke-dasharray="3.84 3.84"/>
<path d="M746.808 878.539L746.284 458.313" stroke="url(#paint23_linear_215_10245)" stroke-width="1.9771" stroke-dasharray="3.84 3.84"/>
<path d="M404.195 773.206L504.797 672.604" stroke="url(#paint24_linear_215_10245)" stroke-width="1.9771"/>
<path d="M442.661 866.903L833.545 473.877" stroke="url(#paint25_linear_215_10245)" stroke-width="2.14672"/>
<path d="M623.774 867.176L376.047 618.172" stroke="url(#paint26_linear_215_10245)" stroke-width="2.14672" stroke-dasharray="4.29 4.29"/>
<path d="M570.388 893.534L223.212 546.357" stroke="url(#paint27_linear_215_10245)" stroke-width="1.9771" stroke-dasharray="3.84 3.84"/>
<path d="M490.003 899.094L879.098 510" stroke="url(#paint28_linear_215_10245)" stroke-width="1.9771"/>
<path d="M442.661 788.986L516.633 715.014" stroke="url(#paint29_linear_215_10245)" stroke-width="1.9771"/>
<path d="M211.976 855.285L828.307 855.285" stroke="url(#paint30_linear_215_10245)" stroke-width="2" stroke-dasharray="4 4"/>
<path d="M304.064 559.922L479.647 559.922" stroke="url(#paint31_linear_215_10245)" stroke-width="2" stroke-dasharray="4 4"/>
<rect x="265.143" y="503.948" width="540.486" height="333.364" stroke="url(#paint32_linear_215_10245)" stroke-width="1.9771"/>
<rect x="265.143" y="503.948" width="269.255" height="333.364" stroke="url(#paint33_linear_215_10245)" stroke-width="1.9771"/>
<rect x="265.143" y="504.934" width="331.391" height="332.378" stroke="url(#paint34_linear_215_10245)" stroke-width="1.9771"/>
<path d="M267.114 835.349C267.114 652.862 415.043 504.928 597.523 504.928" stroke="url(#paint35_linear_215_10245)" stroke-width="1.9771"/>
<rect x="805.63" y="503.948" width="207.118" height="208.104" transform="rotate(90 805.63 503.948)" stroke="url(#paint36_linear_215_10245)" stroke-width="1.9771"/>
<path d="M598.391 504.814C713.05 504.814 806 597.599 806 712.054" stroke="url(#paint37_linear_215_10245)" stroke-width="1.9771"/>
<rect x="804.643" y="836.097" width="124.281" height="125.028" transform="rotate(-180 804.643 836.097)" stroke="url(#paint38_linear_215_10245)" stroke-width="1.9771"/>
<path d="M804.511 711.202C804.511 780.52 748.486 836.713 679.374 836.713" stroke="url(#paint39_linear_215_10245)" stroke-width="1.9771"/>
<rect x="597.525" y="836.818" width="77.4198" height="82.8444" transform="rotate(-90 597.525 836.818)" stroke="url(#paint40_linear_215_10245)" stroke-width="1.9771"/>
<path d="M680.61 837.102C634.315 837.102 596.786 801.87 596.786 758.409" stroke="url(#paint41_linear_215_10245)" stroke-width="1.9771"/>
<rect x="597.525" y="712.055" width="49.3103" height="46.3515" stroke="url(#paint42_linear_215_10245)" stroke-width="1.9771"/>
<path d="M596.992 758.969C596.992 732.592 619.751 711.209 647.824 711.209" stroke="url(#paint43_linear_215_10245)" stroke-width="1.9771"/>
<rect x="679.384" y="712.055" width="26.6255" height="32.5433" transform="rotate(90 679.384 712.055)" stroke="url(#paint44_linear_215_10245)" stroke-width="1.9771"/>
<path d="M646.156 711.32C664.997 711.32 680.271 724.012 680.271 739.669" stroke="url(#paint45_linear_215_10245)" stroke-width="1.9771"/>
<rect x="678.397" y="758.408" width="20.7077" height="19.7214" transform="rotate(-180 678.397 758.408)" stroke="url(#paint46_linear_215_10245)" stroke-width="1.9771"/>
<path d="M679.185 737.889C679.185 749.732 669.118 759.332 656.701 759.332" stroke="url(#paint47_linear_215_10245)" stroke-width="1.9771"/>
<rect x="647.826" y="758.408" width="8.87216" height="9.34387" transform="rotate(-90 647.826 758.408)" stroke="url(#paint48_linear_215_10245)" stroke-width="1.9771"/>
<path d="M658.059 759.301C651.88 759.301 646.871 754.487 646.871 748.548" stroke="url(#paint49_linear_215_10245)" stroke-width="1.9771"/>
<path d="M242.457 860.986L637.962 464.494" stroke="url(#paint50_linear_215_10245)" stroke-width="1.9771"/>
<path d="M336.994 687.127L566.845 456" stroke="url(#paint51_linear_215_10245)" stroke-width="1.9771" stroke-dasharray="3.95 3.95"/>
<path d="M534.63 893.765L534.088 458.266" stroke="url(#paint52_linear_215_10245)" stroke-width="1.9771" stroke-dasharray="3.84 3.84"/>
<path d="M322.052 864.161L321.553 463.237" stroke="url(#paint53_linear_215_10245)" stroke-width="1.9771" stroke-dasharray="3.84 3.84"/>
<path d="M747.808 878.539L747.284 458.313" stroke="url(#paint54_linear_215_10245)" stroke-width="1.9771" stroke-dasharray="3.84 3.84"/>
<path d="M405.195 773.206L505.797 672.604" stroke="url(#paint55_linear_215_10245)" stroke-width="1.9771"/>
<path d="M443.661 866.903L834.545 473.877" stroke="url(#paint56_linear_215_10245)" stroke-width="2.14672"/>
<path d="M624.774 867.176L377.047 618.172" stroke="url(#paint57_linear_215_10245)" stroke-width="2.14672" stroke-dasharray="4.29 4.29"/>
<path d="M571.388 893.534L224.212 546.357" stroke="url(#paint58_linear_215_10245)" stroke-width="1.9771" stroke-dasharray="3.84 3.84"/>
<path d="M491.003 899.094L880.098 510" stroke="url(#paint59_linear_215_10245)" stroke-width="1.9771"/>
<path d="M443.661 788.986L517.633 715.014" stroke="url(#paint60_linear_215_10245)" stroke-width="1.9771"/>
<path d="M212.976 855.285L829.307 855.285" stroke="url(#paint61_linear_215_10245)" stroke-width="2" stroke-dasharray="4 4"/>
<path d="M305.064 559.922L480.647 559.922" stroke="url(#paint62_linear_215_10245)" stroke-width="2" stroke-dasharray="4 4"/>
</g>
<defs>
<linearGradient id="paint0_linear_215_10245" x1="1079.5" y1="0" x2="-237.573" y2="1053.66" gradientUnits="userSpaceOnUse">
<stop stop-color="#00142A"/>
<stop offset="1" stop-color="#00060B"/>
</linearGradient>
<linearGradient id="paint1_linear_215_10245" x1="246.548" y1="451.644" x2="469.582" y2="740.65" gradientUnits="userSpaceOnUse">
<stop stop-color="#D9D9D9"/>
<stop offset="1" stop-color="#D9D9D9" stop-opacity="0"/>
</linearGradient>
<linearGradient id="paint2_linear_215_10245" x1="151.71" y1="401.298" x2="734.232" y2="668.221" gradientUnits="userSpaceOnUse">
<stop stop-color="#D9D9D9"/>
<stop offset="1" stop-color="#D9D9D9" stop-opacity="0"/>
</linearGradient>
<linearGradient id="paint3_linear_215_10245" x1="126.179" y1="402.583" x2="782.935" y2="773.556" gradientUnits="userSpaceOnUse">
<stop stop-color="#D9D9D9"/>
<stop offset="1" stop-color="#D9D9D9" stop-opacity="0"/>
</linearGradient>
<linearGradient id="paint4_linear_215_10245" x1="130.354" y1="404.758" x2="780.36" y2="772.991" gradientUnits="userSpaceOnUse">
<stop stop-color="#D9D9D9"/>
<stop offset="1" stop-color="#D9D9D9" stop-opacity="0"/>
</linearGradient>
<linearGradient id="paint5_linear_215_10245" x1="719.704" y1="439.271" x2="1131.98" y2="671.742" gradientUnits="userSpaceOnUse">
<stop stop-color="#D9D9D9"/>
<stop offset="1" stop-color="#D9D9D9" stop-opacity="0"/>
</linearGradient>
<linearGradient id="paint6_linear_215_10245" x1="867.939" y1="419.663" x2="637.184" y2="827.706" gradientUnits="userSpaceOnUse">
<stop stop-color="#D9D9D9"/>
<stop offset="1" stop-color="#D9D9D9" stop-opacity="0"/>
</linearGradient>
<linearGradient id="paint7_linear_215_10245" x1="752.754" y1="798.583" x2="1001.84" y2="938.869" gradientUnits="userSpaceOnUse">
<stop stop-color="#D9D9D9"/>
<stop offset="1" stop-color="#D9D9D9" stop-opacity="0"/>
</linearGradient>
<linearGradient id="paint8_linear_215_10245" x1="854.928" y1="874.762" x2="608.398" y2="735.512" gradientUnits="userSpaceOnUse">
<stop stop-color="#D9D9D9"/>
<stop offset="1" stop-color="#D9D9D9" stop-opacity="0"/>
</linearGradient>
<linearGradient id="paint9_linear_215_10245" x1="562.914" y1="812.092" x2="723.951" y2="897.49" gradientUnits="userSpaceOnUse">
<stop stop-color="#D9D9D9"/>
<stop offset="1" stop-color="#D9D9D9" stop-opacity="0"/>
</linearGradient>
<linearGradient id="paint10_linear_215_10245" x1="570.375" y1="869.435" x2="655.153" y2="710.032" gradientUnits="userSpaceOnUse">
<stop stop-color="#D9D9D9"/>
<stop offset="1" stop-color="#D9D9D9" stop-opacity="0"/>
</linearGradient>
<linearGradient id="paint11_linear_215_10245" x1="574.464" y1="696.415" x2="672.357" y2="755.27" gradientUnits="userSpaceOnUse">
<stop stop-color="#D9D9D9"/>
<stop offset="1" stop-color="#D9D9D9" stop-opacity="0"/>
</linearGradient>
<linearGradient id="paint12_linear_215_10245" x1="575.106" y1="696.73" x2="671.98" y2="755.142" gradientUnits="userSpaceOnUse">
<stop stop-color="#D9D9D9"/>
<stop offset="1" stop-color="#D9D9D9" stop-opacity="0"/>
</linearGradient>
<linearGradient id="paint13_linear_215_10245" x1="667.62" y1="700.601" x2="728.527" y2="729.192" gradientUnits="userSpaceOnUse">
<stop stop-color="#D9D9D9"/>
<stop offset="1" stop-color="#D9D9D9" stop-opacity="0"/>
</linearGradient>
<linearGradient id="paint14_linear_215_10245" x1="689.613" y1="699.672" x2="661.223" y2="759.975" gradientUnits="userSpaceOnUse">
<stop stop-color="#D9D9D9"/>
<stop offset="1" stop-color="#D9D9D9" stop-opacity="0"/>
</linearGradient>
<linearGradient id="paint15_linear_215_10245" x1="669.065" y1="752.818" x2="712.706" y2="778.666" gradientUnits="userSpaceOnUse">
<stop stop-color="#D9D9D9"/>
<stop offset="1" stop-color="#D9D9D9" stop-opacity="0"/>
</linearGradient>
<linearGradient id="paint16_linear_215_10245" x1="687.423" y1="765.833" x2="644.235" y2="740.179" gradientUnits="userSpaceOnUse">
<stop stop-color="#D9D9D9"/>
<stop offset="1" stop-color="#D9D9D9" stop-opacity="0"/>
</linearGradient>
<linearGradient id="paint17_linear_215_10245" x1="641.38" y1="755.964" x2="663.155" y2="767.786" gradientUnits="userSpaceOnUse">
<stop stop-color="#D9D9D9"/>
<stop offset="1" stop-color="#D9D9D9" stop-opacity="0"/>
</linearGradient>
<linearGradient id="paint18_linear_215_10245" x1="642.48" y1="763.719" x2="654.215" y2="742.166" gradientUnits="userSpaceOnUse">
<stop stop-color="#D9D9D9"/>
<stop offset="1" stop-color="#D9D9D9" stop-opacity="0"/>
</linearGradient>
<linearGradient id="paint19_linear_215_10245" x1="78.9495" y1="344.295" x2="857.944" y2="784.518" gradientUnits="userSpaceOnUse">
<stop stop-color="#D9D9D9"/>
<stop offset="1" stop-color="#D9D9D9" stop-opacity="0"/>
</linearGradient>
<linearGradient id="paint20_linear_215_10245" x1="241.552" y1="385.932" x2="694.938" y2="641.368" gradientUnits="userSpaceOnUse">
<stop stop-color="#D9D9D9"/>
<stop offset="1" stop-color="#D9D9D9" stop-opacity="0"/>
</linearGradient>
<linearGradient id="paint21_linear_215_10245" x1="160.156" y1="699.008" x2="830.574" y2="512.726" gradientUnits="userSpaceOnUse">
<stop stop-color="#D9D9D9"/>
<stop offset="1" stop-color="#D9D9D9" stop-opacity="0"/>
</linearGradient>
<linearGradient id="paint22_linear_215_10245" x1="-22.7705" y1="684.866" x2="594.421" y2="513.374" gradientUnits="userSpaceOnUse">
<stop stop-color="#D9D9D9"/>
<stop offset="1" stop-color="#D9D9D9" stop-opacity="0"/>
</linearGradient>
<linearGradient id="paint23_linear_215_10245" x1="386.431" y1="690.612" x2="1033.34" y2="510.863" gradientUnits="userSpaceOnUse">
<stop stop-color="#D9D9D9"/>
<stop offset="1" stop-color="#D9D9D9" stop-opacity="0"/>
</linearGradient>
<linearGradient id="paint24_linear_215_10245" x1="362.859" y1="642.105" x2="560.768" y2="754.226" gradientUnits="userSpaceOnUse">
<stop stop-color="#D9D9D9"/>
<stop offset="1" stop-color="#D9D9D9" stop-opacity="0"/>
</linearGradient>
<linearGradient id="paint25_linear_215_10245" x1="282.052" y1="354.728" x2="1053.05" y2="789.14" gradientUnits="userSpaceOnUse">
<stop stop-color="#D9D9D9"/>
<stop offset="1" stop-color="#D9D9D9" stop-opacity="0"/>
</linearGradient>
<linearGradient id="paint26_linear_215_10245" x1="725.562" y1="542.684" x2="237.007" y2="818.044" gradientUnits="userSpaceOnUse">
<stop stop-color="#D9D9D9"/>
<stop offset="1" stop-color="#D9D9D9" stop-opacity="0"/>
</linearGradient>
<linearGradient id="paint27_linear_215_10245" x1="713.038" y1="441.108" x2="30.0577" y2="828.035" gradientUnits="userSpaceOnUse">
<stop stop-color="#D9D9D9"/>
<stop offset="1" stop-color="#D9D9D9" stop-opacity="0"/>
</linearGradient>
<linearGradient id="paint28_linear_215_10245" x1="330.131" y1="392.043" x2="1095.57" y2="825.687" gradientUnits="userSpaceOnUse">
<stop stop-color="#D9D9D9"/>
<stop offset="1" stop-color="#D9D9D9" stop-opacity="0"/>
</linearGradient>
<linearGradient id="paint29_linear_215_10245" x1="412.267" y1="692.588" x2="557.788" y2="775.03" gradientUnits="userSpaceOnUse">
<stop stop-color="#D9D9D9"/>
<stop offset="1" stop-color="#D9D9D9" stop-opacity="0"/>
</linearGradient>
<linearGradient id="paint30_linear_215_10245" x1="-41.265" y1="854.982" x2="-41.2519" y2="859.569" gradientUnits="userSpaceOnUse">
<stop stop-color="#D9D9D9"/>
<stop offset="1" stop-color="#D9D9D9" stop-opacity="0"/>
</linearGradient>
<linearGradient id="paint31_linear_215_10245" x1="231.92" y1="559.619" x2="231.966" y2="564.205" gradientUnits="userSpaceOnUse">
<stop stop-color="#D9D9D9"/>
<stop offset="1" stop-color="#D9D9D9" stop-opacity="0"/>
</linearGradient>
<linearGradient id="paint32_linear_215_10245" x1="247.548" y1="451.644" x2="470.582" y2="740.65" gradientUnits="userSpaceOnUse">
<stop stop-color="#D9D9D9"/>
<stop offset="1" stop-color="#D9D9D9" stop-opacity="0"/>
</linearGradient>
<linearGradient id="paint33_linear_215_10245" x1="152.71" y1="401.298" x2="735.232" y2="668.221" gradientUnits="userSpaceOnUse">
<stop stop-color="#D9D9D9"/>
<stop offset="1" stop-color="#D9D9D9" stop-opacity="0"/>
</linearGradient>
<linearGradient id="paint34_linear_215_10245" x1="127.179" y1="402.583" x2="783.935" y2="773.556" gradientUnits="userSpaceOnUse">
<stop stop-color="#D9D9D9"/>
<stop offset="1" stop-color="#D9D9D9" stop-opacity="0"/>
</linearGradient>
<linearGradient id="paint35_linear_215_10245" x1="131.354" y1="404.758" x2="781.36" y2="772.991" gradientUnits="userSpaceOnUse">
<stop stop-color="#D9D9D9"/>
<stop offset="1" stop-color="#D9D9D9" stop-opacity="0"/>
</linearGradient>
<linearGradient id="paint36_linear_215_10245" x1="720.704" y1="439.271" x2="1132.98" y2="671.742" gradientUnits="userSpaceOnUse">
<stop stop-color="#D9D9D9"/>
<stop offset="1" stop-color="#D9D9D9" stop-opacity="0"/>
</linearGradient>
<linearGradient id="paint37_linear_215_10245" x1="868.939" y1="419.663" x2="638.184" y2="827.706" gradientUnits="userSpaceOnUse">
<stop stop-color="#D9D9D9"/>
<stop offset="1" stop-color="#D9D9D9" stop-opacity="0"/>
</linearGradient>
<linearGradient id="paint38_linear_215_10245" x1="753.754" y1="798.583" x2="1002.84" y2="938.869" gradientUnits="userSpaceOnUse">
<stop stop-color="#D9D9D9"/>
<stop offset="1" stop-color="#D9D9D9" stop-opacity="0"/>
</linearGradient>
<linearGradient id="paint39_linear_215_10245" x1="855.928" y1="874.762" x2="609.398" y2="735.512" gradientUnits="userSpaceOnUse">
<stop stop-color="#D9D9D9"/>
<stop offset="1" stop-color="#D9D9D9" stop-opacity="0"/>
</linearGradient>
<linearGradient id="paint40_linear_215_10245" x1="563.914" y1="812.092" x2="724.951" y2="897.49" gradientUnits="userSpaceOnUse">
<stop stop-color="#D9D9D9"/>
<stop offset="1" stop-color="#D9D9D9" stop-opacity="0"/>
</linearGradient>
<linearGradient id="paint41_linear_215_10245" x1="571.375" y1="869.435" x2="656.153" y2="710.032" gradientUnits="userSpaceOnUse">
<stop stop-color="#D9D9D9"/>
<stop offset="1" stop-color="#D9D9D9" stop-opacity="0"/>
</linearGradient>
<linearGradient id="paint42_linear_215_10245" x1="575.464" y1="696.415" x2="673.357" y2="755.27" gradientUnits="userSpaceOnUse">
<stop stop-color="#D9D9D9"/>
<stop offset="1" stop-color="#D9D9D9" stop-opacity="0"/>
</linearGradient>
<linearGradient id="paint43_linear_215_10245" x1="576.106" y1="696.73" x2="672.98" y2="755.142" gradientUnits="userSpaceOnUse">
<stop stop-color="#D9D9D9"/>
<stop offset="1" stop-color="#D9D9D9" stop-opacity="0"/>
</linearGradient>
<linearGradient id="paint44_linear_215_10245" x1="668.62" y1="700.601" x2="729.527" y2="729.192" gradientUnits="userSpaceOnUse">
<stop stop-color="#D9D9D9"/>
<stop offset="1" stop-color="#D9D9D9" stop-opacity="0"/>
</linearGradient>
<linearGradient id="paint45_linear_215_10245" x1="690.613" y1="699.672" x2="662.223" y2="759.975" gradientUnits="userSpaceOnUse">
<stop stop-color="#D9D9D9"/>
<stop offset="1" stop-color="#D9D9D9" stop-opacity="0"/>
</linearGradient>
<linearGradient id="paint46_linear_215_10245" x1="670.065" y1="752.818" x2="713.706" y2="778.666" gradientUnits="userSpaceOnUse">
<stop stop-color="#D9D9D9"/>
<stop offset="1" stop-color="#D9D9D9" stop-opacity="0"/>
</linearGradient>
<linearGradient id="paint47_linear_215_10245" x1="688.423" y1="765.833" x2="645.235" y2="740.179" gradientUnits="userSpaceOnUse">
<stop stop-color="#D9D9D9"/>
<stop offset="1" stop-color="#D9D9D9" stop-opacity="0"/>
</linearGradient>
<linearGradient id="paint48_linear_215_10245" x1="642.38" y1="755.964" x2="664.155" y2="767.786" gradientUnits="userSpaceOnUse">
<stop stop-color="#D9D9D9"/>
<stop offset="1" stop-color="#D9D9D9" stop-opacity="0"/>
</linearGradient>
<linearGradient id="paint49_linear_215_10245" x1="643.48" y1="763.719" x2="655.215" y2="742.166" gradientUnits="userSpaceOnUse">
<stop stop-color="#D9D9D9"/>
<stop offset="1" stop-color="#D9D9D9" stop-opacity="0"/>
</linearGradient>
<linearGradient id="paint50_linear_215_10245" x1="79.9495" y1="344.295" x2="858.944" y2="784.518" gradientUnits="userSpaceOnUse">
<stop stop-color="#D9D9D9"/>
<stop offset="1" stop-color="#D9D9D9" stop-opacity="0"/>
</linearGradient>
<linearGradient id="paint51_linear_215_10245" x1="242.552" y1="385.932" x2="695.938" y2="641.368" gradientUnits="userSpaceOnUse">
<stop stop-color="#D9D9D9"/>
<stop offset="1" stop-color="#D9D9D9" stop-opacity="0"/>
</linearGradient>
<linearGradient id="paint52_linear_215_10245" x1="161.156" y1="699.008" x2="831.574" y2="512.726" gradientUnits="userSpaceOnUse">
<stop stop-color="#D9D9D9"/>
<stop offset="1" stop-color="#D9D9D9" stop-opacity="0"/>
</linearGradient>
<linearGradient id="paint53_linear_215_10245" x1="-21.7705" y1="684.866" x2="595.421" y2="513.374" gradientUnits="userSpaceOnUse">
<stop stop-color="#D9D9D9"/>
<stop offset="1" stop-color="#D9D9D9" stop-opacity="0"/>
</linearGradient>
<linearGradient id="paint54_linear_215_10245" x1="387.431" y1="690.612" x2="1034.34" y2="510.863" gradientUnits="userSpaceOnUse">
<stop stop-color="#D9D9D9"/>
<stop offset="1" stop-color="#D9D9D9" stop-opacity="0"/>
</linearGradient>
<linearGradient id="paint55_linear_215_10245" x1="363.859" y1="642.105" x2="561.768" y2="754.226" gradientUnits="userSpaceOnUse">
<stop stop-color="#D9D9D9"/>
<stop offset="1" stop-color="#D9D9D9" stop-opacity="0"/>
</linearGradient>
<linearGradient id="paint56_linear_215_10245" x1="283.052" y1="354.728" x2="1054.05" y2="789.14" gradientUnits="userSpaceOnUse">
<stop stop-color="#D9D9D9"/>
<stop offset="1" stop-color="#D9D9D9" stop-opacity="0"/>
</linearGradient>
<linearGradient id="paint57_linear_215_10245" x1="726.562" y1="542.684" x2="238.007" y2="818.044" gradientUnits="userSpaceOnUse">
<stop stop-color="#D9D9D9"/>
<stop offset="1" stop-color="#D9D9D9" stop-opacity="0"/>
</linearGradient>
<linearGradient id="paint58_linear_215_10245" x1="714.038" y1="441.108" x2="31.0577" y2="828.035" gradientUnits="userSpaceOnUse">
<stop stop-color="#D9D9D9"/>
<stop offset="1" stop-color="#D9D9D9" stop-opacity="0"/>
</linearGradient>
<linearGradient id="paint59_linear_215_10245" x1="331.131" y1="392.043" x2="1096.57" y2="825.687" gradientUnits="userSpaceOnUse">
<stop stop-color="#D9D9D9"/>
<stop offset="1" stop-color="#D9D9D9" stop-opacity="0"/>
</linearGradient>
<linearGradient id="paint60_linear_215_10245" x1="413.267" y1="692.588" x2="558.788" y2="775.03" gradientUnits="userSpaceOnUse">
<stop stop-color="#D9D9D9"/>
<stop offset="1" stop-color="#D9D9D9" stop-opacity="0"/>
</linearGradient>
<linearGradient id="paint61_linear_215_10245" x1="-40.265" y1="854.982" x2="-40.2519" y2="859.569" gradientUnits="userSpaceOnUse">
<stop stop-color="#D9D9D9"/>
<stop offset="1" stop-color="#D9D9D9" stop-opacity="0"/>
</linearGradient>
<linearGradient id="paint62_linear_215_10245" x1="232.92" y1="559.619" x2="232.966" y2="564.205" gradientUnits="userSpaceOnUse">
<stop stop-color="#D9D9D9"/>
<stop offset="1" stop-color="#D9D9D9" stop-opacity="0"/>
</linearGradient>
<clipPath id="clip0_215_10245">
<rect width="1080" height="1350" fill="white"/>
</clipPath>
</defs>
</svg>
