<svg width="1080" height="1350" viewBox="0 0 1080 1350" fill="none" xmlns="http://www.w3.org/2000/svg">
<g clip-path="url(#clip0_215_10229)">
<path d="M-0.5 0.363868C-0.5 0.162901 -0.337084 0 -0.136116 0H1079.14C1079.34 0 1079.5 0.162916 1079.5 0.363884V1350H-0.5V0.363868Z" fill="#00060B"/>
<path fill-rule="evenodd" clip-rule="evenodd" d="M322.141 560V855.286H265.141V504.933H265.182L265.182 503L598.391 503L597.971 503.429L600.533 503.429L431.438 672.584L468.498 709.657L428.2 749.969L350.862 672.604L372.542 650.916L372.522 650.896L463.386 560L322.141 560ZM804.646 564V504.932L534.716 774.959L496.76 736.989L456.462 777.301L534.419 855.286L538.321 851.383L538.618 851.68L747.655 641.903V855.286H804.655V564H804.646Z" fill="#D9D9D9"/>
<path d="M512.636 128.508V111.468H519.836C520.572 111.468 521.244 111.62 521.852 111.924C522.46 112.228 522.988 112.644 523.436 113.172C523.9 113.684 524.252 114.26 524.492 114.9C524.748 115.524 524.876 116.164 524.876 116.82C524.876 117.636 524.716 118.404 524.396 119.124C524.092 119.844 523.652 120.452 523.076 120.948C522.516 121.444 521.852 121.772 521.084 121.932L525.26 128.508H523.364L519.356 122.22H514.316V128.508H512.636ZM514.316 120.732H519.884C520.556 120.732 521.14 120.548 521.636 120.18C522.132 119.812 522.516 119.332 522.788 118.74C523.06 118.132 523.196 117.492 523.196 116.82C523.196 116.132 523.036 115.5 522.716 114.924C522.412 114.332 521.996 113.86 521.468 113.508C520.956 113.14 520.38 112.956 519.74 112.956H514.316V120.732ZM541.009 119.316V120.66H538.033V123.9H536.521V120.66H533.545V119.316H536.521V116.076H538.033V119.316H541.009ZM565.607 128.508V114.636L559.439 125.412H558.383L552.191 114.636V128.508H550.511V111.468H552.239L558.887 123.132L565.583 111.468H567.287V128.508H565.607Z" fill="url(#paint0_linear_215_10229)"/>
</g>
<defs>
<linearGradient id="paint0_linear_215_10229" x1="532.293" y1="96.807" x2="524.879" y2="146.158" gradientUnits="userSpaceOnUse">
<stop stop-color="#D9D9D9"/>
<stop offset="1" stop-color="#D9D9D9" stop-opacity="0"/>
</linearGradient>
<clipPath id="clip0_215_10229">
<rect width="1080" height="1350" fill="white"/>
</clipPath>
</defs>
</svg>
