<svg width="32" height="39" viewBox="0 0 32 39" fill="none" xmlns="http://www.w3.org/2000/svg">
<path fill-rule="evenodd" clip-rule="evenodd" d="M0.413065 26.4629L6.85667 36.6573C7.55615 37.764 8.9059 38.2709 10.1609 37.8983L29.6048 32.1259C31.1006 31.6818 31.8474 30.0077 31.1785 28.598L18.1953 1.235C17.4615 -0.311601 15.3065 -0.43198 14.405 1.02327L0.400254 23.6302C-0.138004 24.4991 -0.133029 25.599 0.413065 26.4629ZM16.3781 4.92386L10.2873 34.441C10.1904 34.9104 10.6282 35.3141 11.0883 35.1796L28.2083 30.1744C28.7336 30.0209 28.9972 29.4339 28.7629 28.9393L17.3358 4.80897C17.1269 4.36777 16.4768 4.44576 16.3781 4.92386Z" fill="white"/>
</svg>
