<svg width="27" height="37" viewBox="0 0 27 37" fill="none" xmlns="http://www.w3.org/2000/svg">
<path fill-rule="evenodd" clip-rule="evenodd" d="M0 0H12.949V12.6735H0V0ZM14.0509 6.33673C14.0509 2.83705 16.888 0 20.3877 0H20.6632C24.1629 0 26.9999 2.83705 26.9999 6.33673C26.9999 9.83642 24.1629 12.6735 20.6632 12.6735H20.3877C16.888 12.6735 14.0509 9.83642 14.0509 6.33673ZM11.8469 13.7757C12.2187 13.7757 12.5863 13.7932 12.9491 13.8275V36.8667C12.5863 36.901 12.2187 36.9185 11.8469 36.9185C5.45617 36.9185 0.275468 31.7378 0.275468 25.3471C0.275468 18.9564 5.45617 13.7757 11.8469 13.7757Z" fill="white"/>
</svg>
