<svg width="40" height="36" viewBox="0 0 40 36" fill="none" xmlns="http://www.w3.org/2000/svg">
<path d="M20.0001 21.3323C21.9726 21.3323 23.5716 19.7333 23.5716 17.7609C23.5716 15.7884 21.9726 14.1895 20.0001 14.1895C18.0277 14.1895 16.4287 15.7884 16.4287 17.7609C16.4287 19.7333 18.0277 21.3323 20.0001 21.3323Z" fill="#00D8FF"/>
<path d="M20 25.949C15.7073 26.0529 11.4254 25.4742 7.31429 24.2348C5.41517 23.6327 3.64391 22.6844 2.09 21.4376C1.49704 21.0117 1.00325 20.4625 0.642489 19.8278C0.281732 19.1931 0.0625566 18.4879 0 17.7605C0 15.399 2.59429 13.0847 6.94 11.5705C11.161 10.2287 15.5713 9.57838 20 9.64475C24.3696 9.5837 28.7208 10.2222 32.8886 11.5362C34.7176 12.1193 36.4288 13.0218 37.9429 14.2019C38.5257 14.6079 39.0121 15.1372 39.3676 15.7522C39.7231 16.3671 39.939 17.0528 40 17.7605C40 20.2147 37.1 22.7019 32.4286 24.2476C28.397 25.4467 24.2055 26.0205 20 25.949V25.949ZM20 11.3533C15.763 11.2967 11.544 11.9149 7.50143 13.1847C3.50143 14.5805 1.70857 16.489 1.70857 17.7562C1.70857 19.0819 3.63571 21.1662 7.86714 22.6133C11.8001 23.7931 15.8952 24.3423 20 24.2405C24.0234 24.3124 28.0342 23.768 31.8929 22.6262C36.2857 21.1705 38.2857 19.0833 38.2857 17.7605C38.2136 17.3065 38.0482 16.8724 37.7999 16.4856C37.5515 16.0989 37.2256 15.7678 36.8429 15.5133C35.4882 14.4664 33.9596 13.6665 32.3271 13.1505C28.34 11.8987 24.1785 11.292 20 11.3533V11.3533Z" fill="#00D8FF"/>
<path d="M11.8858 35.5735C11.2194 35.5888 10.5608 35.4271 9.97725 35.105C7.93153 33.925 7.22296 30.5221 8.08153 26.0007C9.02817 21.6737 10.6684 17.5282 12.9387 13.725V13.725C15.0683 9.90939 17.7947 6.45912 21.0144 3.50496C22.4332 2.21168 24.0699 1.18002 25.8487 0.457813C26.492 0.156298 27.1939 0 27.9044 0C28.6149 0 29.3167 0.156298 29.9601 0.457813C32.0872 1.68353 32.7915 5.43781 31.7987 10.2564C30.8228 14.3486 29.2252 18.267 27.0615 21.875C25.0069 25.6455 22.3664 29.0657 19.2387 32.0078C17.7684 33.3518 16.062 34.412 14.2058 35.135C13.4627 35.4108 12.6783 35.559 11.8858 35.5735V35.5735ZM14.4187 14.5735C12.2531 18.2154 10.6811 22.1788 9.76153 26.315C8.97153 30.4792 9.73011 32.9835 10.833 33.6207C11.9758 34.2821 14.7501 33.655 18.1187 30.7121C21.1044 27.8935 23.6247 24.6195 25.5858 21.0121C27.6586 17.5628 29.1911 13.8166 30.1301 9.90353C31.0644 5.36781 30.2572 2.59067 29.1115 1.93067C28.6821 1.76614 28.2232 1.69248 27.7639 1.71437C27.3046 1.73625 26.8548 1.8532 26.443 2.05781C24.8596 2.71117 23.404 3.63871 22.143 4.79781C19.0668 7.62751 16.4625 10.9306 14.4287 14.5821L14.4187 14.5735Z" fill="#00D8FF"/>
<path d="M28.11 35.5919C26.1742 35.5919 23.7157 34.4205 21.1557 32.219C17.8795 29.238 15.1071 25.7467 12.9457 21.8805V21.8805C10.7039 18.1296 9.07663 14.0441 8.12567 9.77904C7.71326 7.90259 7.63684 5.96788 7.89996 4.06476C7.96079 3.35876 8.17576 2.67472 8.52972 2.06084C8.88368 1.44697 9.368 0.91823 9.94853 0.511898C12.0728 -0.718102 15.6771 0.546183 19.3557 3.8119C22.4137 6.70073 25.0105 10.0415 27.0557 13.7176C29.2961 17.381 30.9404 21.3769 31.9271 25.5562C32.3573 27.5015 32.4236 29.5096 32.1228 31.479C32.0512 32.2053 31.8235 32.9076 31.4551 33.5376C31.0867 34.1676 30.5864 34.7105 29.9885 35.129C29.4145 35.4472 28.7661 35.607 28.11 35.5919V35.5919ZM14.4242 21.0205C16.4977 24.7154 19.1461 28.0567 22.27 30.919C25.4828 33.6833 28.0314 34.2776 29.1271 33.6333C30.27 32.969 31.1128 30.2576 30.2442 25.8705C29.2926 21.8804 27.7155 18.0661 25.5714 14.569C23.6197 11.0506 21.141 7.8517 18.2214 5.08333C14.7585 2.00904 11.95 1.3219 10.8057 1.98476C10.449 2.27459 10.1563 2.63522 9.94611 3.04388C9.73588 3.45254 9.61266 3.90035 9.58424 4.35904C9.35711 6.05631 9.4311 7.78033 9.80282 9.4519C10.7175 13.5307 12.2782 17.4371 14.4257 21.0233L14.4242 21.0205Z" fill="#00D8FF"/>
</svg>
