<svg width="54" height="40" viewBox="0 0 54 40" fill="none" xmlns="http://www.w3.org/2000/svg">
<path d="M45.9278 22.9944C44.0671 23.0042 42.4498 23.4523 41.0957 24.1148C40.5988 23.1308 40.1019 22.254 40.0143 21.611C39.9168 20.8609 39.7999 20.403 39.9168 19.5067C40.0337 18.6104 40.5598 17.3342 40.5501 17.2367C40.5403 17.1393 40.4332 16.6814 39.3615 16.6717C38.2899 16.6619 37.3643 16.8763 37.2572 17.1588C37.15 17.4413 36.9454 18.0843 36.809 18.7468C36.6239 19.721 34.6657 23.199 33.5454 25.0208C33.1849 24.3096 32.8731 23.6861 32.8049 23.1893C32.7075 22.4391 32.5906 21.9812 32.7075 21.0849C32.8244 20.1887 33.3505 18.9124 33.3408 18.815C33.331 18.7176 33.2239 18.2597 32.1522 18.2499C31.0805 18.2402 30.155 18.4545 30.0479 18.737C29.9407 19.0196 29.8238 19.682 29.5997 20.325C29.3756 20.968 26.7744 26.7745 26.0925 28.2748C25.7418 29.0444 25.4397 29.6582 25.2254 30.0771C25.2254 30.0771 25.2157 30.1063 25.1864 30.155C25.0013 30.5155 24.8942 30.7103 24.8942 30.7103C24.8942 30.7103 24.8942 30.7103 24.8942 30.7201C24.748 30.9831 24.5922 31.2267 24.5142 31.2267C24.4558 31.2267 24.3486 30.5252 24.5337 29.5705C24.9234 27.5538 25.8489 24.4168 25.8392 24.3096C25.8392 24.2512 26.0145 23.7056 25.2352 23.4231C24.4753 23.1406 24.2025 23.6082 24.1343 23.6082C24.0661 23.6082 24.0174 23.7738 24.0174 23.7738C24.0174 23.7738 24.8649 20.2471 22.4001 20.2471C20.8609 20.2471 18.737 21.9325 17.6849 23.4523C17.0224 23.8128 15.6097 24.5824 14.0997 25.4105C13.5249 25.732 12.9306 26.0535 12.3753 26.3555C12.3363 26.3166 12.2974 26.2679 12.2584 26.2289C9.27724 23.0431 3.76309 20.7927 3.9969 16.5158C4.08459 14.957 4.62041 10.8653 14.5868 5.89667C22.7898 1.85361 29.3172 2.97398 30.4473 5.45827C32.0645 9.00447 26.9498 15.5903 18.474 16.545C15.2395 16.9055 13.5444 15.6585 13.1157 15.1908C12.6676 14.7037 12.5994 14.6745 12.4338 14.7719C12.161 14.9181 12.3363 15.3565 12.4338 15.6098C12.6871 16.2722 13.7295 17.4413 15.4928 18.0161C17.0516 18.5227 20.8414 18.8052 25.43 17.0321C30.5642 15.0447 34.578 9.52081 33.3992 4.89321C32.2204 0.197416 24.4265 -1.35161 17.0516 1.26907C12.6676 2.82784 7.91332 5.2829 4.49376 8.47838C0.431216 12.2779 -0.211777 15.5805 0.051266 16.9639C0.996271 21.8741 7.76718 25.0695 10.4755 27.4369C10.3392 27.5149 10.2125 27.5831 10.1053 27.6415C8.75116 28.3137 3.58773 31.0124 2.30174 33.8669C0.840394 37.1013 2.53556 39.42 3.65592 39.7317C7.13393 40.6962 10.7094 38.9621 12.6286 36.0978C14.5478 33.2336 14.314 29.512 13.4275 27.8071C13.4177 27.7877 13.408 27.7682 13.3885 27.7487C13.7392 27.5441 14.0997 27.3298 14.4504 27.1252C15.1421 26.716 15.8241 26.3361 16.4086 26.0243C16.0774 26.9303 15.8338 28.0117 15.7169 29.5705C15.5708 31.4021 16.3209 33.7792 17.3049 34.7144C17.7433 35.1236 18.2597 35.1334 18.5909 35.1334C19.7405 35.1334 20.2568 34.1786 20.8316 33.0485C21.5331 31.6651 22.1663 30.0576 22.1663 30.0576C22.1663 30.0576 21.3772 34.4027 23.5205 34.4027C24.2999 34.4027 25.089 33.3895 25.4397 32.8731V32.8829C25.4397 32.8829 25.4592 32.8537 25.4982 32.7855C25.5761 32.6588 25.6249 32.5809 25.6249 32.5809V32.5614C25.9366 32.0158 26.6381 30.7785 27.6805 28.7229C29.0249 26.073 30.3206 22.7606 30.3206 22.7606C30.3206 22.7606 30.4376 23.5692 30.837 24.9137C31.0708 25.7028 31.5579 26.5699 31.9476 27.4077C31.6359 27.8461 31.441 28.0897 31.441 28.0897C31.441 28.0897 31.441 28.0897 31.4508 28.0994C31.1975 28.4306 30.9247 28.7911 30.6227 29.1418C29.5607 30.4083 28.2942 31.8599 28.1189 32.2789C27.9143 32.7757 27.963 33.1362 28.3527 33.4285C28.6352 33.6428 29.1418 33.672 29.6582 33.6428C30.6129 33.5746 31.2851 33.3408 31.6164 33.1946C32.1327 33.0095 32.7367 32.727 33.3018 32.3081C34.3442 31.5384 34.9775 30.4376 34.919 28.986C34.8898 28.1871 34.6268 27.3882 34.3053 26.6381C34.4027 26.5017 34.4904 26.3653 34.5878 26.2289C36.2342 23.8225 37.5105 21.1824 37.5105 21.1824C37.5105 21.1824 37.6274 21.991 38.0268 23.3354C38.2217 24.0174 38.6211 24.7578 38.9718 25.4787C37.4228 26.7355 36.4681 28.1968 36.1271 29.1516C35.5133 30.9247 35.9907 31.7236 36.8967 31.9087C37.3059 31.9963 37.8904 31.8015 38.3191 31.6164C38.8647 31.441 39.5077 31.139 40.1214 30.6909C41.1638 29.9212 42.1673 28.8496 42.1089 27.398C42.0796 26.7355 41.9043 26.0828 41.6607 25.4495C42.9759 24.9039 44.6711 24.6019 46.8339 24.8552C51.4712 25.4008 52.387 28.2943 52.2116 29.512C52.0363 30.7298 51.062 31.3923 50.7405 31.5969C50.419 31.8015 50.3119 31.8697 50.3411 32.0158C50.3801 32.2301 50.536 32.2204 50.8087 32.1814C51.1887 32.1132 53.2443 31.1975 53.332 28.9567C53.4781 26.0925 50.7503 22.9652 45.9278 22.9944ZM10.154 35.0554C8.61476 36.7311 6.47145 37.3644 5.54593 36.8285C4.55222 36.2537 4.94191 33.7792 6.83192 32.0061C7.98151 30.9247 9.46234 29.9212 10.4463 29.3075C10.6704 29.1711 11.0016 28.9762 11.4011 28.7327C11.4693 28.6937 11.5082 28.6742 11.5082 28.6742C11.5862 28.6255 11.6641 28.5768 11.742 28.5281C12.4338 31.0611 11.7713 33.2921 10.154 35.0554ZM21.3577 27.4369C20.8219 28.7424 19.7015 32.084 19.0196 31.8989C18.435 31.743 18.0746 29.21 18.9027 26.7063C19.3216 25.4495 20.2081 23.9492 20.7245 23.3646C21.5623 22.4294 22.4878 22.1176 22.7119 22.4976C22.9944 22.9944 21.689 26.6186 21.3577 27.4369ZM30.6032 31.8599C30.3791 31.9769 30.1648 32.0548 30.0673 31.9963C29.9992 31.9574 30.1648 31.8015 30.1648 31.8015C30.1648 31.8015 31.3241 30.5545 31.782 29.9894C32.045 29.6582 32.3568 29.2685 32.688 28.8301V28.9567C32.688 30.4473 31.2462 31.4508 30.6032 31.8599ZM37.7346 30.233C37.5689 30.1161 37.5982 29.7264 38.1535 28.5086C38.3678 28.0312 38.8744 27.2323 39.7415 26.4627C39.8389 26.7745 39.9071 27.0765 39.8973 27.359C39.8876 29.2393 38.5432 29.9407 37.7346 30.233Z" fill="#CD6799"/>
</svg>
