<svg width="472" height="476" viewBox="0 0 472 476" fill="none" xmlns="http://www.w3.org/2000/svg">
<g id="social-links" class="social-links">
<ellipse id="circle-sm" class="circle-sm" cx="236" cy="241" rx="35" ry="35" transform="rotate(-180 236 241)" fill="#0CA7EA"/>
<g id="icons-lg">
<circle id="circle-lg" cx="236" cy="241" r="228.5" stroke="#5390E3"/>
<g id="icon-02">
<circle id="ellipse-02" cx="24" cy="155" r="23.5" fill="#00000A" stroke="#5390E3"/>
<g id="GithubLogo">
<path id="Vector" d="M19.875 165.5C20.1708 165.501 20.464 165.444 20.7375 165.331C21.011 165.219 21.2596 165.053 21.4688 164.844C21.6779 164.635 21.8436 164.386 21.9563 164.113C22.0689 163.839 22.1262 163.546 22.125 163.25V158.75" stroke="#4CA9FF" stroke-width="1.5" stroke-linecap="round" stroke-linejoin="round"/>
<path id="Vector_2" d="M28.125 165.5C27.8292 165.501 27.5361 165.444 27.2625 165.331C26.989 165.219 26.7404 165.053 26.5313 164.844C26.3221 164.635 26.1564 164.386 26.0438 164.113C25.9311 163.839 25.8738 163.546 25.875 163.25V158.75" stroke="#4CA9FF" stroke-width="1.5" stroke-linecap="round" stroke-linejoin="round"/>
<path id="Vector_3" d="M26.25 158.75H27.75C28.0458 158.749 28.339 158.806 28.6125 158.919C28.886 159.031 29.1346 159.197 29.3438 159.406C29.5529 159.615 29.7186 159.864 29.8313 160.138C29.9439 160.411 30.0012 160.704 30 161V161.75C29.9988 162.046 30.0561 162.339 30.1687 162.613C30.2814 162.886 30.4471 163.135 30.6562 163.344C30.8654 163.553 31.114 163.719 31.3875 163.831C31.661 163.944 31.9542 164.001 32.25 164" stroke="#4CA9FF" stroke-width="1.5" stroke-linecap="round" stroke-linejoin="round"/>
<path id="Vector_4" d="M21.75 158.75H20.25C19.9542 158.749 19.661 158.806 19.3875 158.919C19.114 159.031 18.8654 159.197 18.6562 159.406C18.4471 159.615 18.2814 159.864 18.1687 160.138C18.0561 160.411 17.9988 160.704 18 161V161.75C18.0012 162.046 17.9439 162.339 17.8313 162.613C17.7186 162.886 17.5529 163.135 17.3438 163.344C17.1346 163.553 16.886 163.719 16.6125 163.831C16.339 163.944 16.0458 164.001 15.75 164" stroke="#4CA9FF" stroke-width="1.5" stroke-linecap="round" stroke-linejoin="round"/>
<path id="Vector_5" d="M22.4813 149C22.0406 148.31 21.4335 147.743 20.7159 147.35C19.9983 146.957 19.1933 146.75 18.375 146.75C18.0112 147.38 17.7928 148.083 17.7361 148.808C17.6793 149.533 17.7855 150.262 18.0469 150.941C17.5343 151.696 17.257 152.587 17.25 153.5V154.25C17.25 155.443 17.7241 156.588 18.568 157.432C19.4119 158.276 20.5565 158.75 21.75 158.75H26.25C27.4435 158.75 28.5881 158.276 29.432 157.432C30.2759 156.588 30.75 155.443 30.75 154.25V153.5C30.743 152.587 30.4657 151.696 29.9531 150.941C30.2145 150.262 30.3207 149.533 30.2639 148.808C30.2072 148.083 29.9888 147.38 29.625 146.75C28.8067 146.75 28.0017 146.957 27.2841 147.35C26.5665 147.743 25.9594 148.31 25.5187 149H22.4813Z" stroke="#4CA9FF" stroke-width="1.5" stroke-linecap="round" stroke-linejoin="round"/>
</g>
</g>
<g id="icon-06">
<circle id="ellipse-07" r="23.5" transform="matrix(-1 0 0 1 448 327)" fill="#00000A" stroke="#5390E3"/>
<g id="GithubLogo_2">
<path id="Vector_6" d="M443.875 337.5C444.171 337.501 444.464 337.444 444.738 337.331C445.011 337.219 445.26 337.053 445.469 336.844C445.678 336.635 445.844 336.386 445.956 336.113C446.069 335.839 446.126 335.546 446.125 335.25V330.75" stroke="#4CA9FF" stroke-width="1.5" stroke-linecap="round" stroke-linejoin="round"/>
<path id="Vector_7" d="M452.125 337.5C451.829 337.501 451.536 337.444 451.263 337.331C450.989 337.219 450.74 337.053 450.531 336.844C450.322 336.635 450.156 336.386 450.044 336.113C449.931 335.839 449.874 335.546 449.875 335.25V330.75" stroke="#4CA9FF" stroke-width="1.5" stroke-linecap="round" stroke-linejoin="round"/>
<path id="Vector_8" d="M450.25 330.75H451.75C452.046 330.749 452.339 330.806 452.613 330.919C452.886 331.031 453.135 331.197 453.344 331.406C453.553 331.615 453.719 331.864 453.831 332.138C453.944 332.411 454.001 332.704 454 333V333.75C453.999 334.046 454.056 334.339 454.169 334.613C454.281 334.886 454.447 335.135 454.656 335.344C454.865 335.553 455.114 335.719 455.387 335.831C455.661 335.944 455.954 336.001 456.25 336" stroke="#4CA9FF" stroke-width="1.5" stroke-linecap="round" stroke-linejoin="round"/>
<path id="Vector_9" d="M445.75 330.75H444.25C443.954 330.749 443.661 330.806 443.387 330.919C443.114 331.031 442.865 331.197 442.656 331.406C442.447 331.615 442.281 331.864 442.169 332.138C442.056 332.411 441.999 332.704 442 333V333.75C442.001 334.046 441.944 334.339 441.831 334.613C441.719 334.886 441.553 335.135 441.344 335.344C441.135 335.553 440.886 335.719 440.613 335.831C440.339 335.944 440.046 336.001 439.75 336" stroke="#4CA9FF" stroke-width="1.5" stroke-linecap="round" stroke-linejoin="round"/>
<path id="Vector_10" d="M446.481 321C446.041 320.31 445.434 319.743 444.716 319.35C443.998 318.957 443.193 318.75 442.375 318.75C442.011 319.38 441.793 320.083 441.736 320.808C441.679 321.533 441.785 322.262 442.047 322.941C441.534 323.696 441.257 324.587 441.25 325.5V326.25C441.25 327.443 441.724 328.588 442.568 329.432C443.412 330.276 444.557 330.75 445.75 330.75H450.25C451.443 330.75 452.588 330.276 453.432 329.432C454.276 328.588 454.75 327.443 454.75 326.25V325.5C454.743 324.587 454.466 323.696 453.953 322.941C454.215 322.262 454.321 321.533 454.264 320.808C454.207 320.083 453.989 319.38 453.625 318.75C452.807 318.75 452.002 318.957 451.284 319.35C450.566 319.743 449.959 320.31 449.519 321H446.481Z" stroke="#4CA9FF" stroke-width="1.5" stroke-linecap="round" stroke-linejoin="round"/>
</g>
</g>
<g id="icon-01">
<circle id="ellipse-01" cx="158" cy="24" r="23.5" fill="#00000A" stroke="#5390E3"/>
<g id="LinkedinLogo">
<path id="Vector_11" d="M165.875 15.375H150.125C149.711 15.375 149.375 15.7108 149.375 16.125V31.875C149.375 32.2892 149.711 32.625 150.125 32.625H165.875C166.289 32.625 166.625 32.2892 166.625 31.875V16.125C166.625 15.7108 166.289 15.375 165.875 15.375Z" stroke="#4CA9FF" stroke-width="1.5" stroke-linecap="round" stroke-linejoin="round"/>
<path id="Vector_12" d="M157.25 22.5V28.5" stroke="#4CA9FF" stroke-width="1.5" stroke-linecap="round" stroke-linejoin="round"/>
<path id="Vector_13" d="M154.25 22.5V28.5" stroke="#4CA9FF" stroke-width="1.5" stroke-linecap="round" stroke-linejoin="round"/>
<path id="Vector_14" d="M157.25 25.125C157.25 24.4288 157.527 23.7611 158.019 23.2688C158.511 22.7766 159.179 22.5 159.875 22.5C160.571 22.5 161.239 22.7766 161.731 23.2688C162.223 23.7611 162.5 24.4288 162.5 25.125V28.5" stroke="#4CA9FF" stroke-width="1.5" stroke-linecap="round" stroke-linejoin="round"/>
<path id="Vector_15" d="M154.25 20.625C154.871 20.625 155.375 20.1213 155.375 19.5C155.375 18.8787 154.871 18.375 154.25 18.375C153.629 18.375 153.125 18.8787 153.125 19.5C153.125 20.1213 153.629 20.625 154.25 20.625Z" fill="#4CA9FF"/>
</g>
</g>
<g id="icon-05">
<circle id="ellipse-05" r="23.5" transform="matrix(-1 0 0 1 314 452)" fill="#00000A" stroke="#5390E3"/>
<g id="LinkedinLogo_2">
<path id="Vector_16" d="M321.875 443.375H306.125C305.711 443.375 305.375 443.711 305.375 444.125V459.875C305.375 460.289 305.711 460.625 306.125 460.625H321.875C322.289 460.625 322.625 460.289 322.625 459.875V444.125C322.625 443.711 322.289 443.375 321.875 443.375Z" stroke="#4CA9FF" stroke-width="1.5" stroke-linecap="round" stroke-linejoin="round"/>
<path id="Vector_17" d="M313.25 450.5V456.5" stroke="#4CA9FF" stroke-width="1.5" stroke-linecap="round" stroke-linejoin="round"/>
<path id="Vector_18" d="M310.25 450.5V456.5" stroke="#4CA9FF" stroke-width="1.5" stroke-linecap="round" stroke-linejoin="round"/>
<path id="Vector_19" d="M313.25 453.125C313.25 452.429 313.527 451.761 314.019 451.269C314.511 450.777 315.179 450.5 315.875 450.5C316.571 450.5 317.239 450.777 317.731 451.269C318.223 451.761 318.5 452.429 318.5 453.125V456.5" stroke="#4CA9FF" stroke-width="1.5" stroke-linecap="round" stroke-linejoin="round"/>
<path id="Vector_20" d="M310.25 448.625C310.871 448.625 311.375 448.121 311.375 447.5C311.375 446.879 310.871 446.375 310.25 446.375C309.629 446.375 309.125 446.879 309.125 447.5C309.125 448.121 309.629 448.625 310.25 448.625Z" fill="#4CA9FF"/>
</g>
</g>
<g id="icon-03">
<circle id="ellipse-03" cx="24" cy="327" r="23.5" fill="#00000A" stroke="#5390E3"/>
<g id="BehanceLogo">
<path id="Vector_21" d="M27.75 322.5H33.75" stroke="#4CA9FF" stroke-width="1.5" stroke-linecap="round" stroke-linejoin="round"/>
<path id="Vector_22" d="M27 329.25H34.5C34.4984 328.385 34.1971 327.547 33.6473 326.879C33.0975 326.212 32.3332 325.755 31.4846 325.587C30.6359 325.419 29.7554 325.551 28.9929 325.96C28.2304 326.368 27.633 327.028 27.3025 327.828C26.972 328.627 26.9288 329.516 27.1802 330.344C27.4317 331.172 27.9622 331.887 28.6815 332.367C29.4008 332.848 30.2644 333.064 31.1253 332.98C31.9862 332.895 32.7912 332.515 33.4031 331.903" stroke="#4CA9FF" stroke-width="1.5" stroke-linecap="round" stroke-linejoin="round"/>
<path id="Vector_23" d="M15 326.625H21.1875C22.0329 326.625 22.8436 326.961 23.4414 327.559C24.0392 328.156 24.375 328.967 24.375 329.812C24.375 330.658 24.0392 331.469 23.4414 332.066C22.8436 332.664 22.0329 333 21.1875 333H15V321H20.0625C20.8084 321 21.5238 321.296 22.0512 321.824C22.5787 322.351 22.875 323.067 22.875 323.812C22.875 324.558 22.5787 325.274 22.0512 325.801C21.5238 326.329 20.8084 326.625 20.0625 326.625" stroke="#4CA9FF" stroke-width="1.5" stroke-linecap="round" stroke-linejoin="round"/>
</g>
</g>
<g id="icon-07">
<circle id="ellipse-08" r="23.5" transform="matrix(-1 0 0 1 448 155)" fill="#00000A" stroke="#5390E3"/>
<g id="BehanceLogo_2">
<path id="Vector_24" d="M451.75 150.5H457.75" stroke="#4CA9FF" stroke-width="1.5" stroke-linecap="round" stroke-linejoin="round"/>
<path id="Vector_25" d="M451 157.25H458.5C458.498 156.385 458.197 155.547 457.647 154.879C457.097 154.212 456.333 153.755 455.485 153.587C454.636 153.419 453.755 153.551 452.993 153.96C452.23 154.368 451.633 155.028 451.303 155.828C450.972 156.627 450.929 157.516 451.18 158.344C451.432 159.172 451.962 159.887 452.681 160.367C453.401 160.848 454.264 161.064 455.125 160.98C455.986 160.895 456.791 160.515 457.403 159.903" stroke="#4CA9FF" stroke-width="1.5" stroke-linecap="round" stroke-linejoin="round"/>
<path id="Vector_26" d="M439 154.625H445.188C446.033 154.625 446.844 154.961 447.441 155.559C448.039 156.156 448.375 156.967 448.375 157.812C448.375 158.658 448.039 159.469 447.441 160.066C446.844 160.664 446.033 161 445.188 161H439V149H444.062C444.808 149 445.524 149.296 446.051 149.824C446.579 150.351 446.875 151.067 446.875 151.812C446.875 152.558 446.579 153.274 446.051 153.801C445.524 154.329 444.808 154.625 444.062 154.625" stroke="#4CA9FF" stroke-width="1.5" stroke-linecap="round" stroke-linejoin="round"/>
</g>
</g>
<g id="icon-04">
<circle id="ellipse-04" cx="158" cy="452" r="23.5" fill="#00000A" stroke="#5390E3"/>
<g id="DribbbleLogo">
<path id="Vector_27" d="M158 461C162.971 461 167 456.971 167 452C167 447.029 162.971 443 158 443C153.029 443 149 447.029 149 452C149 456.971 153.029 461 158 461Z" stroke="#4CA9FF" stroke-width="1.5" stroke-linecap="round" stroke-linejoin="round"/>
<path id="Vector_28" d="M152.656 459.247C153.992 457.036 155.877 455.207 158.127 453.937C160.377 452.668 162.916 452 165.5 452C166.006 452 166.503 452.028 167 452.075" stroke="#4CA9FF" stroke-width="1.5" stroke-linecap="round" stroke-linejoin="round"/>
<path id="Vector_29" d="M163.625 444.978C162.219 446.704 160.447 448.096 158.436 449.051C156.425 450.006 154.226 450.501 152 450.5C151.053 450.499 150.109 450.411 149.178 450.237" stroke="#4CA9FF" stroke-width="1.5" stroke-linecap="round" stroke-linejoin="round"/>
<path id="Vector_30" d="M154.053 443.909C156.844 445.554 159.029 448.056 160.284 451.042C161.539 454.028 161.797 457.34 161.019 460.484" stroke="#4CA9FF" stroke-width="1.5" stroke-linecap="round" stroke-linejoin="round"/>
</g>
</g>
<g id="icon-08">
<circle id="ellipse-09" r="23.5" transform="matrix(-1 0 0 1 314 24)" fill="#00000A" stroke="#5390E3"/>
<g id="DribbbleLogo_2">
<path id="Vector_31" d="M314 33C318.971 33 323 28.9706 323 24C323 19.0294 318.971 15 314 15C309.029 15 305 19.0294 305 24C305 28.9706 309.029 33 314 33Z" stroke="#4CA9FF" stroke-width="1.5" stroke-linecap="round" stroke-linejoin="round"/>
<path id="Vector_32" d="M308.656 31.2469C309.992 29.0357 311.877 27.2068 314.127 25.9373C316.377 24.6677 318.916 24.0004 321.5 24C322.006 24 322.503 24.0281 323 24.075" stroke="#4CA9FF" stroke-width="1.5" stroke-linecap="round" stroke-linejoin="round"/>
<path id="Vector_33" d="M319.625 16.9781C318.219 18.7044 316.447 20.0958 314.436 21.051C312.425 22.0062 310.226 22.5012 308 22.5C307.053 22.4989 306.109 22.4111 305.178 22.2375" stroke="#4CA9FF" stroke-width="1.5" stroke-linecap="round" stroke-linejoin="round"/>
<path id="Vector_34" d="M310.053 15.9094C312.844 17.5543 315.029 20.0559 316.284 23.0421C317.539 26.0284 317.797 29.3399 317.019 32.4844" stroke="#4CA9FF" stroke-width="1.5" stroke-linecap="round" stroke-linejoin="round"/>
</g>
</g>
</g>
<g id="icons-md">
<circle id="circle-md" cx="236" cy="241" r="121.5" stroke="#5390E3"/>
<g id="icon-09">
<circle id="ellipse-10" cx="158" cy="155" r="23.5" fill="#00000A" stroke="#5390E3"/>
<g id="InstagramLogo">
<path id="Vector_35" d="M158 158.75C160.071 158.75 161.75 157.071 161.75 155C161.75 152.929 160.071 151.25 158 151.25C155.929 151.25 154.25 152.929 154.25 155C154.25 157.071 155.929 158.75 158 158.75Z" stroke="#4CA9FF" stroke-width="1.5" stroke-miterlimit="10"/>
<path id="Vector_36" d="M162.125 146.375H153.875C151.39 146.375 149.375 148.39 149.375 150.875V159.125C149.375 161.61 151.39 163.625 153.875 163.625H162.125C164.61 163.625 166.625 161.61 166.625 159.125V150.875C166.625 148.39 164.61 146.375 162.125 146.375Z" stroke="#4CA9FF" stroke-width="1.5" stroke-linecap="round" stroke-linejoin="round"/>
<path id="Vector_37" d="M162.875 151.25C163.496 151.25 164 150.746 164 150.125C164 149.504 163.496 149 162.875 149C162.254 149 161.75 149.504 161.75 150.125C161.75 150.746 162.254 151.25 162.875 151.25Z" fill="#4CA9FF"/>
</g>
</g>
<g id="icon-11">
<circle id="ellipse-13" cx="320" cy="327" r="23.5" fill="#00000A" stroke="#5390E3"/>
<g id="InstagramLogo_2">
<path id="Vector_38" d="M320 330.75C322.071 330.75 323.75 329.071 323.75 327C323.75 324.929 322.071 323.25 320 323.25C317.929 323.25 316.25 324.929 316.25 327C316.25 329.071 317.929 330.75 320 330.75Z" stroke="#4CA9FF" stroke-width="1.5" stroke-miterlimit="10"/>
<path id="Vector_39" d="M324.125 318.375H315.875C313.39 318.375 311.375 320.39 311.375 322.875V331.125C311.375 333.61 313.39 335.625 315.875 335.625H324.125C326.61 335.625 328.625 333.61 328.625 331.125V322.875C328.625 320.39 326.61 318.375 324.125 318.375Z" stroke="#4CA9FF" stroke-width="1.5" stroke-linecap="round" stroke-linejoin="round"/>
<path id="Vector_40" d="M324.875 323.25C325.496 323.25 326 322.746 326 322.125C326 321.504 325.496 321 324.875 321C324.254 321 323.75 321.504 323.75 322.125C323.75 322.746 324.254 323.25 324.875 323.25Z" fill="#4CA9FF"/>
</g>
</g>
<g id="icon-10">
<circle id="ellipse-11" cx="158" cy="327" r="23.5" fill="#00000A" stroke="#5390E3"/>
<g id="FacebookLogo">
<path id="Vector_41" d="M158 336C162.971 336 167 331.971 167 327C167 322.029 162.971 318 158 318C153.029 318 149 322.029 149 327C149 331.971 153.029 336 158 336Z" stroke="#0CA7EA" stroke-width="1.5" stroke-linecap="round" stroke-linejoin="round"/>
<path id="Vector_42" d="M161.75 323.25H160.25C159.954 323.249 159.661 323.306 159.388 323.419C159.114 323.531 158.865 323.697 158.656 323.906C158.447 324.115 158.281 324.364 158.169 324.637C158.056 324.911 157.999 325.204 158 325.5V336" stroke="#0CA7EA" stroke-width="1.5" stroke-linecap="round" stroke-linejoin="round"/>
<path id="Vector_43" d="M155 328.5H161" stroke="#0CA7EA" stroke-width="1.5" stroke-linecap="round" stroke-linejoin="round"/>
</g>
</g>
<g id="icon-12">
<circle id="ellipse-12" cx="320" cy="155" r="23.5" fill="#00000A" stroke="#5390E3"/>
<g id="FacebookLogo_2">
<path id="Vector_44" d="M320 164C324.971 164 329 159.971 329 155C329 150.029 324.971 146 320 146C315.029 146 311 150.029 311 155C311 159.971 315.029 164 320 164Z" stroke="#0CA7EA" stroke-width="1.5" stroke-linecap="round" stroke-linejoin="round"/>
<path id="Vector_45" d="M323.75 151.25H322.25C321.954 151.249 321.661 151.306 321.388 151.419C321.114 151.531 320.865 151.697 320.656 151.906C320.447 152.115 320.281 152.364 320.169 152.637C320.056 152.911 319.999 153.204 320 153.5V164" stroke="#0CA7EA" stroke-width="1.5" stroke-linecap="round" stroke-linejoin="round"/>
<path id="Vector_46" d="M317 156.5H323" stroke="#0CA7EA" stroke-width="1.5" stroke-linecap="round" stroke-linejoin="round"/>
</g>
</g>
</g>
</g>
</svg>
