<svg width="128" height="186" viewBox="0 0 128 186" fill="none" xmlns="http://www.w3.org/2000/svg">
<path fill-rule="evenodd" clip-rule="evenodd" d="M34.542 1.34132C32.9158 3.82812 30.9774 7.58421 29.3041 11.4906C28.9492 12.3194 28.5452 13.2543 28.4064 13.568C27.1046 16.5112 23.6709 25.9204 22.7081 29.1827C22.0294 31.4821 21.0605 35.5583 20.6404 37.8813C20.5766 38.2342 20.4208 39.0684 20.2944 39.7351C19.9273 41.6693 19.2387 45.9084 18.9393 48.0772C18.7878 49.1752 18.5912 50.5757 18.5023 51.1893C18.4134 51.8029 18.3333 52.7975 18.3242 53.3996C18.309 54.419 18.3288 54.4972 18.6135 54.5381C18.8137 54.5669 19.8366 53.9759 21.5808 52.8239C24.0387 51.2004 25.4294 50.2887 32.0835 45.9382C33.4031 45.0754 35.9502 43.407 37.7439 42.2306C39.5375 41.0541 41.9022 39.5043 42.9987 38.7865C44.1911 38.0059 45.0817 37.5124 45.2148 37.5584C45.3374 37.6008 45.8719 38.0597 46.4028 38.5783C47.8569 39.999 53.9093 46.5797 53.9587 46.794C54.0684 47.2699 53.5534 47.0607 51.4236 45.7646C50.1629 44.9973 48.9679 44.2729 48.7681 44.1548C48.1775 43.8056 46.1828 42.5476 45.665 42.1978C45.4016 42.0197 45.0447 41.8741 44.8719 41.8741C44.367 41.8741 41.0037 44.2702 26.9272 54.6579C12.2986 65.453 10.5701 66.706 10.4611 66.5929C10.2331 66.3562 10.0033 55.457 10.0994 49.4319C10.2698 38.7372 11.03 30.5679 12.6006 22.5518C13.1719 19.6355 14.0389 16.1831 14.6955 14.2097C15.2046 12.6797 15.2606 12.3545 15.0143 12.3567C14.7588 12.3592 12.9721 16.0124 11.9811 18.559C9.19128 25.7278 7.20487 33.858 5.8142 43.7992C4.08708 56.1465 3.28591 67.8023 3.66841 75.0214C3.8439 78.3332 3.97235 79.0213 4.41546 79.0213C4.69934 79.0213 6.18949 77.8403 16.1872 69.6917C23.5984 63.6514 25.4185 62.1652 29.1173 59.1329C37.0595 52.6222 44.4042 46.8237 44.9167 46.6596C45.3132 46.5327 46.6187 47.0761 50.2064 48.8622C53.3229 50.4135 53.8097 50.8169 52.3966 50.6772C51.5879 50.5973 47.8846 50.083 46.6386 49.8775C46.1317 49.7939 45.7632 49.8005 45.5788 49.8965C45.189 50.0995 42.7992 52.1822 34.4161 59.6245C33.1727 60.7283 30.82 62.8159 29.188 64.2634C27.556 65.7109 26.1513 66.9605 26.0664 67.0404C25.9814 67.1202 24.3326 68.5973 22.4022 70.3227C14.2253 77.6314 7.81628 83.4489 3.57727 87.4103L0.998535 89.8203V90.4753C0.998535 91.8525 1.9752 99.4903 2.84335 104.903C6.34535 126.735 12.734 145.143 20.8558 156.802C22.1432 158.65 24.8267 162.179 25.0507 162.319C25.3833 162.527 25.2701 162.161 24.672 161.098C21.3907 155.262 17.2999 144.873 15.263 137.202C14.2731 133.475 14.0068 132.376 13.3455 129.288C12.9569 127.473 12.8748 127.029 12.4504 124.439C12.2897 123.459 12.098 122.304 12.0245 121.873C11.6939 119.933 10.9865 113.264 10.7517 109.873C10.5712 107.269 10.5691 96.6379 10.7487 95.2427C10.8219 94.6744 10.9775 94.0226 11.0945 93.7941C11.4002 93.1975 15.0692 89.0538 23.0414 80.3016C24.4014 78.8086 26.5896 76.4016 27.9038 74.953C29.2182 73.5044 30.6189 71.9662 31.0166 71.5348C31.414 71.1035 32.5959 69.788 33.6426 68.6115C34.6894 67.4351 35.5806 66.4405 35.6228 66.4013C35.7907 66.2455 41.2159 60.0158 43.7696 57.0461C45.4651 55.0745 46.6407 53.8271 46.9086 53.7151C47.5395 53.4513 53.5865 53.8311 53.7796 54.1465C53.8828 54.3148 53.7769 54.3617 51.2046 55.2879C49.9062 55.7555 48.7133 56.2248 48.5536 56.3308C48.3941 56.4369 46.3929 59.5001 44.1065 63.138C41.8201 66.7759 39.7441 70.0732 39.4933 70.4653C38.9593 71.3004 29.3506 86.7956 27.5555 89.7163C26.8808 90.8144 25.1122 93.6649 23.6253 96.0508C22.0414 98.5925 20.9219 100.532 20.9219 100.734C20.9219 101.163 21.8396 109.514 22.1324 111.748C23.3749 121.235 24.5328 127.11 27.0648 136.774C27.9298 140.076 30.3377 148.258 31.2616 151.034C34.8733 161.89 39.161 171.492 45.7002 183.369C46.2941 184.447 46.7799 185.394 46.7799 185.472C46.7799 185.551 46.8435 185.615 46.9212 185.615C46.9989 185.615 47.0625 185.574 47.0625 185.524C47.0625 185.474 46.6219 184.271 46.0834 182.85C44.149 177.747 40.524 166.946 39.7126 163.868C39.6506 163.633 39.4327 162.895 39.2282 162.228C39.0239 161.562 38.7361 160.567 38.5888 160.018C38.3428 159.1 37.8819 157.424 37.1778 154.885C36.9466 154.051 36.0736 150.611 35.8389 149.608C35.8021 149.451 35.5814 148.521 35.3484 147.541C33.8445 141.212 32.4068 133.841 31.7322 129.003C31.1009 124.474 30.3999 116.211 30.0265 108.896C29.6982 102.465 29.6564 102.804 31.1595 99.6983C31.8427 98.2866 32.7034 96.4898 33.0722 95.7055C33.8502 94.0502 38.2925 84.7557 42.6136 75.7415C48.1477 64.1975 50.181 60.0634 50.4951 59.7172C51.033 59.1245 53.7281 57.4006 54.0453 57.4463C54.2314 57.4732 54.4569 57.7245 54.6591 58.1305C55.0547 58.925 56.247 61.5581 56.247 61.6374C56.247 61.6695 55.2412 63.2197 54.0121 65.0823C50.8411 69.887 50.8331 69.9028 50.7605 71.436C50.6327 74.1322 51.5226 80.9142 53.0083 88.5674C55.1611 99.6575 57.2443 107.014 60.2787 114.241L60.5171 114.808L60.7767 114.298C61.1052 113.652 61.9113 112.934 62.7396 112.549C63.7142 112.098 65.2501 112.142 66.3021 112.652C67.0364 113.008 67.8065 113.714 68.2057 114.397C68.2937 114.548 68.4103 114.628 68.465 114.576C68.811 114.244 70.9122 108.441 72.071 104.618C72.6502 102.707 74.1953 96.7871 74.4717 95.4203C74.5509 95.0282 74.7106 94.2902 74.8266 93.7804C75.0325 92.8749 76.3148 86.3547 76.5934 84.7966C76.7288 84.0396 77.0262 82.2244 77.3062 80.4473C77.8414 77.0479 78.2125 72.87 78.1208 71.2726C78.0415 69.891 77.9566 69.7287 74.8803 65.0815C73.6469 63.2183 72.6379 61.6686 72.6379 61.6376C72.6379 61.6066 72.8844 61.0453 73.186 60.3905C73.4874 59.7357 73.8748 58.8677 74.0468 58.4614C74.5936 57.1705 74.6623 57.1556 76.076 58.0224C78.4852 59.4994 78.3003 59.2399 81.2257 65.2516C82.6593 68.1976 84.1676 71.3138 84.5776 72.1765C84.9875 73.0393 85.9102 74.9644 86.628 76.4545C87.3458 77.9447 88.3618 80.0623 88.8857 81.1603C89.4097 82.2584 90.7135 84.9856 91.783 87.2208C92.8526 89.4561 94.1242 92.1191 94.609 93.1387C95.0936 94.1583 96.2728 96.6289 97.229 98.6288C98.6083 101.513 98.9812 102.422 99.0328 103.025C99.2107 105.102 98.3815 118.123 97.6373 124.939C96.7467 133.095 94.4883 144.559 91.8502 154.314C91.5533 155.412 91.1834 156.792 91.0283 157.38C90.6494 158.816 89.383 163.281 89.1276 164.082C89.015 164.435 88.6883 165.494 88.4015 166.435C86.8893 171.398 84.0216 179.736 82.2953 184.189C81.8851 185.247 81.7184 185.963 81.9633 185.615C82.0459 185.497 82.6599 184.406 83.3275 183.191C88.1026 174.495 91.5081 167.326 94.6403 159.376C96.3676 154.993 98.9281 147.427 99.587 144.76C99.6257 144.603 99.7824 144.058 99.935 143.548C100.183 142.718 101.253 138.908 101.817 136.846C102.248 135.269 102.855 132.886 103.217 131.356C103.421 130.493 103.679 129.402 103.791 128.931C104.369 126.498 104.769 124.445 105.774 118.735C106.147 116.615 106.925 110.686 107.41 106.258C107.496 105.474 107.655 104.097 107.764 103.198C108.109 100.365 108.362 101.043 104.835 95.3429C102.111 90.9386 100.979 89.1146 98.7331 85.5096C97.8614 84.1106 91.544 73.9214 90.8201 72.7469C87.8193 67.8784 80.7413 56.7163 80.4986 56.47C80.3313 56.3002 79.2553 55.8325 78.0779 55.4178C76.9122 55.0072 75.7836 54.6091 75.5699 54.5331C75.3561 54.4571 75.1813 54.3132 75.1813 54.2132C75.1813 53.9708 75.7366 53.8955 79.0217 53.6927C81.5313 53.5379 81.8364 53.5437 82.1525 53.7528C82.3451 53.8801 83.5091 55.1578 84.739 56.5921C89.7119 62.3911 94.7398 68.0721 100.615 74.5302C104.288 78.5669 110.976 85.9317 112.981 88.1477C115.841 91.3082 117.63 93.4557 117.886 94.037C118.119 94.567 118.172 95.1903 118.276 98.6391C118.385 102.272 118.284 108.144 118.064 110.992C117.921 112.841 117.574 116.462 117.438 117.523C117.368 118.072 117.235 119.131 117.143 119.876C116.414 125.794 114.52 134.643 112.84 139.983C112.216 141.966 110.904 145.941 110.793 146.186C110.722 146.343 110.5 146.942 110.301 147.518C109.1 150.982 105.874 158.187 104.167 161.217C102.761 163.712 104.562 161.891 107.04 158.311C112.196 150.865 116.476 141.938 119.774 131.754C122.634 122.925 125.216 111.413 126.689 100.932C127.133 97.7751 127.698 92.9532 127.825 91.2413L127.924 89.9141L126.988 88.9973C125.955 87.9849 120.323 82.7701 117.995 80.6708C117.179 79.9348 115.431 78.3563 114.11 77.1627C111.008 74.361 107.571 71.2692 106.329 70.1633C105.79 69.6835 104.169 68.2396 102.728 66.9548C95.7532 60.7392 91.3523 56.8352 87.9598 53.8547C86.4883 52.5621 85.2525 51.4712 85.2136 51.4305C84.9459 51.1515 83.5364 50.0189 83.3061 49.8979C83.1228 49.8016 82.7503 49.7929 82.2463 49.8734C80.0595 50.2224 76.4767 50.7163 76.1351 50.7158C75.9088 50.7155 75.7465 50.6371 75.7465 50.528C75.7465 50.3245 82.374 46.9878 83.3213 46.7143C83.8231 46.5696 83.9573 46.582 84.3104 46.8057C85.4764 47.5448 93.1629 53.7096 105.632 63.9062C113.773 70.564 119.764 75.4312 122.263 77.4179C124.41 79.1253 124.786 79.2904 124.983 78.6161C125.176 77.956 125.347 72.0049 125.267 68.7542C125.22 66.8718 125.057 63.5671 124.906 61.4103C124.528 56.0438 124.483 55.5598 123.793 49.5032C123.581 47.6375 123.106 44.0278 122.864 42.4345C122.739 41.6164 122.583 40.5942 122.517 40.1629C122.452 39.7315 122.334 39.0577 122.257 38.6656C122.179 38.2734 122.041 37.5355 121.949 37.0257C120.774 30.4813 118.999 23.9595 116.981 18.7729C116.088 16.4776 114.529 13.2008 114.063 12.6411L113.766 12.2846L113.761 12.6074C113.758 12.785 113.818 13.0416 113.893 13.1778C114.201 13.734 115.641 19.0435 116.087 21.2684C118.048 31.0456 118.754 39.151 118.766 51.9987C118.772 59.9817 118.615 66.4931 118.412 66.6199C118.312 66.682 117.597 66.1755 113.472 63.1215C112.784 62.6117 110.961 61.2712 109.421 60.1425C107.881 59.014 106.145 57.7306 105.563 57.2905C104.982 56.8506 104.367 56.3943 104.197 56.2767C103.715 55.9431 99.4314 52.8086 99.273 52.674C99.1953 52.6078 98.019 51.7386 96.659 50.7421C95.2989 49.7456 93.8888 48.7062 93.5252 48.4324C93.1618 48.1586 92.2853 47.5175 91.5776 47.0077C90.87 46.4979 89.8957 45.7893 89.4126 45.4331C86.9327 43.6047 84.3546 41.8741 84.1109 41.8741C83.8551 41.8741 83.0528 42.3455 77.3405 45.8525C75.3528 47.0727 74.8143 47.2823 74.9262 46.7921C74.9751 46.5776 81.3407 39.6692 82.6442 38.416C83.1274 37.9513 83.6255 37.5961 83.7938 37.5961C83.957 37.5961 85.1856 38.3199 86.5243 39.2046C87.8629 40.0893 90.183 41.6133 91.6801 42.5913C101.791 49.197 104.277 50.8242 107.308 52.8232C109.032 53.9597 110.08 54.5656 110.275 54.5375C110.688 54.4782 110.729 53.7943 110.446 51.7135C110.324 50.8115 110.157 49.5602 110.076 48.9328C109.77 46.561 109.047 42.143 108.444 38.9508C107.266 32.7137 106.225 28.8473 104.316 23.6213C104.158 23.1899 103.764 22.099 103.44 21.1971C102.342 18.1396 100.372 13.2277 99.3322 10.9556C99.1053 10.4599 98.9198 10.0247 98.9198 9.98816C98.9198 9.95179 98.3092 8.68893 97.5629 7.18179C96.3881 4.8095 94.4431 1.34475 93.7833 0.449077C93.247 -0.279324 93.4535 0.580554 94.3733 2.90465C98.313 12.8583 100.944 23.0524 102.301 33.6235C102.589 35.8676 102.703 36.8262 103.089 40.2342C103.512 43.966 103.566 44.3965 103.66 44.7716C103.726 45.0378 103.699 45.1539 103.573 45.1539C103.408 45.1539 101.677 44.0584 94.2105 39.2263C92.8249 38.3297 91.6328 37.5961 91.5611 37.5961C91.4895 37.5961 91.4308 37.5319 91.4308 37.4535C91.4308 37.375 91.3719 37.3109 91.2999 37.3109C91.2279 37.3109 90.7987 37.0625 90.3461 36.759C89.8935 36.4554 89.0464 35.8984 88.4635 35.521C87.8807 35.1436 87.139 34.6541 86.8155 34.4331C86.492 34.2119 86.2013 34.0311 86.1697 34.0311C86.1381 34.0311 85.5807 33.6781 84.931 33.2468C84.2813 32.8154 83.6313 32.4625 83.4866 32.4625C83.2224 32.4625 78.8226 36.9085 75.2663 40.7689C73.0372 43.1887 72.8969 43.2439 73.3627 41.5176C73.5108 40.9686 73.6469 40.1664 73.6648 39.7351C73.6935 39.0489 73.6322 38.8438 73.1738 38.0952C72.4629 36.9341 70.9365 35.1924 69.5861 34.0013C68.4266 32.9787 67.3149 32.2255 67.1745 32.3672C67.1298 32.4121 67.3238 32.7661 67.6056 33.1534C68.5502 34.452 69.2467 36.3997 69.2467 37.7428C69.2467 38.5449 68.9111 39.7361 68.5626 40.1704L68.3049 40.4914L66.3869 40.2313C64.6982 40.0023 64.3026 39.993 63.0779 40.1533C62.313 40.2534 61.3959 40.3678 61.0401 40.4074L60.3931 40.4797L60.0597 39.7152C59.24 37.8345 59.7893 35.0139 61.3692 32.9907C62.6005 31.4137 60.2407 32.9487 58.2013 35.0514C56.7712 36.5256 55.7539 37.8412 55.3642 38.7198C55.1165 39.2783 55.1046 39.4367 55.2528 40.2171C55.344 40.697 55.5096 41.4062 55.6208 41.7931C55.7321 42.1798 55.8231 42.5487 55.8231 42.613C55.8231 43.0063 55.2203 42.5011 53.6228 40.7689C50.1698 37.0251 45.6725 32.4625 45.4351 32.4625C45.2445 32.4625 39.6952 35.9395 38.1466 37.0292C37.9445 37.1714 37.3722 37.5416 36.8749 37.852C36.3773 38.1623 34.5397 39.3395 32.7911 40.468C31.0425 41.5964 29.1152 42.8396 28.508 43.2308C27.901 43.6218 26.9934 44.2144 26.4913 44.5478C25.4468 45.241 25.0811 45.3228 25.2169 44.833C25.2658 44.6565 25.5267 42.5871 25.7966 40.2342C26.5547 33.6245 26.5659 33.5371 27.1343 29.7531C27.7768 25.4759 29.6529 17.037 30.5265 14.4949C30.5939 14.2988 30.7597 13.7534 30.895 13.2828C31.7356 10.3585 33.2766 5.94217 34.4528 3.08689C35.4158 0.749392 35.5845 0.234036 35.3864 0.236175C35.319 0.236888 34.939 0.734277 34.542 1.34132Z" fill="#F8FBFF"/>
</svg>
