<svg width="40" height="40" viewBox="0 0 40 40" fill="none" xmlns="http://www.w3.org/2000/svg">
<path fill-rule="evenodd" clip-rule="evenodd" d="M40 20C40 31.0457 31.0457 40 20 40C8.9543 40 0 31.0457 0 20C0 8.9543 8.9543 0 20 0C31.0457 0 40 8.9543 40 20ZM36.3211 25.6906C33.9686 32.4383 27.5498 37.2799 20.0001 37.2799C18.9361 37.2799 17.8946 37.1837 16.8838 36.9996L36.3211 25.6906ZM36.8836 23.6974L15.1578 36.3378C15.0717 36.388 14.9998 36.4532 14.9436 36.5283C13.4096 36.0596 11.9662 35.3832 10.6463 34.5319L30.8571 22.7867C31.0259 22.754 31.1835 22.6611 31.2951 22.513C31.5343 22.1953 31.4706 21.7439 31.153 21.5047L19.8718 13.0103L30.9078 6.59696C34.7965 9.76552 37.2801 14.5927 37.2801 19.9999C37.2801 21.269 37.1433 22.5061 36.8836 23.6974ZM29.6493 5.66282C28.4321 4.84201 27.1047 4.17211 25.694 3.67997L3.03619 16.6929C2.82875 17.7633 2.72009 18.8689 2.72009 19.9999C2.72009 25.5293 5.31716 30.4521 9.35803 33.615L20.6179 27.0716L9.3004 18.9461C9.10459 18.9073 8.92577 18.7877 8.81759 18.6015C8.61779 18.2577 8.73453 17.8171 9.07834 17.6173L18.0834 12.3842C18.1556 12.3202 18.2386 12.2728 18.3269 12.2426L29.6493 5.66282ZM3.53298 14.747L23.76 3.13012C22.5496 2.86154 21.2914 2.71991 20.0001 2.71991C12.2881 2.71991 5.75607 7.77193 3.53298 14.747ZM26.4505 23.6821L29.3855 21.9764L18.5207 13.7955L15.437 15.5875L26.4505 23.6821ZM14.0792 16.3766L10.8248 18.2678L21.9825 26.2786L25.0926 24.4712L14.0792 16.3766Z" fill="#D9D9D9"/>
</svg>
