<svg width="40" height="24" viewBox="0 0 40 24" fill="none" xmlns="http://www.w3.org/2000/svg">
<path d="M20 0C14.6667 0 11.3333 2.66667 10 8C12 5.33333 14.3333 4.33333 17 5C18.5215 5.38037 19.609 6.48415 20.8127 7.706C22.7736 9.69637 25.043 12 30 12C35.3333 12 38.6667 9.33333 40 4C38 6.66667 35.6667 7.66667 33 7C31.4785 6.61963 30.391 5.51585 29.1873 4.294C27.2264 2.30363 24.957 0 20 0ZM10 12C4.66667 12 1.33333 14.6667 0 20C2 17.3333 4.33333 16.3333 7 17C8.52148 17.3804 9.60896 18.4841 10.8127 19.706C12.7736 21.6964 15.043 24 20 24C25.3333 24 28.6667 21.3333 30 16C28 18.6667 25.6667 19.6667 23 19C21.4785 18.6196 20.391 17.5159 19.1873 16.294C17.2264 14.3036 14.957 12 10 12Z" fill="url(#paint0_linear_115_1909)"/>
<defs>
<linearGradient id="paint0_linear_115_1909" x1="-1.11111" y1="7.68" x2="33.4354" y2="27.5987" gradientUnits="userSpaceOnUse">
<stop stop-color="#2298BD"/>
<stop offset="1" stop-color="#0ED7B5"/>
</linearGradient>
</defs>
</svg>
