<svg width="139" height="139" viewBox="0 0 139 139" fill="none" xmlns="http://www.w3.org/2000/svg">
<path d="M16.0165 83.4622L15.2143 83.6639L14.4118 80.4713L15.214 80.2696L16.0165 83.4622ZM16.9239 80.8291L17.1618 81.7757L11.29 83.2516C11.0226 83.3188 10.8318 83.408 10.7176 83.5192C10.6067 83.6323 10.544 83.7561 10.5295 83.8905C10.5183 84.027 10.5302 84.1647 10.5651 84.3037C10.5913 84.408 10.6182 84.4922 10.6457 84.5564C10.6759 84.6199 10.7 84.6707 10.7181 84.7088L9.91622 85.115C9.87602 85.0569 9.82944 84.9734 9.77647 84.8644C9.72083 84.7562 9.67083 84.6138 9.62647 84.4373C9.55926 84.17 9.55088 83.8935 9.60134 83.6079C9.65246 83.325 9.77451 83.0697 9.96746 82.8421C10.1611 82.6172 10.4371 82.4597 10.7954 82.3696L16.9239 80.8291Z" fill="white"/>
<path d="M11.7138 90.9796C11.565 90.6056 11.5004 90.2382 11.52 89.8773C11.5421 89.5153 11.652 89.1912 11.8496 88.9048C12.0498 88.6175 12.342 88.3973 12.7263 88.2444C13.0644 88.1099 13.365 88.0674 13.6281 88.117C13.8937 88.1656 14.1311 88.2774 14.3402 88.4524C14.5492 88.6273 14.7368 88.8376 14.9027 89.0831C15.0723 89.3302 15.2295 89.5836 15.3744 89.8434C15.5632 90.1837 15.7135 90.4607 15.8253 90.6744C15.9406 90.8896 16.0481 91.0368 16.1478 91.1158C16.2485 91.1974 16.3719 91.2091 16.5179 91.151L16.5486 91.1388C16.9278 90.9879 17.1811 90.7669 17.3086 90.4758C17.4371 90.1873 17.4182 89.8343 17.2521 89.4167C17.0798 88.9838 16.85 88.6821 16.5625 88.5116C16.2751 88.3411 16.0039 88.2487 15.749 88.2345L15.7139 87.2514C16.1337 87.2624 16.4944 87.3562 16.7962 87.5329C17.1015 87.7111 17.3546 87.9368 17.5553 88.21C17.7596 88.4848 17.9208 88.7708 18.0391 89.0679C18.1145 89.2575 18.1781 89.4844 18.2299 89.7487C18.2852 90.0145 18.2896 90.2902 18.243 90.5758C18.1974 90.864 18.0656 91.1405 17.8475 91.4053C17.6295 91.6701 17.2861 91.8958 16.8173 92.0823L12.9286 93.6297L12.5678 92.7229L13.367 92.4048L13.3487 92.3587C13.1961 92.3482 13.0183 92.3003 12.8152 92.2149C12.6121 92.1296 12.4119 91.9882 12.2146 91.7907C12.0174 91.5933 11.8504 91.3229 11.7138 90.9796ZM12.5835 90.7938C12.7262 91.1524 12.9169 91.4267 13.1557 91.6165C13.3955 91.809 13.6518 91.9236 13.9246 91.9604C14.1984 91.9998 14.4583 91.9706 14.7042 91.8727L15.5342 91.5424C15.4728 91.5224 15.3969 91.4547 15.3065 91.3393C15.2196 91.2255 15.1285 91.0897 15.033 90.9318C14.9412 90.7755 14.8534 90.622 14.7697 90.4713C14.6896 90.3222 14.6237 90.2015 14.5722 90.1093C14.4477 89.8858 14.3101 89.6854 14.1593 89.508C14.0122 89.3321 13.8458 89.2084 13.6601 89.1369C13.4779 89.067 13.2716 89.0779 13.041 89.1696C12.7259 89.295 12.5341 89.5064 12.4655 89.8037C12.4004 90.1026 12.4398 90.4326 12.5835 90.7938Z" fill="white"/>
<path d="M12.9508 99.0672L20.4654 94.6153L20.946 95.4265L20.0778 95.9408L20.1369 96.0405C20.2683 96.0459 20.4398 96.0597 20.6516 96.0816C20.867 96.1046 21.094 96.1848 21.3325 96.3223C21.5748 96.4608 21.8013 96.7079 22.0121 97.0638C22.2847 97.5239 22.41 97.9977 22.3879 98.4851C22.3658 98.9724 22.2019 99.4396 21.8963 99.8867C21.5908 100.334 21.151 100.727 20.5769 101.067C19.9981 101.41 19.4381 101.609 18.8969 101.664C18.358 101.717 17.8691 101.638 17.4301 101.427C16.9934 101.215 16.6402 100.881 16.3704 100.425C16.1624 100.074 16.054 99.7588 16.0451 99.4788C16.0387 99.1974 16.0764 98.9555 16.1584 98.7532C16.2428 98.5494 16.3165 98.3871 16.3796 98.2664L16.3374 98.1953L13.4483 99.9069L12.9508 99.0672ZM18.2219 97.0596C17.8091 97.3041 17.4808 97.5803 17.237 97.8882C16.9956 98.1947 16.8548 98.5168 16.8146 98.8547C16.7768 99.1911 16.8577 99.5278 17.0572 99.8646C17.2652 100.216 17.5312 100.454 17.8554 100.579C18.1833 100.705 18.5401 100.734 18.9259 100.666C19.3154 100.599 19.7047 100.45 20.0937 100.219C20.478 99.9915 20.7891 99.727 21.0272 99.4258C21.2691 99.1254 21.4099 98.8033 21.4497 98.4593C21.4932 98.1162 21.4096 97.7668 21.1988 97.411C20.9964 97.0694 20.7398 96.8337 20.4289 96.7038C20.1204 96.5726 19.7769 96.539 19.3982 96.603C19.022 96.6657 18.6298 96.8179 18.2219 97.0596Z" fill="white"/>
<path d="M28.0591 109.192L25.3962 111.933L24.6962 111.253L30.5985 105.178L31.2985 105.859L29.1312 108.089L29.1906 108.147C29.526 108.015 29.8677 107.984 30.2157 108.053C30.5677 108.122 30.9226 108.33 31.2805 108.678C31.5909 108.98 31.8023 109.306 31.9146 109.658C32.0288 110.007 32.0262 110.371 31.9069 110.751C31.7915 111.131 31.5435 111.517 31.1631 111.909L28.3503 114.803L27.6503 114.123L30.417 111.276C30.7686 110.914 30.9466 110.543 30.9509 110.163C30.9591 109.782 30.798 109.432 30.4678 109.111C30.2385 108.888 29.9857 108.737 29.7097 108.657C29.4356 108.579 29.1559 108.582 28.8705 108.666C28.587 108.752 28.3166 108.927 28.0591 109.192Z" fill="white"/>
<path d="M34.2896 119.608C33.788 119.257 33.4327 118.844 33.2238 118.368C33.0186 117.891 32.9576 117.384 33.0407 116.847C33.1276 116.309 33.3574 115.773 33.7303 115.24C34.1031 114.707 34.5289 114.305 35.0076 114.034C35.4901 113.762 35.9863 113.635 36.4961 113.652C37.0097 113.668 37.5015 113.84 37.9715 114.169C38.2426 114.358 38.4788 114.591 38.6799 114.866C38.8811 115.141 39.0191 115.456 39.0938 115.811C39.1701 116.164 39.1565 116.551 39.0531 116.974C38.9496 117.396 38.7281 117.85 38.3884 118.336L38.1514 118.675L34.1385 115.869L34.622 115.177L37.8214 117.414C38.0268 117.121 38.1513 116.817 38.195 116.505C38.2409 116.194 38.2031 115.897 38.0817 115.613C37.9625 115.331 37.7583 115.089 37.4691 114.887C37.1505 114.664 36.8195 114.551 36.4762 114.546C36.1367 114.541 35.8172 114.62 35.5175 114.784C35.2179 114.948 34.9678 115.174 34.7671 115.46L34.4448 115.921C34.1699 116.315 34.0047 116.695 33.9491 117.063C33.8973 117.431 33.9437 117.771 34.0882 118.084C34.2343 118.395 34.4689 118.663 34.792 118.889C35.0021 119.036 35.2125 119.139 35.423 119.199C35.6374 119.258 35.8486 119.271 36.0566 119.238C36.2662 119.203 36.4681 119.119 36.6622 118.986L37.2833 119.743C37.0187 119.948 36.7209 120.083 36.3898 120.148C36.0603 120.21 35.7156 120.198 35.3557 120.111C34.9975 120.022 34.6421 119.854 34.2896 119.608Z" fill="white"/>
<path d="M40.6371 123.359L43.5041 117.691L44.3455 118.117L43.9125 118.973L43.9715 119.003C44.2167 118.774 44.5188 118.641 44.8778 118.604C45.2367 118.566 45.586 118.633 45.9255 118.804C45.9895 118.837 46.0688 118.878 46.1635 118.929C46.2582 118.98 46.3289 119.021 46.3757 119.051L45.9277 119.936C45.9019 119.914 45.8398 119.869 45.7415 119.8C45.6469 119.731 45.5418 119.667 45.4261 119.609C45.1506 119.469 44.8753 119.403 44.6003 119.409C44.329 119.414 44.0796 119.485 43.8521 119.623C43.6283 119.761 43.4517 119.957 43.3223 120.213L41.508 123.8L40.6371 123.359Z" fill="white"/>
<path d="M50.1302 127.586C49.5504 127.39 49.0936 127.093 48.7597 126.695C48.4294 126.295 48.2289 125.825 48.1581 125.286C48.0908 124.745 48.1615 124.166 48.3701 123.55C48.5787 122.934 48.8748 122.429 49.2585 122.035C49.6457 121.639 50.0863 121.377 50.5804 121.251C51.0779 121.122 51.5983 121.15 52.1415 121.334C52.4549 121.44 52.7467 121.597 53.0169 121.805C53.2871 122.013 53.5077 122.276 53.6789 122.596C53.8509 122.914 53.9464 123.289 53.9654 123.724C53.9843 124.158 53.8987 124.656 53.7087 125.217L53.5761 125.609L48.938 124.039L49.2085 123.24L52.9064 124.492C53.0213 124.152 53.056 123.826 53.0103 123.514C52.9673 123.202 52.8478 122.928 52.6518 122.69C52.4585 122.452 52.1947 122.277 51.8604 122.164C51.4922 122.04 51.1426 122.023 50.8118 122.115C50.4844 122.205 50.1999 122.371 49.9581 122.612C49.7164 122.853 49.5394 123.14 49.4271 123.471L49.2468 124.004C49.093 124.458 49.041 124.87 49.0908 125.239C49.144 125.607 49.2838 125.92 49.5102 126.18C49.7374 126.438 50.0378 126.629 50.4112 126.756C50.6541 126.838 50.885 126.878 51.1038 126.877C51.3261 126.873 51.5325 126.827 51.723 126.737C51.9144 126.645 52.0846 126.507 52.2337 126.325L53.042 126.878C52.8454 127.149 52.5973 127.362 52.2975 127.516C51.9986 127.669 51.6643 127.753 51.2946 127.771C50.9257 127.786 50.5376 127.724 50.1302 127.586Z" fill="white"/>
<path d="M12.0052 73.0315L12.6032 72.8537C12.8675 72.7751 13.0898 72.5947 13.2211 72.3522C13.3525 72.1097 13.3821 71.825 13.3035 71.5606C13.2249 71.2963 13.0445 71.074 12.802 70.9427C12.5596 70.8113 12.2748 70.7817 12.0105 70.8603L15.1999 69.912C15.4642 69.8334 15.6865 69.653 15.8178 69.4105C15.9492 69.1681 15.9788 68.8833 15.9002 68.619C15.8216 68.3547 15.6412 68.1324 15.3987 68.001C15.1563 67.8697 14.8715 67.8401 14.6072 67.9186L8.56232 69.7159L10.1315 68.0615C10.3215 67.8612 10.4242 67.5936 10.4169 67.3175C10.4096 67.0415 10.2929 66.7797 10.0926 66.5897C9.89221 66.3997 9.62458 66.297 9.34855 66.3043C9.07253 66.3116 8.81071 66.4283 8.62069 66.6286C5.68013 69.2712 4.77748 70.6135 5.43239 72.8161C5.58806 73.3397 5.84532 73.8274 6.18948 74.2516C6.53365 74.6757 6.95798 75.0279 7.43825 75.288C7.91853 75.5481 8.44533 75.7111 8.98859 75.7676C9.53186 75.8242 10.0809 75.7732 10.6045 75.6175L12.5978 75.0248C12.8622 74.9462 13.0845 74.7658 13.2158 74.5234C13.3471 74.2809 13.3768 73.9961 13.2982 73.7318C13.2196 73.4675 13.0392 73.2452 12.7967 73.1138C12.5542 72.9825 12.2695 72.9529 12.0052 73.0315V73.0315Z" stroke="#5390E3" stroke-width="1.08296" stroke-linecap="round" stroke-linejoin="round"/>
<path d="M122.112 54.5436L122.915 54.342L123.717 57.5346L122.915 57.7362L122.112 54.5436ZM121.205 57.1767L120.967 56.2302L126.839 54.7542C127.106 54.687 127.297 54.5978 127.411 54.4867C127.522 54.3735 127.585 54.2497 127.599 54.1153C127.611 53.9789 127.599 53.8411 127.564 53.7021C127.538 53.5978 127.511 53.5136 127.483 53.4494C127.453 53.3859 127.429 53.3352 127.411 53.2971L128.213 52.8908C128.253 52.9489 128.299 53.0325 128.352 53.1414C128.408 53.2496 128.458 53.392 128.502 53.5685C128.57 53.8359 128.578 54.1124 128.528 54.398C128.476 54.6809 128.354 54.9361 128.161 55.1637C127.968 55.3887 127.692 55.5462 127.334 55.6362L121.205 57.1767Z" fill="white"/>
<path d="M126.415 47.0262C126.564 47.4002 126.629 47.7677 126.609 48.1286C126.587 48.4905 126.477 48.8146 126.279 49.101C126.079 49.3883 125.787 49.6085 125.403 49.7614C125.064 49.896 124.764 49.9384 124.501 49.8888C124.235 49.8402 123.998 49.7284 123.789 49.5535C123.58 49.3785 123.392 49.1683 123.226 48.9227C123.057 48.6757 122.899 48.4222 122.754 48.1624C122.566 47.8221 122.415 47.5451 122.304 47.3314C122.188 47.1162 122.081 46.9691 121.981 46.89C121.88 46.8085 121.757 46.7967 121.611 46.8548L121.58 46.8671C121.201 47.0179 120.948 47.2389 120.82 47.53C120.692 47.8185 120.711 48.1715 120.877 48.5891C121.049 49.022 121.279 49.3237 121.566 49.4942C121.854 49.6647 122.125 49.7571 122.38 49.7714L122.415 50.7544C121.995 50.7434 121.634 50.6496 121.333 50.4729C121.027 50.2947 120.774 50.069 120.574 49.7958C120.369 49.521 120.208 49.235 120.09 48.9379C120.014 48.7483 119.951 48.5214 119.899 48.2571C119.844 47.9913 119.839 47.7156 119.886 47.43C119.931 47.1419 120.063 46.8654 120.281 46.6006C120.499 46.3357 120.843 46.1101 121.312 45.9235L125.2 44.3761L125.561 45.2829L124.762 45.601L124.78 45.6471C124.933 45.6576 125.111 45.7055 125.314 45.7909C125.517 45.8762 125.717 46.0176 125.914 46.2151C126.112 46.4126 126.278 46.6829 126.415 47.0262ZM125.545 47.212C125.403 46.8534 125.212 46.5791 124.973 46.3893C124.733 46.1969 124.477 46.0822 124.204 46.0454C123.93 46.006 123.671 46.0352 123.425 46.1331L122.595 46.4634C122.656 46.4835 122.732 46.5512 122.822 46.6665C122.909 46.7803 123 46.9162 123.096 47.074C123.188 47.2303 123.276 47.3838 123.359 47.5345C123.439 47.6836 123.505 47.8043 123.557 47.8966C123.681 48.12 123.819 48.3204 123.97 48.4979C124.117 48.6737 124.283 48.7974 124.469 48.8689C124.651 48.9389 124.857 48.928 125.088 48.8362C125.403 48.7108 125.595 48.4995 125.663 48.2021C125.728 47.9033 125.689 47.5732 125.545 47.212Z" fill="white"/>
<path d="M125.178 38.9386L117.664 43.3906L117.183 42.5793L118.051 42.065L117.992 41.9654C117.861 41.9599 117.689 41.9462 117.477 41.9242C117.262 41.9012 117.035 41.821 116.796 41.6835C116.554 41.545 116.328 41.2979 116.117 40.9421C115.844 40.4819 115.719 40.0081 115.741 39.5208C115.763 39.0334 115.927 38.5662 116.233 38.1192C116.538 37.6722 116.978 37.2786 117.552 36.9385C118.131 36.5956 118.691 36.3969 119.232 36.3422C119.771 36.2889 120.26 36.3678 120.699 36.5788C121.136 36.7911 121.489 37.125 121.759 37.5805C121.967 37.9315 122.075 38.2471 122.084 38.527C122.09 38.8084 122.052 39.0503 121.971 39.2527C121.886 39.4565 121.812 39.6187 121.749 39.7394L121.792 39.8106L124.681 38.0989L125.178 38.9386ZM119.907 40.9462C120.32 40.7017 120.648 40.4255 120.892 40.1176C121.133 39.8112 121.274 39.489 121.314 39.1511C121.352 38.8147 121.271 38.478 121.072 38.1412C120.864 37.7902 120.598 37.552 120.274 37.4268C119.946 37.3006 119.589 37.2717 119.203 37.34C118.814 37.4073 118.424 37.5562 118.035 37.7867C117.651 38.0143 117.34 38.2788 117.102 38.5801C116.86 38.8804 116.719 39.2026 116.679 39.5466C116.636 39.8896 116.719 40.239 116.93 40.5948C117.132 40.9364 117.389 41.1721 117.7 41.302C118.008 41.4333 118.352 41.4669 118.731 41.4028C119.107 41.3401 119.499 41.1879 119.907 40.9462Z" fill="white"/>
<path d="M110.07 28.8135L112.733 26.0729L113.433 26.7531L107.53 32.8275L106.83 32.1473L108.998 29.9169L108.938 29.8592C108.603 29.9908 108.261 30.022 107.913 29.9529C107.561 29.8839 107.206 29.6755 106.848 29.3277C106.538 29.0261 106.327 28.6996 106.214 28.3483C106.1 27.999 106.103 27.6344 106.222 27.2544C106.337 26.8745 106.585 26.4888 106.966 26.0973L109.779 23.2025L110.479 23.8826L107.712 26.73C107.36 27.0918 107.182 27.4629 107.178 27.8431C107.17 28.2235 107.331 28.5741 107.661 28.8949C107.89 29.1178 108.143 29.2692 108.419 29.349C108.693 29.427 108.973 29.4239 109.258 29.3399C109.542 29.2539 109.812 29.0785 110.07 28.8135Z" fill="white"/>
<path d="M103.839 18.3982C104.341 18.7489 104.696 19.1622 104.905 19.638C105.11 20.1144 105.171 20.6214 105.088 21.1587C105.001 21.6968 104.771 22.2325 104.399 22.7657C104.026 23.2989 103.6 23.701 103.121 23.9718C102.639 24.2434 102.143 24.3708 101.633 24.3541C101.119 24.3381 100.627 24.1658 100.157 23.8372C99.8863 23.6477 99.6501 23.4153 99.449 23.14C99.2478 22.8648 99.1099 22.5497 99.0351 22.1947C98.9588 21.8419 98.9724 21.4544 99.0758 21.0322C99.1793 20.61 99.4008 20.156 99.7405 19.6702L99.9775 19.3313L103.99 22.1371L103.507 22.8285L100.307 20.5915C100.102 20.8852 99.9776 21.1884 99.9339 21.501C99.888 21.812 99.9258 22.1093 100.047 22.3927C100.166 22.6745 100.371 22.9165 100.66 23.1187C100.978 23.3415 101.309 23.4551 101.653 23.4597C101.992 23.4649 102.312 23.3856 102.611 23.2217C102.911 23.0578 103.161 22.8323 103.362 22.5454L103.684 22.0844C103.959 21.6913 104.124 21.3106 104.18 20.9424C104.232 20.5749 104.185 20.2346 104.041 19.9217C103.895 19.611 103.66 19.3426 103.337 19.1167C103.127 18.9698 102.916 18.8665 102.706 18.8067C102.492 18.7477 102.28 18.7346 102.072 18.7674C101.863 18.8025 101.661 18.8868 101.467 19.0202L100.846 18.2629C101.11 18.0577 101.408 17.9228 101.739 17.8583C102.069 17.796 102.413 17.8082 102.773 17.895C103.131 17.984 103.487 18.1517 103.839 18.3982Z" fill="white"/>
<path d="M97.4918 14.6464L94.6248 20.3149L93.7834 19.8893L94.2164 19.0331L94.1574 19.0033C93.9122 19.2315 93.6101 19.3645 93.2511 19.4023C92.8922 19.4401 92.5429 19.3731 92.2034 19.2014C92.1394 19.169 92.0601 19.1274 91.9654 19.0764C91.8707 19.0254 91.8 18.985 91.7533 18.9552L92.2012 18.0695C92.227 18.0918 92.2891 18.1371 92.3874 18.2054C92.482 18.2748 92.5871 18.3388 92.7028 18.3973C92.9783 18.5367 93.2536 18.6033 93.5286 18.5972C93.7999 18.5923 94.0493 18.5207 94.2768 18.3824C94.5006 18.2453 94.6772 18.0489 94.8066 17.793L96.6209 14.2059L97.4918 14.6464Z" fill="white"/>
<path d="M87.9988 10.4196C88.5785 10.6158 89.0353 10.913 89.3692 11.3112C89.6995 11.7112 89.9001 12.1808 89.9708 12.7199C90.0381 13.2608 89.9674 13.8394 89.7588 14.4557C89.5502 15.072 89.2541 15.5772 88.8704 15.9713C88.4832 16.3671 88.0426 16.6283 87.5486 16.7551C87.051 16.8836 86.5306 16.8559 85.9874 16.6721C85.674 16.566 85.3822 16.4091 85.112 16.2012C84.8419 15.9933 84.6212 15.7294 84.45 15.4095C84.278 15.0923 84.1825 14.7165 84.1636 14.2822C84.1446 13.8479 84.2302 13.3501 84.4202 12.7886L84.5528 12.3968L89.1909 13.9666L88.9204 14.7657L85.2225 13.5142C85.1076 13.8537 85.0729 14.1796 85.1186 14.4919C85.1616 14.8034 85.2811 15.0781 85.4771 15.3162C85.6704 15.5533 85.9342 15.7285 86.2685 15.8416C86.6367 15.9662 86.9863 15.9827 87.3171 15.8909C87.6445 15.8009 87.929 15.6352 88.1708 15.3939C88.4125 15.1527 88.5895 14.8662 88.7018 14.5345L88.8821 14.0018C89.0359 13.5474 89.0879 13.1356 89.0381 12.7666C88.9849 12.3993 88.8451 12.0857 88.6187 11.8257C88.3915 11.5683 88.0911 11.3764 87.7177 11.25C87.4748 11.1678 87.244 11.1276 87.0251 11.1292C86.8028 11.1325 86.5964 11.1791 86.4059 11.2689C86.2145 11.3613 86.0443 11.4987 85.8953 11.6811L85.087 11.1281C85.2835 10.857 85.5317 10.6441 85.8314 10.4894C86.1303 10.3373 86.4646 10.2525 86.8344 10.2351C87.2032 10.2202 87.5914 10.2817 87.9988 10.4196Z" fill="white"/>
<path d="M126.124 64.9744L125.526 65.1522C125.261 65.2308 125.039 65.4111 124.908 65.6536C124.776 65.8961 124.747 66.1809 124.825 66.4452C124.904 66.7095 125.084 66.9318 125.327 67.0632C125.569 67.1945 125.854 67.2241 126.118 67.1455L122.929 68.0938C122.665 68.1724 122.442 68.3528 122.311 68.5953C122.18 68.8378 122.15 69.1225 122.229 69.3868C122.307 69.6512 122.488 69.8735 122.73 70.0048C122.973 70.1361 123.257 70.1658 123.522 70.0872L129.567 68.2899L127.997 69.9443C127.807 70.1446 127.705 70.4123 127.712 70.6883C127.719 70.9643 127.836 71.2261 128.036 71.4162C128.237 71.6062 128.504 71.7088 128.78 71.7015C129.056 71.6942 129.318 71.5775 129.508 71.3772C132.449 68.7347 133.351 67.3924 132.697 65.1897C132.541 64.6661 132.284 64.1784 131.939 63.7543C131.595 63.3301 131.171 62.978 130.691 62.7178C130.21 62.4577 129.684 62.2947 129.14 62.2382C128.597 62.1816 128.048 62.2327 127.524 62.3883L125.531 62.981C125.267 63.0596 125.044 63.24 124.913 63.4825C124.782 63.725 124.752 64.0097 124.831 64.274C124.909 64.5384 125.09 64.7606 125.332 64.892C125.575 65.0233 125.859 65.053 126.124 64.9744V64.9744Z" stroke="#5390E3" stroke-width="1.08296" stroke-linecap="round" stroke-linejoin="round"/>
<path d="M83.4623 122.112L83.6639 122.915L80.4713 123.717L80.2697 122.915L83.4623 122.112ZM80.8292 121.205L81.7757 120.967L83.2517 126.839C83.3189 127.106 83.4081 127.297 83.5192 127.411C83.6324 127.522 83.7562 127.585 83.8906 127.599C84.027 127.611 84.1647 127.599 84.3038 127.564C84.4081 127.538 84.4923 127.511 84.5565 127.483C84.6199 127.453 84.6707 127.429 84.7088 127.411L85.1151 128.213C85.0569 128.253 84.9734 128.3 84.8645 128.352C84.7562 128.408 84.6139 128.458 84.4374 128.502C84.17 128.57 83.8935 128.578 83.6079 128.528C83.325 128.476 83.0697 128.354 82.8421 128.161C82.6172 127.968 82.4597 127.692 82.3697 127.334L80.8292 121.205Z" fill="white"/>
<path d="M90.9799 126.415C90.6059 126.564 90.2385 126.628 89.8776 126.609C89.5157 126.587 89.1915 126.477 88.9052 126.279C88.6178 126.079 88.3977 125.787 88.2447 125.402C88.1102 125.064 88.0677 124.764 88.1173 124.501C88.1659 124.235 88.2777 123.998 88.4527 123.788C88.6276 123.579 88.8379 123.392 89.0834 123.226C89.3305 123.056 89.5839 122.899 89.8438 122.754C90.184 122.565 90.461 122.415 90.6747 122.303C90.89 122.188 91.0371 122.081 91.1161 121.981C91.1977 121.88 91.2094 121.757 91.1513 121.611L91.1391 121.58C90.9882 121.201 90.7672 120.948 90.4762 120.82C90.1876 120.692 89.8346 120.71 89.417 120.877C88.9841 121.049 88.6824 121.279 88.5119 121.566C88.3414 121.854 88.2491 122.125 88.2348 122.38L87.2517 122.415C87.2627 121.995 87.3565 121.634 87.5332 121.332C87.7114 121.027 87.9371 120.774 88.2104 120.573C88.4851 120.369 88.7711 120.208 89.0683 120.09C89.2578 120.014 89.4847 119.951 89.749 119.899C90.0148 119.843 90.2905 119.839 90.5761 119.886C90.8643 119.931 91.1408 120.063 91.4056 120.281C91.6704 120.499 91.8961 120.843 92.0826 121.311L93.63 125.2L92.7232 125.561L92.4052 124.762L92.359 124.78C92.3485 124.933 92.3006 125.11 92.2153 125.313C92.1299 125.517 91.9885 125.717 91.791 125.914C91.5936 126.111 91.3232 126.278 90.9799 126.415ZM90.7941 125.545C91.1528 125.402 91.427 125.212 91.6169 124.973C91.8093 124.733 91.9239 124.477 91.9607 124.204C92.0001 123.93 91.9709 123.67 91.873 123.424L91.5428 122.594C91.5227 122.656 91.455 122.732 91.3396 122.822C91.2258 122.909 91.09 123 90.9321 123.096C90.7758 123.187 90.6223 123.275 90.4716 123.359C90.3225 123.439 90.2018 123.505 90.1096 123.556C89.8861 123.681 89.6857 123.819 89.5083 123.969C89.3324 124.116 89.2087 124.283 89.1372 124.469C89.0673 124.651 89.0782 124.857 89.1699 125.088C89.2953 125.403 89.5067 125.595 89.804 125.663C90.1029 125.728 90.4329 125.689 90.7941 125.545Z" fill="white"/>
<path d="M99.0674 125.178L94.6155 117.663L95.4268 117.183L95.9411 118.051L96.0407 117.992C96.0462 117.861 96.0599 117.689 96.0819 117.477C96.1049 117.262 96.1851 117.035 96.3226 116.796C96.4611 116.554 96.7082 116.328 97.064 116.117C97.5242 115.844 97.998 115.719 98.4853 115.741C98.9727 115.763 99.4399 115.927 99.8869 116.232C100.334 116.538 100.727 116.978 101.068 117.552C101.41 118.131 101.609 118.691 101.664 119.232C101.717 119.771 101.638 120.26 101.427 120.699C101.215 121.135 100.881 121.489 100.426 121.758C100.075 121.966 99.759 122.075 99.4791 122.084C99.1977 122.09 98.9558 122.052 98.7534 121.97C98.5496 121.886 98.3874 121.812 98.2667 121.749L98.1955 121.791L99.9071 124.681L99.0674 125.178ZM97.0599 119.907C97.3044 120.32 97.5806 120.648 97.8885 120.892C98.1949 121.133 98.5171 121.274 98.855 121.314C99.1914 121.352 99.528 121.271 99.8649 121.072C100.216 120.864 100.454 120.598 100.579 120.273C100.705 119.946 100.734 119.589 100.666 119.203C100.599 118.813 100.45 118.424 100.219 118.035C99.9918 117.651 99.7273 117.34 99.426 117.102C99.1257 116.86 98.8035 116.719 98.4595 116.679C98.1165 116.636 97.7671 116.719 97.4113 116.93C97.0697 117.132 96.834 117.389 96.7041 117.7C96.5728 118.008 96.5392 118.352 96.6033 118.731C96.666 119.107 96.8182 119.499 97.0599 119.907Z" fill="white"/>
<path d="M109.192 110.07L111.933 112.733L111.253 113.433L105.178 107.53L105.859 106.83L108.089 108.998L108.147 108.938C108.015 108.603 107.984 108.261 108.053 107.913C108.122 107.561 108.33 107.206 108.678 106.848C108.98 106.538 109.306 106.327 109.658 106.214C110.007 106.1 110.372 106.103 110.751 106.222C111.131 106.337 111.517 106.585 111.909 106.966L114.803 109.779L114.123 110.478L111.276 107.712C110.914 107.36 110.543 107.182 110.163 107.178C109.782 107.17 109.432 107.331 109.111 107.661C108.888 107.89 108.737 108.143 108.657 108.419C108.579 108.693 108.582 108.973 108.666 109.258C108.752 109.542 108.927 109.812 109.192 110.07Z" fill="white"/>
<path d="M119.608 103.839C119.257 104.341 118.844 104.696 118.368 104.905C117.891 105.11 117.385 105.171 116.847 105.088C116.309 105.001 115.773 104.771 115.24 104.398C114.707 104.026 114.305 103.6 114.034 103.121C113.763 102.639 113.635 102.142 113.652 101.633C113.668 101.119 113.84 100.627 114.169 100.157C114.358 99.886 114.591 99.6499 114.866 99.4487C115.141 99.2475 115.456 99.1096 115.811 99.0349C116.164 98.9585 116.551 98.9721 116.974 99.0756C117.396 99.179 117.85 99.4006 118.336 99.7402L118.675 99.9772L115.869 103.99L115.177 103.507L117.414 100.307C117.121 100.102 116.818 99.9773 116.505 99.9337C116.194 99.8877 115.897 99.9255 115.613 100.047C115.331 100.166 115.089 100.37 114.887 100.66C114.664 100.978 114.551 101.309 114.546 101.652C114.541 101.992 114.62 102.311 114.784 102.611C114.948 102.911 115.174 103.161 115.461 103.362L115.921 103.684C116.315 103.959 116.695 104.124 117.063 104.18C117.431 104.231 117.771 104.185 118.084 104.04C118.395 103.894 118.663 103.66 118.889 103.337C119.036 103.127 119.139 102.916 119.199 102.706C119.258 102.491 119.271 102.28 119.238 102.072C119.203 101.862 119.119 101.661 118.986 101.466L119.743 100.845C119.948 101.11 120.083 101.408 120.148 101.739C120.21 102.068 120.198 102.413 120.111 102.773C120.022 103.131 119.854 103.487 119.608 103.839Z" fill="white"/>
<path d="M123.36 97.492L117.691 94.625L118.117 93.7836L118.973 94.2166L119.003 94.1575C118.775 93.9124 118.642 93.6103 118.604 93.2513C118.566 92.8923 118.633 92.5431 118.805 92.2036C118.837 92.1396 118.879 92.0602 118.93 91.9655C118.981 91.8708 119.021 91.8001 119.051 91.7534L119.937 92.2014C119.914 92.2272 119.869 92.2892 119.801 92.3876C119.731 92.4822 119.667 92.5873 119.609 92.7029C119.469 92.9785 119.403 93.2538 119.409 93.5287C119.414 93.8 119.485 94.0494 119.624 94.2769C119.761 94.5007 119.957 94.6774 120.213 94.8068L123.8 96.6211L123.36 97.492Z" fill="white"/>
<path d="M127.586 87.9987C127.39 88.5785 127.093 89.0353 126.695 89.3691C126.295 89.6995 125.825 89.9 125.286 89.9708C124.745 90.038 124.167 89.9674 123.55 89.7588C122.934 89.5502 122.429 89.2541 122.035 88.8704C121.639 88.4832 121.378 88.0426 121.251 87.5485C121.122 87.051 121.15 86.5306 121.334 85.9874C121.44 85.674 121.597 85.3822 121.805 85.112C122.013 84.8418 122.276 84.6211 122.596 84.45C122.914 84.2779 123.289 84.1825 123.724 84.1635C124.158 84.1446 124.656 84.2301 125.217 84.4202L125.609 84.5527L124.039 89.1908L123.24 88.9204L124.492 85.2224C124.152 85.1075 123.826 85.0729 123.514 85.1186C123.203 85.1616 122.928 85.2811 122.69 85.477C122.453 85.6704 122.277 85.9342 122.164 86.2685C122.04 86.6367 122.023 86.9862 122.115 87.3171C122.205 87.6444 122.371 87.929 122.612 88.1707C122.853 88.4125 123.14 88.5895 123.471 88.7017L124.004 88.882C124.459 89.0358 124.87 89.0879 125.239 89.0381C125.607 88.9849 125.92 88.8451 126.18 88.6187C126.438 88.3915 126.629 88.0911 126.756 87.7177C126.838 87.4748 126.878 87.2439 126.877 87.0251C126.873 86.8027 126.827 86.5963 126.737 86.4058C126.645 86.2145 126.507 86.0443 126.325 85.8952L126.878 85.0869C127.149 85.2835 127.362 85.5316 127.517 85.8314C127.669 86.1303 127.753 86.4646 127.771 86.8343C127.786 87.2032 127.724 87.5913 127.586 87.9987Z" fill="white"/>
<path d="M73.0316 126.124L72.8538 125.526C72.7752 125.262 72.5948 125.04 72.3523 124.908C72.1098 124.777 71.8251 124.747 71.5607 124.826C71.2964 124.904 71.0741 125.085 70.9428 125.327C70.8114 125.57 70.7818 125.854 70.8604 126.119L69.9121 122.929C69.8335 122.665 69.6531 122.443 69.4106 122.311C69.1681 122.18 68.8834 122.15 68.6191 122.229C68.3547 122.308 68.1325 122.488 68.0011 122.731C67.8698 122.973 67.8401 123.258 67.9187 123.522L69.716 129.567L68.0616 127.998C67.8613 127.808 67.5937 127.705 67.3176 127.712C67.0416 127.72 66.7798 127.836 66.5898 128.037C66.3997 128.237 66.2971 128.505 66.3044 128.781C66.3117 129.057 66.4284 129.319 66.6287 129.509C69.2712 132.449 70.6136 133.352 72.8162 132.697C73.3398 132.541 73.8275 132.284 74.2517 131.94C74.6758 131.596 75.028 131.171 75.2881 130.691C75.5482 130.211 75.7112 129.684 75.7677 129.141C75.8243 128.597 75.7733 128.048 75.6176 127.525L75.0249 125.531C74.9463 125.267 74.7659 125.045 74.5235 124.913C74.281 124.782 73.9962 124.753 73.7319 124.831C73.4676 124.91 73.2453 125.09 73.1139 125.333C72.9826 125.575 72.953 125.86 73.0316 126.124V126.124Z" stroke="#5390E3" stroke-width="1.08296" stroke-linecap="round" stroke-linejoin="round"/>
<path d="M55.5436 16.0163L55.3419 15.2142L58.5346 14.4116L58.7362 15.2138L55.5436 16.0163ZM58.1767 16.9237L57.2301 17.1616L55.7542 11.2898C55.687 11.0224 55.5978 10.8316 55.4866 10.7174C55.3735 10.6065 55.2497 10.5438 55.1153 10.5293C54.9788 10.5181 54.8411 10.53 54.7021 10.5649C54.5978 10.5912 54.5136 10.618 54.4494 10.6455C54.3859 10.6757 54.3351 10.6998 54.297 10.7179L53.8908 9.91602C53.9489 9.87583 54.0324 9.82925 54.1414 9.77628C54.2496 9.72064 54.392 9.67064 54.5685 9.62628C54.8359 9.55907 55.1123 9.55069 55.3979 9.60114C55.6809 9.65227 55.9361 9.77431 56.1637 9.96727C56.3886 10.1609 56.5461 10.4369 56.6362 10.7952L58.1767 16.9237Z" fill="white"/>
<path d="M48.0259 11.714C48.3999 11.5651 48.7674 11.5005 49.1283 11.5201C49.4902 11.5422 49.8143 11.6521 50.1007 11.8497C50.3881 12.0499 50.6082 12.3421 50.7611 12.7264C50.8957 13.0645 50.9381 13.3651 50.8885 13.6282C50.8399 13.8938 50.7281 14.1312 50.5532 14.3403C50.3782 14.5494 50.168 14.7369 49.9225 14.9028C49.6754 15.0724 49.4219 15.2296 49.1621 15.3745C48.8218 15.5634 48.5448 15.7136 48.3311 15.8254C48.1159 15.9407 47.9688 16.0482 47.8898 16.1479C47.8082 16.2486 47.7964 16.372 47.8545 16.518L47.8668 16.5487C48.0176 16.9279 48.2386 17.1812 48.5297 17.3087C48.8182 17.4372 49.1713 17.4183 49.5888 17.2522C50.0217 17.0799 50.3234 16.8501 50.4939 16.5626C50.6644 16.2752 50.7568 16.004 50.7711 15.7491L51.7541 15.714C51.7431 16.1338 51.6493 16.4946 51.4727 16.7963C51.2945 17.1016 51.0687 17.3547 50.7955 17.5554C50.5207 17.7597 50.2348 17.921 49.9376 18.0392C49.748 18.1146 49.5211 18.1782 49.2569 18.23C48.991 18.2853 48.7153 18.2897 48.4297 18.2431C48.1416 18.1975 47.8651 18.0657 47.6003 17.8477C47.3355 17.6296 47.1098 17.2862 46.9232 16.8174L45.3758 12.9287L46.2827 12.5679L46.6007 13.3671L46.6468 13.3488C46.6573 13.1962 46.7053 13.0184 46.7906 12.8153C46.876 12.6122 47.0174 12.412 47.2148 12.2148C47.4123 12.0175 47.6826 11.8505 48.0259 11.714ZM48.2117 12.5836C47.8531 12.7263 47.5789 12.9171 47.389 13.1558C47.1966 13.3956 47.082 13.6519 47.0451 13.9247C47.0057 14.1985 47.035 14.4584 47.1328 14.7043L47.4631 15.5343C47.4832 15.4729 47.5509 15.397 47.6662 15.3066C47.7801 15.2198 47.9159 15.1286 48.0738 15.0332C48.2301 14.9413 48.3836 14.8535 48.5342 14.7698C48.6834 14.6897 48.804 14.6239 48.8963 14.5723C49.1197 14.4478 49.3202 14.3102 49.4976 14.1595C49.6734 14.0123 49.7971 13.8459 49.8686 13.6602C49.9386 13.478 49.9277 13.2717 49.8359 13.0411C49.7105 12.7261 49.4992 12.5342 49.2019 12.4656C48.903 12.4005 48.5729 12.4399 48.2117 12.5836Z" fill="white"/>
<path d="M39.9384 12.9507L44.3903 20.4653L43.5791 20.9459L43.0648 20.0778L42.9651 20.1368C42.9597 20.2682 42.9459 20.4398 42.924 20.6515C42.901 20.867 42.8208 21.094 42.6833 21.3325C42.5448 21.5747 42.2977 21.8012 41.9418 22.012C41.4817 22.2847 41.0079 22.4099 40.5205 22.3878C40.0332 22.3657 39.566 22.2019 39.1189 21.8963C38.6719 21.5907 38.2784 21.1509 37.9383 20.5769C37.5954 19.9981 37.3966 19.4381 37.342 18.8968C37.2887 18.358 37.3676 17.869 37.5785 17.43C37.7909 16.9933 38.1248 16.6401 38.5802 16.3703C38.9313 16.1623 39.2468 16.0539 39.5268 16.0451C39.8082 16.0386 40.0501 16.0763 40.2524 16.1583C40.4562 16.2427 40.6185 16.3164 40.7392 16.3795L40.8103 16.3373L39.0987 13.4482L39.9384 12.9507ZM41.946 18.2218C41.7015 17.8091 41.4253 17.4808 41.1174 17.237C40.8109 16.9955 40.4888 16.8547 40.1509 16.8145C39.8145 16.7767 39.4778 16.8576 39.141 17.0571C38.7899 17.2651 38.5518 17.5312 38.4266 17.8553C38.3004 18.1832 38.2714 18.5401 38.3397 18.9258C38.4071 19.3153 38.556 19.7046 38.7864 20.0936C39.0141 20.4779 39.2786 20.7891 39.5798 21.0272C39.8802 21.2691 40.2023 21.4099 40.5463 21.4496C40.8894 21.4931 41.2388 21.4095 41.5946 21.1987C41.9362 20.9964 42.1719 20.7397 42.3018 20.4289C42.433 20.1204 42.4666 19.7768 42.4026 19.3982C42.3399 19.0219 42.1877 18.6298 41.946 18.2218Z" fill="white"/>
<path d="M29.8135 28.0591L27.0729 25.3961L27.753 24.6961L33.8274 30.5985L33.1473 31.2984L30.9168 29.1312L30.8592 29.1905C30.9907 29.5259 31.022 29.8676 30.9529 30.2157C30.8838 30.5676 30.6754 30.9226 30.3277 31.2804C30.026 31.5909 29.6996 31.8022 29.3483 31.9145C28.999 32.0287 28.6343 32.0262 28.2544 31.9068C27.8745 31.7914 27.4888 31.5435 27.0972 31.1631L24.2024 28.3502L24.8826 27.6503L27.7299 30.417C28.0918 30.7686 28.4628 30.9465 28.8431 30.9508C29.2234 30.959 29.574 30.798 29.8949 30.4678C30.1177 30.2384 30.2691 29.9857 30.349 29.7096C30.4269 29.4355 30.4239 29.1558 30.3399 28.8704C30.2539 28.587 30.0784 28.3165 29.8135 28.0591Z" fill="white"/>
<path d="M19.3982 34.2897C19.7489 33.7881 20.1621 33.4328 20.6379 33.2239C21.1144 33.0188 21.6213 32.9577 22.1587 33.0408C22.6968 33.1277 23.2324 33.3575 23.7657 33.7304C24.2989 34.1032 24.701 34.529 24.9718 35.0077C25.2433 35.4902 25.3708 35.9864 25.3541 36.4962C25.3381 37.0098 25.1658 37.5016 24.8372 37.9716C24.6476 38.2427 24.4152 38.4789 24.14 38.6801C23.8648 38.8812 23.5496 39.0192 23.1946 39.0939C22.8419 39.1702 22.4544 39.1566 22.0322 39.0532C21.61 38.9497 21.156 38.7282 20.6702 38.3885L20.3313 38.1515L23.1371 34.1386L23.8285 34.6221L21.5914 37.8216C21.8852 38.0269 22.1883 38.1515 22.501 38.1951C22.812 38.241 23.1092 38.2032 23.3926 38.0818C23.6744 37.9626 23.9165 37.7584 24.1187 37.4692C24.3414 37.1506 24.4551 36.8197 24.4597 36.4763C24.4649 36.1369 24.3856 35.8173 24.2216 35.5177C24.0577 35.218 23.8323 34.9679 23.5453 34.7672L23.0844 34.4449C22.6912 34.1701 22.3106 34.0048 21.9424 33.9492C21.5749 33.8975 21.2346 33.9438 20.9216 34.0883C20.6109 34.2344 20.3426 34.469 20.1167 34.7921C19.9698 35.0023 19.8664 35.2126 19.8067 35.4231C19.7476 35.6375 19.7345 35.8487 19.7674 36.0567C19.8025 36.2663 19.8868 36.4682 20.0201 36.6623L19.2629 37.2834C19.0577 37.0188 18.9228 36.721 18.8582 36.3899C18.7959 36.0604 18.8082 35.7157 18.8949 35.3559C18.984 34.9976 19.1517 34.6422 19.3982 34.2897Z" fill="white"/>
<path d="M15.6462 40.6368L21.3146 43.5038L20.8891 44.3452L20.0329 43.9122L20.003 43.9712C20.2312 44.2164 20.3642 44.5185 20.402 44.8775C20.4398 45.2364 20.3729 45.5857 20.2011 45.9252C20.1688 45.9892 20.1271 46.0685 20.0761 46.1632C20.0251 46.2579 19.9847 46.3286 19.9549 46.3753L19.0692 45.9274C19.0915 45.9016 19.1368 45.8395 19.2051 45.7412C19.2746 45.6466 19.3386 45.5415 19.3971 45.4258C19.5364 45.1503 19.6031 44.875 19.5969 44.6C19.592 44.3287 19.5204 44.0793 19.3821 43.8518C19.2451 43.628 19.0486 43.4514 18.7927 43.322L15.2057 41.5077L15.6462 40.6368Z" fill="white"/>
<path d="M11.4195 50.13C11.6157 49.5503 11.913 49.0935 12.3112 48.7596C12.7112 48.4293 13.1807 48.2287 13.7198 48.158C14.2607 48.0907 14.8393 48.1614 15.4556 48.37C16.072 48.5785 16.5771 48.8747 16.9712 49.2584C17.367 49.6456 17.6283 50.0862 17.7551 50.5802C17.8835 51.0778 17.8559 51.5982 17.672 52.1414C17.566 52.4547 17.409 52.7465 17.2011 53.0167C16.9933 53.2869 16.7294 53.5076 16.4095 53.6788C16.0922 53.8508 15.7164 53.9463 15.2822 53.9652C14.8479 53.9842 14.35 53.8986 13.7885 53.7086L13.3968 53.576L14.9665 48.9379L15.7657 49.2084L14.5141 52.9063C14.8536 53.0212 15.1795 53.0558 15.4919 53.0102C15.8033 52.9672 16.0781 52.8477 16.3161 52.6517C16.5533 52.4584 16.7284 52.1946 16.8416 51.8603C16.9662 51.4921 16.9826 51.1425 16.8908 50.8117C16.8008 50.4843 16.6351 50.1998 16.3939 49.958C16.1526 49.7163 15.8661 49.5393 15.5345 49.427L15.0017 49.2467C14.5473 49.0929 14.1356 49.0409 13.7666 49.0906C13.3993 49.1439 13.0856 49.2837 12.8256 49.5101C12.5683 49.7373 12.3764 50.0376 12.25 50.4111C12.1678 50.654 12.1275 50.8848 12.1291 51.1037C12.1325 51.326 12.179 51.5324 12.2688 51.7229C12.3612 51.9143 12.4986 52.0845 12.681 52.2335L12.1281 53.0418C11.8569 52.8453 11.644 52.5971 11.4894 52.2974C11.3373 51.9985 11.2525 51.6642 11.235 51.2944C11.2201 50.9256 11.2816 50.5374 11.4195 50.13Z" fill="white"/>
<path d="M65.9743 12.0046L66.1521 12.6026C66.2307 12.867 66.4111 13.0893 66.6536 13.2206C66.8961 13.3519 67.1808 13.3816 67.4451 13.303C67.7095 13.2244 67.9318 13.044 68.0631 12.8015C68.1944 12.559 68.2241 12.2743 68.1455 12.01L69.0938 15.1993C69.1724 15.4637 69.3527 15.686 69.5952 15.8173C69.8377 15.9486 70.1224 15.9783 70.3868 15.8997C70.6511 15.8211 70.8734 15.6407 71.0047 15.3982C71.1361 15.1557 71.1657 14.871 71.0871 14.6067L69.2898 8.56179L70.9442 10.131C71.1446 10.321 71.4122 10.4236 71.6882 10.4163C71.9643 10.409 72.2261 10.2924 72.4161 10.092C72.6061 9.89168 72.7088 9.62405 72.7014 9.34802C72.6941 9.07199 72.5775 8.81017 72.3771 8.62016C69.7346 5.67959 68.3923 4.77695 66.1896 5.43186C65.6661 5.58753 65.1783 5.84478 64.7542 6.18895C64.3301 6.53312 63.9779 6.95745 63.7178 7.43772C63.4576 7.91799 63.2947 8.4448 63.2381 8.98806C63.1816 9.53132 63.2326 10.0804 63.3883 10.6039L63.9809 12.5973C64.0595 12.8616 64.2399 13.0839 64.4824 13.2153C64.7249 13.3466 65.0096 13.3762 65.274 13.2976C65.5383 13.2191 65.7606 13.0387 65.8919 12.7962C66.0233 12.5537 66.0529 12.269 65.9743 12.0046V12.0046Z" stroke="#5390E3" stroke-width="1.08296" stroke-linecap="round" stroke-linejoin="round"/>
</svg>
