<svg width="40" height="40" viewBox="0 0 40 40" fill="none" xmlns="http://www.w3.org/2000/svg">
<path d="M39.8676 5.9208L21.0776 39.4784C20.6897 40.1712 19.693 40.1753 19.2992 39.4858L0.13663 5.92403C-0.292362 5.17269 0.35093 4.2626 1.20342 4.41478L20.0135 7.77276C20.1335 7.79418 20.2564 7.79397 20.3764 7.77213L38.7931 4.41959C39.6428 4.26493 40.2891 5.16797 39.8676 5.9208Z" fill="url(#paint0_linear_115_1917)"/>
<path d="M28.9738 0.0098476L15.0686 2.73109C14.8401 2.77581 14.6709 2.96925 14.6571 3.20139L13.8017 17.6296C13.7816 17.9694 14.0941 18.2332 14.4262 18.1567L18.2976 17.2644C18.6598 17.1809 18.9871 17.4996 18.9126 17.8634L17.7625 23.4886C17.685 23.8672 18.0409 24.1909 18.4111 24.0786L20.8023 23.353C21.173 23.2406 21.5292 23.5653 21.4507 23.9442L19.6229 32.7801C19.5085 33.3328 20.2446 33.6342 20.5516 33.1603L20.7566 32.8438L32.0873 10.2598C32.2771 9.8817 31.9499 9.45053 31.534 9.53068L27.5491 10.2988C27.1746 10.3709 26.856 10.0226 26.9617 9.65669L29.5626 0.651634C29.6684 0.285099 29.3487 -0.0635073 28.9738 0.0098476Z" fill="url(#paint1_linear_115_1917)"/>
<defs>
<linearGradient id="paint0_linear_115_1917" x1="-0.331239" y1="7.1222" x2="19.9007" y2="34.6334" gradientUnits="userSpaceOnUse">
<stop stop-color="#41D1FF"/>
<stop offset="1" stop-color="#BD34FE"/>
</linearGradient>
<linearGradient id="paint1_linear_115_1917" x1="21.7567" y1="0.748658" x2="25.9153" y2="29.3118" gradientUnits="userSpaceOnUse">
<stop stop-color="#FFEA83"/>
<stop offset="0.0833333" stop-color="#FFDD35"/>
<stop offset="1" stop-color="#FFA800"/>
</linearGradient>
</defs>
</svg>
